<svg xmlns="http://www.w3.org/2000/svg" viewBox="0 0 2834.65 2834.65"><g style="isolation:isolate"><g id="Capa_1" data-name="Capa 1"><circle cx="1417.32" cy="1427.32" r="1211.1" style="fill:#f04f3e"/><path d="M2616.35,1417.32S2079.53,1998,1417.32,1998s-1199-580.69-1199-580.69,536.82-580.68,1199-580.68S2616.35,1417.32,2616.35,1417.32Z" style="fill:none;stroke:#fff;stroke-miterlimit:10;stroke-width:100px"/><path d="M537.51,2160.52l141.7-135.41,59,61.77q22.41,23.45,30.61,49.86t1.71,51.64q-6.49,25.23-27.54,45.35t-46.55,25.45q-25.5,5.34-51.51-4t-48.42-32.84Zm37.62,4.11L613,2204.2q17.4,18.23,36.79,25.13a68.54,68.54,0,0,0,38.43,2.73q19.05-4.18,34.84-19.27,16-15.28,20.93-34a68.9,68.9,0,0,0-1.08-38.42q-6-19.7-23.43-37.9l-37.82-39.57Z" style="fill:#fff"/><path d="M722.07,2335.82l89.3-118.52L833.58,2234l-89.31,118.52Zm117.59-133a18.93,18.93,0,0,1-7.72-12.13,16.25,16.25,0,0,1,3.14-13.07,16.56,16.56,0,0,1,11.86-6.83,18.88,18.88,0,0,1,13.79,4.07,19.24,19.24,0,0,1,7.8,12,15.81,15.81,0,0,1-3,12.95,17.22,17.22,0,0,1-11.83,7Q846.38,2207.92,839.66,2202.86Z" style="fill:#fff"/><path d="M834.3,2412.2l16.09-162.11,25.07,14.5-15.6,146.21-12-7,119.9-85.94,23.57,13.63L858.87,2426.4Z" style="fill:#fff"/><path d="M945.73,2532.46a67,67,0,0,1-18.79-10.88,51.07,51.07,0,0,1-13.16-15.93L932,2491a41.92,41.92,0,0,0,9,12.11,39.17,39.17,0,0,0,12.81,7.86q9.48,3.6,17.5,1.25t18-12.33l16.19-15.72,3.9-2.11,104.12-104.53,25.45,9.66-127.53,126.2q-11.79,12.28-22.69,17.74a48,48,0,0,1-21.44,5.48A60.05,60.05,0,0,1,945.73,2532.46Zm52.3-34.95-11.15-168.07,27.07,10.28,8.87,144.73Z" style="fill:#fff"/><path d="M1170.37,2546.51q-16.74-3.42-28.25-11.49t-16.32-19.2a38.36,38.36,0,0,1-2.29-23.48,41.23,41.23,0,0,1,10.19-20.2q7.77-8.41,22.15-11.48t36.79,1.52l47.66,9.75-3.87,18.93-46.53-9.52q-20.43-4.17-28.87,1a21.32,21.32,0,0,0-10.34,14.46,20.62,20.62,0,0,0,5.29,18.94q7.47,8.25,23.08,11.44,15.32,3.14,28.16-1.1a38.56,38.56,0,0,0,20.52-15.81l1.69,19.21q-8,11.79-23.19,16.55T1170.37,2546.51Zm49.7,8.45,6.29-30.73-.24-6.05,10.71-52.39q3.42-16.73-4.77-28t-28.34-15.36a83.84,83.84,0,0,0-27-1.09,69.3,69.3,0,0,0-23.89,7l-7.32-22.08a85,85,0,0,1,30.78-8.14,123.18,123.18,0,0,1,35.18,2.2q30.91,6.32,44.69,24.28t7.65,47.86l-17.95,87.79Z" style="fill:#fff"/><path d="M1412.44,2574.65l-14.11-195.49,85.22-6.15q32.34-2.34,57.93,8.17t40.9,31.57q15.31,21.08,17.41,50.12t-10,52.1q-12.13,23.06-35.94,37.12t-56.16,16.41Zm27.14-26.38,54.59-3.94q25.13-1.82,42.81-12.36a68.66,68.66,0,0,0,26.59-27.88q8.9-17.36,7.33-39.13-1.59-22.07-12.89-37.81a68.83,68.83,0,0,0-30.31-23.64q-19-7.91-44.13-6.08l-54.6,3.94Z" style="fill:#fff"/><path d="M1666.74,2544.63l-36.23-143.91,25.84-6.5,9.84,39.1-5-9.14a46.13,46.13,0,0,1,15-28q12.62-11.55,34-16.92l6.36,25.25a20.48,20.48,0,0,0-3.3.54l-3,.74q-21.63,5.45-31.12,21.12t-3.55,39.29l18,71.69Z" style="fill:#fff"/><path d="M1743,2338.46a18.89,18.89,0,0,1-14.38-.23,16.21,16.21,0,0,1-9.18-9.81,16.52,16.52,0,0,1,.81-13.66,18.86,18.86,0,0,1,11-9.27,19.23,19.23,0,0,1,14.34.09,15.85,15.85,0,0,1,9.13,9.68,17.29,17.29,0,0,1-.63,13.75Q1750.92,2335.64,1743,2338.46Zm46.32,171.35L1739.49,2370l26.19-9.34,49.82,139.79Z" style="fill:#fff"/><path d="M1917.91,2458.48a128.58,128.58,0,0,1-34.87,11.43q-17.7,3-29.74.83l1.06-24.21a96.21,96.21,0,0,0,26.66-.87,99.18,99.18,0,0,0,28.5-8.95q17.43-8.52,22.77-17.05t1.16-17.08a12.89,12.89,0,0,0-9.47-7.53,36.35,36.35,0,0,0-15,.76q-8.54,2-18.58,5.19t-20.45,5.63a84.5,84.5,0,0,1-20.12,2.36,35.62,35.62,0,0,1-17.78-4.71q-8.07-4.64-13.72-16.2a37.27,37.27,0,0,1-3.31-24.57q2.61-12.48,13.08-23.69t28.18-19.85a138.8,138.8,0,0,1,29-10.27q15.45-3.66,27.13-2.2l-1.32,24.33a66.8,66.8,0,0,0-23.58,1.24,103.57,103.57,0,0,0-21.4,7.66q-16.39,8-21.93,17.11t-1.61,17.15q3.32,6.8,9.91,8.09a39.45,39.45,0,0,0,15.26-.45,175.24,175.24,0,0,0,18.7-4.93q10.05-3.19,20.45-5.64a87.21,87.21,0,0,1,19.94-2.42,36.63,36.63,0,0,1,17.65,4.46q8.13,4.44,13.67,15.76a35.38,35.38,0,0,1,2.92,24.44q-3,12.38-13.86,23.76T1917.91,2458.48Z" style="fill:#fff"/><path d="M2025,2399.77l-121.71-168.38,22.53-16.29,58.23,80.56-10.69-5.4q-2.43-16.2,5.49-32t24.82-28q15.25-11,31-13.75a51.24,51.24,0,0,1,30.66,4.1q14.92,6.83,27.73,24.52l50,69.22-22.54,16.28L2072.26,2264q-12.63-17.48-27.83-20t-31.16,9.05q-12,8.65-17.61,19.64a39,39,0,0,0-4.05,23.31q1.59,12.33,11.1,25.49l44.78,61.95Z" style="fill:#fff"/><path d="M2233.56,2229.71q-16.36,16.39-33.89,16.91t-33.38-15.3L2070,2135.19l19.64-19.68,95.53,95.33q8.52,8.52,17.47,8.65t17.14-8.06q9.21-9.22,10.39-20.32l19.82,7.5a40.84,40.84,0,0,1-5.2,16.3A66.58,66.58,0,0,1,2233.56,2229.71Zm-143.36-37.5-15.65-15.63,69.14-69.28,15.66,15.62Z" style="fill:#fff"/><path d="M2156.78,2046.88a18.87,18.87,0,0,1-12.39,7.29,16.27,16.27,0,0,1-12.95-3.6,16.57,16.57,0,0,1-6.41-12.09,18.88,18.88,0,0,1,4.57-13.64,19.22,19.22,0,0,1,12.29-7.37,15.81,15.81,0,0,1,12.83,3.51,17.22,17.22,0,0,1,6.61,12.07Q2162.08,2040.36,2156.78,2046.88Zm128.71,122.25-115.27-93.46,17.5-21.6L2303,2147.53Z" style="fill:#fff"/><g style="opacity:0.2;mix-blend-mode:multiply"><path d="M1128,1376.61s-88.55,174,86.51,270.74c138.42,58,191.35-50.89,165.91-110.95-16.06-37.88-53.1-58.56-102.8-30.53L1247,1423.43s136.92-16.54,123.16-97.72c-10.18-60-144.53-17.3-176.09,20.36l-51.9-80.41s125.19-92.62,221.88-44.78,85.5,166.92-16.28,221.88c0,0,77.32,23.17,109.92,106.88,37.66,96.69-6.11,239.18-176.08,221.88S1019.05,1542.51,1128,1376.61Z" style="fill:#fff"/><path d="M1368.16,1464.14s85.5,31.55,128.25-30.54,45.8-108.9,146.56-108.9c117.8,0,186.5,171.27,91.61,293.13-96.7,124.17-268.71,69.21-216.8-76.34,0,0,29.52,96.7,130.28,46.82s56-187.28,9.16-200.51-79.39-18.32-130.28,72.27-120.1,29.51-120.1,29.51Z" style="fill:#fff"/><path d="M1402.77,1128.26s22.39,94.65,118.07,94.65,146.56-62.08,146.56-62.08l51.91,71.25s-60,68.19-165.9,64.12S1400.73,1211.72,1402.77,1128.26Z" style="fill:#fff"/><polygon points="1468.93 1139.45 1525.92 1194.42 1585.98 1137.42 1524.91 1079.4 1468.93 1139.45" style="fill:#fff"/></g><path d="M1102.41,1358.89s-88.55,174,86.52,270.74c138.42,58,191.35-50.89,165.9-110.94-16-37.88-53.09-58.57-102.8-30.54l-30.53-82.44s136.91-16.53,123.16-97.71c-10.18-60-144.54-17.31-176.09,20.35l-51.91-80.4s125.2-92.63,221.89-44.79,85.5,166.93-16.29,221.89c0,0,77.33,23.17,109.93,106.87,37.66,96.69-6.11,239.19-176.09,221.88S993.51,1524.79,1102.41,1358.89Z" style="fill:#fff"/><path d="M1342.62,1446.42s85.5,31.55,128.25-30.53S1516.67,1307,1617.43,1307c117.8,0,186.5,171.27,91.61,293.13-96.7,124.18-268.71,69.21-216.8-76.33,0,0,29.52,96.69,130.28,46.82s56-187.28,9.16-200.51-79.39-18.33-130.28,72.26-120.1,29.52-120.1,29.52Z" style="fill:#fff"/><path d="M1377.23,1110.54s22.39,94.66,118.06,94.66,146.57-62.09,146.57-62.09l51.91,71.25s-60,68.19-165.91,64.12S1375.19,1194,1377.23,1110.54Z" style="fill:#fff"/><polygon points="1443.38 1121.74 1500.38 1176.7 1560.43 1119.7 1499.36 1061.68 1443.38 1121.74" style="fill:#fff"/><circle cx="1417.32" cy="1417.32" r="580.69" style="fill:none;stroke:#fff;stroke-miterlimit:10;stroke-width:100px"/></g></g></svg>