<?xml version="1.0" encoding="UTF-8"?>
<svg xmlns="http://www.w3.org/2000/svg" viewBox="0 0 285.18 69.01">
  <defs>
    <style>
      .cls-1, .cls-2 {
        fill: #e6873c;
      }

      .cls-3, .cls-4 {
        fill: #fff;
      }

      .cls-5 {
        fill: #f04f3e;
      }

      .cls-6 {
        fill: #fec76f;
      }

      .cls-7 {
        fill: none;
      }

      .cls-8 {
        isolation: isolate;
      }

      .cls-2 {
        fill-rule: evenodd;
      }

      .cls-9 {
        mix-blend-mode: multiply;
        opacity: .2;
      }

      .cls-10 {
        fill: #235776;
      }

      .cls-4 {
        stroke: #f04f3e;
        stroke-miterlimit: 10;
      }
    </style>
  </defs>
  <g class="cls-8">
    <g id="Capa_1" data-name="Capa 1">
      <g>
        <rect class="cls-5" x="67.41" y="28.04" width="58.92" height="12.4"/>
        <g>
          <ellipse class="cls-6" cx="35.32" cy="34.5" rx="35.32" ry="34.5"/>
          <circle class="cls-5" cx="35.32" cy="34.5" r="31.53"/>
          <path class="cls-3" d="M35.32,50.66c-4.09,0-8.33-.82-12.61-2.45-3.4-1.29-6.82-3.08-10.18-5.33-5.71-3.82-9.23-7.6-9.37-7.76l-.82-.88.82-.88c.15-.16,3.66-3.94,9.37-7.76,3.36-2.25,6.79-4.04,10.18-5.33,4.28-1.62,8.52-2.45,12.61-2.45s8.33.82,12.61,2.45c3.4,1.29,6.82,3.08,10.18,5.33,5.71,3.82,9.23,7.6,9.37,7.76l.82.88-.82.88c-.15.16-3.66,3.94-9.37,7.76-3.36,2.25-6.79,4.04-10.18,5.33-4.28,1.62-8.52,2.45-12.61,2.45ZM5.94,34.24c1.36,1.32,4.22,3.93,8.09,6.51,4.99,3.33,12.74,7.3,21.29,7.3s16.3-3.97,21.29-7.3c3.87-2.58,6.73-5.19,8.09-6.51-1.36-1.32-4.22-3.93-8.09-6.51-4.99-3.33-12.74-7.3-21.29-7.3s-16.3,3.97-21.29,7.3c-3.87,2.58-6.73,5.19-8.09,6.51Z"/>
          <g>
            <path class="cls-7" d="M7.9,37.47c0,14.13,12.28,25.58,27.42,25.58s27.42-11.45,27.42-25.58"/>
            <path class="cls-3" d="M13.54,53.16l3.33-3.26,1.47,1.5c.37.38.63.79.78,1.21.14.43.17.84.08,1.25-.09.41-.3.77-.63,1.09-.33.32-.7.53-1.11.61s-.82.05-1.25-.11c-.42-.15-.82-.42-1.2-.8l-1.47-1.5ZM14.46,53.27l.94.96c.29.29.59.5.91.61.32.11.63.14.93.07.3-.06.58-.22.83-.46.25-.25.41-.52.48-.82.07-.3.05-.61-.05-.93s-.3-.62-.59-.92l-.94-.96-2.5,2.45Z"/>
            <path class="cls-3" d="M18.18,57.45l2.08-2.85.55.4-2.08,2.85-.55-.4ZM20.93,54.25c-.11-.08-.17-.18-.2-.29-.02-.12,0-.22.07-.31.07-.1.17-.15.28-.16.12-.01.23.02.34.1.11.08.17.18.2.29.03.12,0,.22-.06.31-.07.1-.16.15-.28.17-.12.02-.23-.02-.34-.1Z"/>
            <path class="cls-3" d="M20.97,59.28l.27-3.88.62.35-.27,3.51-.3-.17,2.86-2.06.59.33-3.16,2.28-.61-.34Z"/>
            <path class="cls-3" d="M23.7,62.12c-.17-.06-.33-.15-.47-.26-.14-.11-.25-.24-.33-.38l.44-.35c.06.11.14.21.23.29.09.08.2.14.32.19.16.06.3.07.43.03.13-.04.27-.13.43-.29l.39-.38.09-.05,2.5-2.49.63.23-3.06,3.01c-.19.2-.37.34-.55.42-.18.09-.35.13-.52.13s-.35-.03-.53-.1ZM24.96,61.29l-.36-4.01.67.25.29,3.46-.6.31Z"/>
            <path class="cls-3" d="M29.17,62.45c-.27-.05-.51-.15-.7-.27-.19-.13-.33-.28-.41-.46-.08-.18-.1-.36-.06-.56.04-.19.12-.35.25-.48.12-.13.31-.22.54-.27.24-.05.54-.04.91.04l1.17.23-.09.45-1.15-.23c-.34-.07-.57-.06-.71.02-.14.08-.22.2-.25.34-.03.17.01.32.13.45s.31.22.57.27c.25.05.48.04.69-.03.21-.07.38-.19.5-.38l.05.46c-.13.19-.32.32-.57.39-.25.08-.54.08-.88,0ZM30.39,62.66l.15-.73v-.14s.24-1.25.24-1.25c.05-.27.01-.49-.12-.67-.14-.18-.37-.3-.7-.37-.22-.04-.44-.05-.66-.03-.22.03-.42.08-.58.16l-.19-.53c.22-.11.47-.17.75-.19.28-.02.57,0,.87.05.51.1.88.29,1.11.58.23.29.3.67.2,1.14l-.42,2.09-.64-.13Z"/>
            <path class="cls-3" d="M35.11,63.14l-.31-4.65,2.1-.14c.53-.04,1.01.03,1.42.2.42.17.75.42,1,.75.25.33.39.73.42,1.19.03.46-.05.87-.26,1.24s-.5.66-.89.88c-.39.22-.85.35-1.39.39l-2.1.14ZM35.78,62.51l1.34-.09c.41-.03.76-.12,1.06-.29.29-.17.51-.39.66-.66.15-.28.21-.58.19-.93-.02-.35-.13-.65-.31-.9s-.43-.44-.74-.56c-.31-.12-.67-.17-1.09-.15l-1.34.09.23,3.49Z"/>
            <path class="cls-3" d="M41.38,62.44l-.82-3.43.64-.15.22.93-.12-.22c.04-.26.17-.48.38-.67.21-.18.49-.32.84-.4l.14.6s-.06,0-.08.01-.05.01-.07.02c-.36.09-.61.25-.77.5-.16.25-.2.56-.11.93l.41,1.71-.67.16Z"/>
            <path class="cls-3" d="M43.39,57.53c-.13.04-.24.04-.35,0-.11-.05-.18-.12-.22-.23-.04-.11-.03-.22.03-.33.06-.1.15-.18.27-.22s.24-.04.35,0,.18.12.22.23c.04.11.03.22-.02.33-.05.11-.15.18-.28.22ZM44.42,61.62l-1.14-3.34.65-.22,1.14,3.34-.65.22Z"/>
            <path class="cls-3" d="M47.63,60.39c-.28.13-.57.22-.86.27-.29.05-.53.05-.73.02l.04-.58c.19.02.41.02.65-.02s.48-.11.7-.21c.29-.13.48-.27.57-.41.09-.14.1-.27.04-.41-.05-.1-.12-.16-.23-.18-.1-.02-.23-.01-.37.02-.14.03-.29.07-.46.12s-.33.1-.5.13c-.17.04-.34.06-.49.06s-.3-.04-.43-.11c-.13-.07-.24-.2-.32-.39-.09-.19-.11-.39-.06-.59.05-.2.16-.39.34-.57.18-.18.41-.34.7-.47.22-.11.46-.19.72-.25.25-.06.48-.07.67-.05l-.05.58c-.2-.02-.39-.01-.58.03-.19.04-.36.1-.53.18-.27.13-.45.26-.55.41-.09.14-.11.28-.05.41.05.11.13.17.24.19.11.02.23.02.37-.01.14-.03.3-.07.46-.12s.33-.1.5-.13c.17-.04.33-.06.49-.06s.3.04.43.11.24.2.32.38c.09.19.11.39.05.58-.05.2-.17.39-.36.57s-.43.34-.73.49Z"/>
            <path class="cls-3" d="M50.27,58.99l-2.82-4.05.56-.39,1.35,1.94-.26-.13c-.03-.26.02-.52.16-.77s.35-.48.63-.67c.25-.18.51-.29.76-.33.26-.04.5,0,.74.1.24.11.46.31.65.59l1.16,1.66-.56.39-1.12-1.6c-.2-.28-.42-.44-.66-.48-.25-.04-.5.03-.77.22-.2.14-.35.29-.44.47-.1.18-.14.36-.12.56.02.2.1.4.25.61l1.04,1.49-.56.39Z"/>
            <path class="cls-3" d="M55.49,54.87c-.27.27-.55.4-.83.41-.28,0-.55-.11-.79-.37l-2.26-2.31.49-.48,2.24,2.3c.13.14.27.21.42.21s.28-.06.42-.2c.15-.15.24-.31.27-.49l.47.18c-.02.13-.06.26-.14.39-.08.13-.17.25-.28.36ZM52.05,53.97l-.37-.38,1.73-1.68.37.38-1.73,1.68Z"/>
            <path class="cls-3" d="M53.78,50.44c-.08.1-.19.16-.3.18-.12.02-.22-.01-.31-.09-.09-.08-.14-.17-.15-.29,0-.12.04-.23.12-.33.08-.1.18-.16.3-.18s.22,0,.31.08c.09.08.14.17.15.29,0,.12-.03.23-.12.34ZM56.8,53.38l-2.71-2.25.44-.53,2.71,2.25-.44.53Z"/>
          </g>
          <g>
            <g class="cls-9">
              <path class="cls-3" d="M27.79,33.18s-2.31,4.53,2.25,7.05c3.6,1.51,4.98-1.32,4.32-2.89-.42-.99-1.38-1.52-2.68-.79l-.79-2.15s3.56-.43,3.21-2.54c-.26-1.56-3.76-.45-4.58.53l-1.35-2.09s3.26-2.41,5.78-1.17c2.52,1.25,2.23,4.35-.42,5.78,0,0,2.01.6,2.86,2.78.98,2.52-.16,6.23-4.58,5.78-4.42-.45-6.84-5.96-4-10.28Z"/>
              <path class="cls-3" d="M34.04,35.46s2.23.82,3.34-.79c1.11-1.62,1.19-2.83,3.82-2.83,3.07,0,4.85,4.46,2.38,7.63-2.52,3.23-6.99,1.8-5.64-1.99,0,0,.77,2.52,3.39,1.22,2.62-1.3,1.46-4.87.24-5.22-1.22-.34-2.07-.48-3.39,1.88-1.32,2.36-3.13.77-3.13.77l-1.01-.66Z"/>
              <path class="cls-3" d="M34.94,26.72s.58,2.46,3.07,2.46,3.82-1.62,3.82-1.62l1.35,1.85s-1.56,1.78-4.32,1.67c-2.76-.11-3.97-2.2-3.92-4.37Z"/>
              <polygon class="cls-3" points="36.67 27.01 38.15 28.44 39.71 26.96 38.12 25.45 36.67 27.01"/>
            </g>
            <g>
              <path class="cls-3" d="M27.13,32.72s-2.31,4.53,2.25,7.05c3.6,1.51,4.98-1.32,4.32-2.89-.42-.99-1.38-1.52-2.68-.79l-.79-2.15s3.56-.43,3.21-2.54c-.26-1.56-3.76-.45-4.58.53l-1.35-2.09s3.26-2.41,5.78-1.17c2.52,1.25,2.23,4.35-.42,5.78,0,0,2.01.6,2.86,2.78.98,2.52-.16,6.23-4.58,5.78-4.42-.45-6.84-5.96-4-10.28Z"/>
              <path class="cls-3" d="M33.38,35s2.23.82,3.34-.79c1.11-1.62,1.19-2.83,3.82-2.83,3.07,0,4.85,4.46,2.38,7.63-2.52,3.23-6.99,1.8-5.64-1.99,0,0,.77,2.52,3.39,1.22,2.62-1.3,1.46-4.87.24-5.22-1.22-.34-2.07-.48-3.39,1.88s-3.13.77-3.13.77l-1.01-.66Z"/>
              <path class="cls-3" d="M34.28,26.26s.58,2.46,3.07,2.46,3.82-1.62,3.82-1.62l1.35,1.85s-1.56,1.78-4.32,1.67c-2.76-.11-3.97-2.2-3.92-4.37Z"/>
              <polygon class="cls-3" points="36 26.55 37.48 27.98 39.05 26.5 37.46 24.99 36 26.55"/>
            </g>
          </g>
          <path class="cls-3" d="M35.32,50.66c-2.22,0-4.37-.43-6.39-1.29-1.96-.83-3.71-2.01-5.22-3.52s-2.69-3.26-3.52-5.22c-.86-2.02-1.29-4.17-1.29-6.39s.43-4.37,1.29-6.39c.83-1.96,2.01-3.71,3.52-5.22,1.51-1.51,3.26-2.69,5.22-3.52,2.02-.86,4.17-1.29,6.39-1.29s4.37.43,6.39,1.29c1.96.83,3.71,2.01,5.22,3.52,1.51,1.51,2.69,3.26,3.52,5.22.86,2.02,1.29,4.17,1.29,6.39s-.43,4.37-1.29,6.39c-.83,1.96-2.01,3.71-3.52,5.22-1.51,1.51-3.26,2.69-5.22,3.52-2.02.86-4.17,1.29-6.39,1.29ZM35.32,20.43c-7.62,0-13.81,6.2-13.81,13.81s6.2,13.81,13.81,13.81,13.81-6.2,13.81-13.81-6.2-13.81-13.81-13.81Z"/>
          <g>
            <path class="cls-3" d="M24.75,10.74h-.76v4.12h-.91v-4.12h-.77v-.73h.78c-.13-.27-.19-.52-.19-.75,0-.17.03-.34.1-.49.07-.15.17-.29.31-.4.14-.11.32-.21.54-.27.22-.07.48-.1.79-.1.36,0,.71.05,1.03.15s.63.24.92.41.57.39.83.65c.26.25.51.53.75.84h-.83c-.08-.08-.18-.16-.28-.26-.11-.1-.23-.19-.36-.29-.13-.1-.27-.19-.43-.28-.15-.09-.31-.17-.48-.25s-.34-.13-.52-.17c-.18-.04-.37-.06-.55-.06-.16,0-.31.02-.43.05-.12.03-.22.08-.3.15-.08.06-.14.14-.17.22-.04.09-.06.18-.06.28,0,.09.01.18.04.28.03.09.07.19.13.3h.81v.73Z"/>
            <path class="cls-3" d="M29.27,10.74h-1.06v1.51h-1.28c-.3,0-.54.07-.7.2-.17.13-.25.33-.25.59,0,.15.03.28.08.41.05.13.12.24.22.34.09.1.2.17.33.23.13.06.27.08.43.08.07,0,.13,0,.18-.01.05,0,.1-.02.14-.04-.02-.09-.03-.18-.03-.28,0-.12.02-.24.05-.36.04-.12.09-.22.15-.31s.15-.16.25-.21c.1-.05.22-.08.35-.08.09,0,.18.01.25.04.08.03.15.08.21.13.06.06.11.13.14.22.04.09.05.19.05.3,0,.1-.01.2-.04.29-.03.09-.07.18-.11.26-.05.08-.1.16-.16.23-.06.07-.13.14-.19.2.16.24.35.45.59.63l-.6.57c-.17-.14-.31-.28-.43-.44-.12-.15-.22-.31-.3-.47-.09.03-.18.05-.28.06s-.18.02-.28.02c-.17,0-.33-.02-.5-.07-.16-.04-.32-.11-.46-.18s-.27-.18-.4-.29-.22-.24-.31-.37c-.09-.14-.15-.28-.2-.44s-.07-.32-.07-.49c0-.24.04-.46.12-.65.08-.19.2-.34.34-.47.15-.12.32-.22.53-.28.21-.06.44-.1.69-.1h.55v-.78h-2.79v-.73h4.76v.73Z"/>
            <path class="cls-3" d="M32.5,10.74h-3.48v-.73h3.48v.73ZM29.56,12.58c0-.2.04-.39.12-.56s.2-.32.34-.45c.15-.13.32-.23.53-.3.2-.07.43-.11.68-.11s.48.04.69.11c.21.07.38.17.54.28.15.11.28.24.38.38.1.14.16.28.2.42,0,.29-.05.54-.12.76-.08.22-.19.41-.33.56-.14.15-.31.27-.52.35-.2.08-.43.12-.69.12-.28,0-.53-.04-.76-.13s-.41-.2-.57-.35-.28-.31-.36-.5c-.08-.19-.13-.38-.13-.58ZM32.2,12.35c-.12-.16-.25-.28-.39-.36-.14-.08-.3-.12-.47-.12-.14,0-.26.02-.37.07s-.19.11-.26.18c-.07.08-.12.16-.16.25-.04.09-.05.18-.05.26,0,.09.02.18.06.27s.09.17.17.24.16.13.26.17c.1.05.22.07.34.07.1,0,.21-.02.31-.05.1-.04.19-.1.27-.18s.15-.19.2-.32c.05-.13.08-.29.09-.48ZM31.66,10.74v-.73h5v.73h-.76v4.11h-.91v-1.21h-.01c-.05.03-.11.07-.18.11-.06.04-.13.07-.21.1-.08.03-.16.05-.25.07s-.2.03-.31.03c-.3,0-.56-.05-.78-.16s-.41-.25-.56-.43-.27-.38-.37-.61c-.09-.23-.15-.46-.19-.69.15-.02.27-.05.38-.09.1-.04.18-.1.24-.16s.11-.13.13-.21c.03-.07.04-.15.04-.23,0-.1-.02-.2-.06-.3-.04-.1-.1-.21-.18-.33h-1.03ZM33.85,11.5c0,.21-.06.39-.17.55s-.29.29-.51.38c.03.13.08.24.14.33.06.09.13.17.2.22.08.06.16.1.25.13.09.03.18.04.28.04.22,0,.41-.05.56-.15s.29-.24.39-.42v-1.84h-1.4c.09.13.15.26.19.39.04.13.06.25.06.37Z"/>
            <path class="cls-3" d="M40.44,14.77c-.11.07-.22.12-.34.17-.12.04-.23.08-.35.11s-.22.05-.33.06c-.11.01-.2.02-.29.02-.24,0-.45-.03-.65-.1s-.37-.16-.51-.28-.25-.26-.33-.42c-.08-.16-.12-.33-.12-.52,0-.1.01-.21.04-.31.03-.11.07-.21.12-.31-.16-.07-.28-.14-.38-.23s-.17-.18-.23-.28-.09-.19-.12-.29c-.02-.09-.03-.18-.03-.26,0-.14.03-.27.08-.38s.14-.21.24-.3c.1-.08.23-.15.38-.19.15-.04.32-.07.51-.07h1.11v-.43h-2.86v-.73h4.45v.73h-.75v1.13h-1.72c-.08,0-.15,0-.22.01-.07,0-.13.03-.18.05-.05.02-.1.06-.13.1-.03.04-.05.1-.05.18,0,.09.02.17.07.22.05.06.11.1.19.13s.17.05.28.06c.1.01.21.02.32.02.09,0,.18,0,.28,0,.1,0,.19-.01.29-.02s.19-.02.28-.03.17-.02.25-.04v.72c-.15.03-.31.05-.48.06-.17.02-.34.02-.51.02-.05,0-.1,0-.15,0-.05,0-.08,0-.11,0-.02.06-.04.12-.06.19s-.02.14-.02.23c0,.1.02.19.05.27.03.07.08.13.14.18.06.05.13.08.21.1.08.02.18.03.28.03.12,0,.25-.01.37-.04.12-.03.24-.06.35-.11.11-.04.22-.1.32-.15s.19-.12.27-.18v.91Z"/>
            <path class="cls-3" d="M43.06,10.74h-.76v4.12h-.91v-4.12h-.77v-.73h.78c-.13-.27-.19-.52-.19-.75,0-.17.03-.34.1-.49.07-.15.17-.29.31-.4.14-.11.32-.21.54-.27.22-.07.48-.1.79-.1.36,0,.71.05,1.03.15s.63.24.92.41.57.39.83.65c.26.25.51.53.75.84h-.83c-.08-.08-.18-.16-.28-.26-.11-.1-.23-.19-.36-.29-.13-.1-.27-.19-.43-.28-.15-.09-.31-.17-.48-.25s-.34-.13-.52-.17c-.18-.04-.37-.06-.55-.06-.16,0-.31.02-.43.05-.12.03-.22.08-.3.15-.08.06-.14.14-.17.22-.04.09-.06.18-.06.28,0,.09.01.18.04.28.03.09.07.19.13.3h.81v.73Z"/>
            <path class="cls-3" d="M44.19,13.15c-.08-.03-.16-.07-.23-.12-.07-.06-.13-.13-.19-.22-.05-.09-.1-.2-.13-.33-.03-.13-.05-.28-.05-.45v-1.28h-.78v-.73h4.76v.73h-.76v1.13c0,.19-.02.36-.06.5-.04.14-.1.27-.16.38-.07.11-.15.2-.24.27-.09.08-.19.14-.3.2s-.21.11-.33.15c-.11.04-.23.08-.34.12-.12.04-.23.08-.34.12s-.2.09-.28.14c-.08.06-.14.12-.19.2-.05.08-.07.17-.07.28s.03.22.08.31c.05.09.12.17.21.23.09.06.19.11.31.14s.24.05.38.05c.11,0,.23-.01.34-.03.12-.02.23-.05.34-.09s.23-.09.34-.14c.11-.05.22-.11.33-.17v.86c-.2.11-.4.19-.6.25-.2.05-.43.08-.67.08-.3,0-.57-.04-.81-.11-.24-.07-.45-.17-.62-.31s-.3-.29-.4-.47c-.09-.18-.14-.39-.14-.61,0-.13.01-.24.04-.35s.07-.21.13-.29c.05-.09.12-.16.19-.23.07-.07.15-.12.24-.16v-.02ZM45.6,12.56l-1.1-1.46h-.01v.87c0,.17.02.3.05.41.03.11.08.19.14.25.06.06.12.1.2.13.07.02.15.04.23.04.1-.03.19-.07.27-.1.08-.04.16-.07.22-.12h0ZM44.84,10.75l1.06,1.47h.01s.01-.05.01-.08,0-.06,0-.1v-1.3h-1.09Z"/>
          </g>
        </g>
        <g>
          <path class="cls-3" d="M73.5,36.61v-5.6h2.3c.5,0,.92.08,1.28.24s.63.39.82.68c.19.3.29.66.29,1.07s-.1.76-.29,1.06c-.19.3-.47.53-.82.69-.35.16-.78.24-1.28.24h-1.72l.46-.48v2.1h-1.04ZM74.54,34.62l-.46-.51h1.67c.46,0,.8-.1,1.04-.29.23-.19.35-.47.35-.82s-.12-.62-.35-.82c-.23-.2-.58-.29-1.04-.29h-1.67l.46-.51v3.25Z"/>
          <path class="cls-3" d="M81.04,36.66c-.43,0-.82-.09-1.16-.28-.34-.19-.62-.45-.81-.78-.2-.33-.3-.71-.3-1.13s.1-.81.3-1.14c.2-.33.47-.58.81-.77.34-.19.73-.28,1.17-.28s.84.09,1.18.28.61.45.81.77c.19.33.29.7.29,1.14s-.1.8-.29,1.13c-.2.33-.47.59-.81.78-.35.19-.74.28-1.18.28ZM81.04,35.81c.25,0,.46-.05.66-.16.19-.11.34-.27.45-.47s.16-.44.16-.71-.05-.51-.16-.71-.26-.35-.45-.46c-.19-.11-.41-.16-.65-.16s-.46.05-.65.16c-.19.11-.34.26-.46.46-.11.2-.17.44-.17.71s.06.5.17.71c.11.21.26.36.46.47.19.11.41.16.64.16Z"/>
          <path class="cls-3" d="M85.1,36.61l-1.57-4.27h.94l1.35,3.77h-.46l1.41-3.77h.84l1.38,3.77h-.45l1.38-3.77h.89l-1.58,4.27h-.96l-1.24-3.34h.29l-1.27,3.34h-.96Z"/>
          <path class="cls-3" d="M93.4,36.66c-.47,0-.89-.09-1.24-.28-.35-.19-.63-.45-.82-.78-.19-.33-.29-.71-.29-1.13s.09-.8.28-1.13c.19-.33.45-.59.78-.78s.71-.28,1.14-.28.79.09,1.11.28c.33.18.58.44.77.77.19.33.28.72.28,1.18,0,.04,0,.08,0,.14s0,.11-.01.15h-3.56v-.66h3.03l-.4.21c0-.24-.04-.45-.15-.64-.1-.19-.25-.34-.43-.44-.18-.1-.4-.16-.64-.16s-.45.05-.64.16c-.19.1-.33.25-.44.44-.1.19-.15.41-.15.66v.16c0,.26.06.48.17.68.11.2.28.35.49.46.21.11.46.16.74.16.24,0,.46-.04.65-.12s.36-.2.51-.35l.54.62c-.2.22-.44.39-.73.51-.29.12-.62.18-1,.18Z"/>
          <path class="cls-3" d="M96.37,36.61v-4.27h.95v1.18l-.11-.34c.12-.29.32-.51.6-.66.28-.15.62-.23,1.02-.23v.95s-.08,0-.11-.01-.07,0-.1,0c-.38,0-.69.11-.91.33-.22.22-.34.55-.34,1v2.06h-.99Z"/>
          <path class="cls-3" d="M101.65,36.66c-.47,0-.89-.09-1.24-.28-.35-.19-.63-.45-.82-.78-.19-.33-.29-.71-.29-1.13s.09-.8.28-1.13c.19-.33.45-.59.78-.78s.71-.28,1.14-.28.79.09,1.11.28c.33.18.58.44.77.77.19.33.28.72.28,1.18,0,.04,0,.08,0,.14s0,.11-.01.15h-3.56v-.66h3.03l-.4.21c0-.24-.04-.45-.15-.64-.1-.19-.25-.34-.43-.44-.18-.1-.4-.16-.64-.16s-.45.05-.64.16c-.19.1-.33.25-.44.44-.1.19-.15.41-.15.66v.16c0,.26.06.48.17.68.11.2.28.35.49.46.21.11.46.16.74.16.24,0,.46-.04.65-.12s.36-.2.51-.35l.54.62c-.2.22-.44.39-.73.51-.29.12-.62.18-1,.18Z"/>
          <path class="cls-3" d="M106.43,36.66c-.41,0-.78-.09-1.11-.27-.33-.18-.59-.44-.77-.76-.19-.33-.28-.71-.28-1.16s.09-.82.28-1.15c.19-.33.44-.59.77-.77.33-.18.7-.27,1.11-.27.36,0,.68.08.96.24.28.16.51.4.67.72.17.32.25.73.25,1.24s-.08.91-.24,1.23c-.16.33-.38.57-.66.72-.28.16-.61.24-.98.24ZM106.55,35.81c.24,0,.46-.05.64-.16.19-.11.34-.27.46-.47.12-.21.17-.44.17-.71s-.06-.51-.17-.71c-.11-.2-.27-.35-.46-.46-.19-.11-.4-.16-.64-.16s-.46.05-.64.16c-.19.11-.34.26-.46.46-.12.2-.17.44-.17.71s.06.5.17.71c.11.21.27.36.46.47.19.11.4.16.64.16ZM107.85,36.61v-1.01l.02-1.14-.08-1.14v-2.66h1.01v5.94h-.95Z"/>
          <path class="cls-3" d="M112.33,36.61v-5.94h.99v2.66l-.08,1.14.04,1.14v1.01h-.95ZM114.69,36.66c-.36,0-.68-.08-.97-.24s-.51-.4-.67-.72-.24-.74-.24-1.23.08-.91.25-1.24c.17-.32.39-.56.67-.72.28-.16.6-.24.95-.24.42,0,.79.09,1.11.27.33.18.58.44.77.77.19.33.28.71.28,1.15s-.09.83-.28,1.16c-.19.33-.45.58-.77.76s-.7.27-1.11.27ZM114.57,35.81c.25,0,.46-.05.65-.16s.34-.27.45-.47c.11-.21.17-.44.17-.71s-.06-.51-.17-.71c-.11-.2-.26-.35-.45-.46s-.41-.16-.65-.16-.45.05-.64.16c-.19.11-.34.26-.46.46-.11.2-.17.44-.17.71s.06.5.17.71c.11.21.26.36.46.47.19.11.41.16.64.16Z"/>
          <path class="cls-3" d="M118.05,38.21c-.21,0-.42-.04-.63-.1s-.38-.17-.51-.29l.39-.73c.1.08.21.15.34.21.13.05.26.08.4.08.18,0,.33-.05.44-.14.11-.09.22-.25.31-.46l.24-.54.1-.13,1.61-3.78h.96l-2,4.62c-.13.32-.28.56-.44.75-.16.18-.34.32-.54.39s-.42.12-.65.12ZM118.93,36.76l-1.93-4.42h1.03l1.58,3.69-.68.74Z"/>
        </g>
        <path class="cls-4" d="M135.52,6.93h149.16v54.63h-149.16c-5.09,0-9.23-4.14-9.23-9.23V16.16c0-5.09,4.14-9.23,9.23-9.23Z"/>
        <g id="Layer_2" data-name="Layer 2">
          <g id="Layer_11" data-name="Layer 11">
            <g>
              <path class="cls-10" d="M135.85,43.9V14.78h10.45c2.73,0,5.01.73,6.59,2.11,1.56,1.36,2.38,3.28,2.38,5.55,0,2.49-1.06,4.62-2.82,5.89,2.03,1.22,3.79,3.44,3.79,6.75,0,2.84-1.04,5.17-3,6.73-1.72,1.37-4.07,2.09-6.79,2.09h-10.61ZM146.54,40c1.68,0,5.57-.47,5.57-4.8,0-1.5-.48-2.66-1.43-3.45-1.11-.92-2.89-1.39-5.27-1.39h-5.54v9.63h6.67ZM145.6,26.46c4.83,0,5.49-1.88,5.49-3.9,0-2.42-1.75-3.87-4.68-3.87h-6.54v7.77h5.73Z"/>
              <polygon class="cls-10" points="178.87 43.91 178.87 30.52 164.54 30.52 164.54 43.91 160.48 43.91 160.48 14.78 164.55 14.78 164.55 26.62 178.88 26.62 178.88 14.78 182.94 14.78 182.94 43.91 178.87 43.91"/>
              <path class="cls-10" d="M206.76,43.91l-3.53-9.39h-10.08l-3.45,9.39h-4.23l10.69-29.12h3.85l11.15,29.13h-4.4ZM198.08,20.79c-.49,1.41-1.12,3.18-1.87,5.28-.49,1.37-1.03,2.89-1.61,4.54h7.2c-.81-2.15-1.5-3.97-2.08-5.49-.68-1.8-1.22-3.21-1.63-4.32Z"/>
              <path class="cls-10" d="M229.61,43.9l-.26-.59c-.51-1.17-.49-2.92-.48-4.96,0-.36,0-.73,0-1.1v-.7c0-3.77-.77-5.34-5.53-5.34h-5.69v12.68h-4.1V14.78h10.72c5.66,0,9.17,3.11,9.17,8.12,0,2.81-1.28,5.1-3.45,6.39,2.03,1.32,3.02,3.65,3.02,7.07v1.05c0,.35,0,.73-.01,1.12-.02,1.4-.05,3.32.26,3.97l.67,1.41h-4.34ZM223.23,27.31c5.32,0,6-2.34,6-4.37,0-2.82-1.82-4.25-5.42-4.25h-6.16v8.62h5.57Z"/>
              <path class="cls-10" d="M256.5,43.91l-3.53-9.39h-10.08l-3.45,9.39h-4.23l10.69-29.12h3.85l11.15,29.13h-4.4ZM251.54,30.61c-.82-2.18-1.52-4.03-2.11-5.57-.67-1.77-1.2-3.16-1.61-4.26-.49,1.41-1.12,3.17-1.87,5.27-.49,1.38-1.03,2.9-1.62,4.56h7.21Z"/>
              <polygon class="cls-10" points="265.43 43.91 265.43 18.69 256.31 18.69 256.31 14.78 278.7 14.78 278.7 18.69 269.53 18.69 269.53 43.91 265.43 43.91"/>
            </g>
            <path class="cls-1" d="M140.26,37.06c0,.23.18.42.41.42.18,0,.35-.12.4-.29h3.82l1,1h1.85v.52h-2.49l-1-.99h-1.71c-.08-.22-.32-.33-.53-.25s-.33.32-.25.53c.08.22.32.33.53.25.12-.04.21-.13.25-.25h1.58l1,1h3.11l.08-.77c.13-.03.27-.06.4-.11l.45.63.89-.51-.32-.71c.1-.09.2-.18.29-.28l.71.31.51-.89-.63-.45c.04-.13.08-.26.11-.4l.77-.08v-1.02l-.77-.08c-.03-.13-.06-.27-.11-.39l.63-.45-.5-.91-.72.32c-.09-.1-.19-.2-.29-.29l.32-.71-.89-.51-.45.63c-.13-.04-.26-.08-.4-.11l-.08-.77h-3.11l-1,1h-1.58c-.08-.22-.32-.33-.54-.26-.22.08-.33.32-.26.54.08.22.32.33.54.26.12-.04.21-.14.26-.26h1.7l1-1h2.49v.52h-1.85l-1,1h-3.82c-.08-.22-.32-.33-.54-.26-.22.08-.33.32-.26.54.08.22.32.33.54.26.12-.04.21-.14.26-.26h3.94l1-1h1.73v.56h-1.09l-1,1h-1.59c-.08-.22-.32-.33-.53-.25-.22.08-.33.32-.25.53s.32.33.53.25c.12-.04.21-.13.25-.25h1.71l1-1h.96c1.03.05,1.83.93,1.78,1.96-.05.96-.82,1.73-1.78,1.78h-.98l-1-1h-1.71c-.08-.22-.32-.33-.54-.26s-.33.32-.26.54c.08.22.32.33.54.26.12-.04.21-.14.26-.26h1.58l1,1h1.1v.56h-1.73l-1-1h-3.95c-.08-.22-.32-.32-.54-.24-.16.06-.27.22-.27.39h0ZM143.82,36.23c0,.08-.06.14-.14.14s-.14-.06-.14-.14.06-.14.14-.14h0c.08,0,.14.06.14.14ZM143.82,34.17c0,.08-.06.14-.14.14s-.14-.06-.14-.14.06-.14.14-.14h0c.08,0,.14.06.14.14ZM140.82,33.34c0,.08-.06.14-.14.14-.08,0-.14-.06-.14-.14,0-.08.06-.14.14-.14h0c.08,0,.14.06.14.14,0,0,0,0,0,0ZM142.32,32.54c0,.08-.06.14-.14.14-.08,0-.14-.06-.14-.14s.06-.14.14-.14h0c.08,0,.14.06.14.14ZM142.32,37.86c0,.08-.07.14-.14.14-.08,0-.14-.07-.14-.14,0-.07.06-.13.13-.13.08,0,.14.05.15.13h0ZM140.55,37.06c0-.08.06-.14.14-.14s.14.06.14.14-.06.14-.14.14h0c-.08,0-.15-.05-.15-.13,0,0,0,0,0,0h.01Z"/>
            <path class="cls-1" d="M141.93,35.35h4.8c.08.56.59.95,1.15.88.56-.08.95-.59.88-1.15-.08-.56-.59-.95-1.15-.88-.46.06-.81.42-.88.88h-4.79c-.08-.22-.32-.33-.54-.26s-.33.32-.26.54c.08.22.32.33.54.26.12-.04.21-.14.26-.26h0ZM147.41,35.2c0-.18.15-.33.33-.33s.33.15.33.33c0,.18-.15.33-.33.33h0c-.18,0-.33-.15-.33-.33h0ZM141.68,35.2c0,.08-.06.14-.14.14s-.14-.06-.14-.14.06-.14.14-.14h0c.08,0,.14.06.14.14h0Z"/>
            <path class="cls-2" d="M140.96,20.69c-.89,0-.92-1.32,0-1.32h6.21c1.87,0,3.41,1.47,3.41,3.28s-1.53,3.28-3.41,3.28h-6.21c-.37,0-.67-.29-.67-.65s.29-.67.65-.67h6.23c.53,0,1.05-.2,1.43-.57,1.29-1.24.35-3.33-1.43-3.33h-6.21Z"/>
            <path class="cls-1" d="M140.98,21.81h7.09c.13,0,.23-.1.23-.23s-.1-.23-.23-.23h-7.09c-.13,0-.23.1-.23.23s.1.23.23.23Z"/>
            <path class="cls-1" d="M140.98,22.86h7.55c.13,0,.23-.1.23-.23s-.1-.23-.23-.23h-7.55c-.13,0-.23.1-.23.23s.1.23.23.23h0Z"/>
            <path class="cls-1" d="M140.98,23.92h7.09c.13,0,.23-.1.23-.23s-.1-.23-.23-.23h-7.09c-.13,0-.23.1-.23.23s.1.23.23.23Z"/>
            <rect class="cls-10" x="135.82" y="44.99" width="142.9" height=".81"/>
            <g class="cls-8">
              <g class="cls-8">
                <path class="cls-1" d="M139.81,47.49c.05.01.11.04.15.07.05.04.09.08.12.14.03.06.05.12.05.18,0,.14-.07.28-.18.36-.06.05-.13.07-.21.07h-1.15s-.05.01-.06.05v4.89s0,.6,0,.6c0,.06-.03.13-.07.18-.04.05-.09.09-.14.12-.07.03-.15.05-.22.04-.08,0-.15-.04-.21-.09-.03-.03-.05-.06-.08-.09-.02-.03-.04-.07-.05-.11l-.02-.11v-5.43s-.06-.06-.09-.07h-1.22c-.06-.02-.12-.05-.17-.09-.05-.04-.09-.09-.12-.15-.03-.06-.04-.13-.04-.2,0-.07.02-.13.05-.19.03-.06.07-.1.13-.14.05-.03.11-.05.18-.07l3.37.03Z"/>
              </g>
              <g class="cls-8">
                <path class="cls-10" d="M143.6,49.4c.09,0,.18.06.23.13.05.08.06.18.04.27-.03.1-.12.18-.23.19h-1.76c-.05-.01-.1-.01-.15,0-.05,0-.1,0-.15,0-.05,0-.09-.01-.14-.03-.05-.02-.08-.06-.1-.1-.04-.08-.05-.18-.02-.27.03-.11.13-.18.24-.19h1.55s.49,0,.49,0ZM143.62,51.51c.09,0,.18.05.22.14.07.12.06.27-.04.37-.03.03-.08.06-.12.07h-.09s-2.03,0-2.03,0c-.06,0-.11-.03-.15-.08-.04-.04-.07-.09-.08-.15-.03-.11.01-.23.1-.3.05-.04.11-.06.16-.07l2.04.02ZM143.82,53.74s.06.09.06.15c.02.12-.04.24-.15.3-.05.03-.11.04-.17.03h-2s-.09-.04-.13-.07c-.04-.02-.07-.06-.09-.1-.02-.05-.03-.11-.03-.17,0-.06.03-.11.06-.15.05-.07.13-.11.21-.11h1.87c.07-.01.13,0,.2,0,.06,0,.12.05.16.1Z"/>
                <path class="cls-10" d="M148.99,50.09c.09.07.12.2.07.3-.02.08-.08.15-.15.18-.05.03-.11.03-.17.02-.06-.01-.11-.04-.16-.08-.22-.25-.51-.42-.83-.49-.32-.07-.65-.05-.96.06-.16.05-.3.13-.43.23-.14.1-.26.23-.36.36-.1.14-.19.29-.25.45-.06.16-.09.33-.1.5-.03.35.03.7.19,1.02.16.31.4.57.7.75.15.09.31.15.48.19.17.04.34.04.52.02.17-.02.34-.06.5-.13.16-.07.31-.16.44-.28.05-.06.1-.12.17-.16.07-.04.15-.05.22-.02.05.02.1.05.13.1.03.04.06.1.06.15.01.08-.01.17-.07.23-.06.07-.13.13-.19.18-.16.14-.33.25-.53.34-.58.26-1.26.26-1.84-.01-.21-.1-.4-.23-.57-.38-.17-.15-.32-.33-.44-.53-.12-.2-.21-.42-.27-.64-.06-.23-.09-.47-.09-.71,0-.23.04-.47.11-.69.07-.22.17-.44.3-.63.12-.19.27-.36.43-.52.17-.15.36-.27.57-.35.19-.08.4-.14.6-.16.21-.02.43-.02.64.02.21.03.41.1.61.19.19.09.37.21.52.36l.12.12Z"/>
                <path class="cls-10" d="M150.96,49.57s.02.06.02.09c0,.03,0,.06,0,.09v1.73s.03.04.05.04h1.96s.04-.02.04-.04v-1.81s.04-.1.07-.14c.03-.04.07-.06.12-.08.1-.05.23-.03.3.07.06.05.09.12.09.19v4.24s-.03.1-.06.14c-.02.04-.06.07-.11.08-.1.05-.22.04-.31-.04-.07-.06-.1-.14-.1-.23v-1.76s-.02-.04-.03-.04h-1.96s-.04.01-.05.03v1.79c0,.09-.06.17-.14.21-.05.03-.1.04-.16.03-.06,0-.11-.02-.15-.06-.04-.02-.07-.05-.09-.1-.02-.04-.03-.08-.03-.13v-4.23c0-.06.04-.12.08-.16.04-.04.09-.07.14-.08.06-.01.13,0,.19.02.06.03.1.07.13.13Z"/>
                <path class="cls-10" d="M155.66,49.53l.7,1.12,1.33,2.11s.04.02.06.02c.01-.01.02-.02.03-.04v-3.13c.01-.05.04-.1.08-.14.04-.04.09-.07.14-.09.12-.04.24.02.29.13.04.05.05.11.05.17v4.29s-.03.08-.05.12c-.02.04-.05.07-.09.09-.05.03-.1.04-.16.04-.05,0-.1-.02-.14-.06-.04-.03-.08-.07-.11-.12-.02-.05-.05-.09-.08-.13l-1.94-3.1s-.05-.02-.06-.01-.03.04-.03.09v3.04c0,.05-.02.1-.05.14-.03.04-.06.08-.11.1-.05.03-.1.04-.16.03-.05,0-.11-.02-.15-.06-.07-.06-.11-.15-.11-.24v-4.29s.03-.09.06-.13c.02-.04.06-.07.11-.09.08-.05.18-.04.26.01.06.03.11.08.14.14Z"/>
                <path class="cls-10" d="M164.05,50.89c.08.21.13.42.15.64.02.22.02.45-.01.67-.03.22-.09.44-.18.64-.08.2-.2.38-.33.55-.15.18-.33.34-.54.47-.19.12-.41.22-.63.27-.22.06-.45.08-.68.07-.23,0-.46-.06-.68-.14-.15-.06-.3-.13-.43-.23-.14-.1-.28-.22-.4-.35-.12-.13-.23-.27-.32-.42-.09-.14-.16-.29-.21-.45-.16-.44-.19-.91-.08-1.36.1-.45.31-.86.63-1.18.16-.17.34-.3.54-.41.2-.11.41-.18.64-.22.22-.04.44-.05.66-.02.22.02.44.09.64.18.28.12.54.29.74.52.21.22.38.48.49.77ZM163.52,51.1c-.08-.21-.2-.41-.36-.57-.15-.16-.33-.29-.54-.38-.26-.12-.55-.17-.83-.14-.28.02-.56.11-.79.27-.29.19-.51.46-.64.78-.13.32-.18.67-.13,1.01.02.17.06.33.13.49.07.16.16.3.27.44.1.13.23.25.37.35.14.1.29.17.45.22.31.1.64.11.96.02.32-.09.6-.27.81-.53.11-.13.21-.27.27-.43.07-.16.12-.32.15-.5.03-.17.03-.34.01-.51-.02-.17-.07-.34-.14-.5h0Z"/>
                <path class="cls-10" d="M166.07,49.52l.03.1v3.95s.03.04.05.03c.02-.01.05-.01.06,0h1.66c.08.02.15.07.2.14.06.1.06.23,0,.32-.03.08-.11.13-.2.13-.08,0-.17,0-.25,0h-1.83c-.06,0-.12-.03-.16-.07-.05-.04-.08-.09-.1-.15v-.08s0-3.46,0-3.46v-.77c-.01-.09.02-.17.07-.24.12-.11.3-.11.41,0,.02.02.04.05.06.08h0Z"/>
                <path class="cls-10" d="M173.67,50.89c.08.21.13.42.15.64.02.22.02.45-.01.67-.03.22-.09.44-.18.64-.08.2-.2.38-.33.55-.15.18-.33.34-.54.47-.19.12-.41.22-.63.27-.22.06-.45.08-.68.07-.23,0-.46-.06-.68-.14-.15-.06-.3-.13-.43-.23-.14-.1-.28-.22-.4-.35-.12-.13-.23-.27-.32-.42-.09-.14-.16-.29-.21-.45-.16-.44-.19-.91-.08-1.36.1-.45.31-.86.63-1.18.16-.17.34-.3.54-.41.2-.11.41-.18.64-.22.22-.04.44-.05.66-.02.22.02.44.09.64.18.28.12.54.29.74.52.21.22.38.48.49.77ZM173.14,51.1c-.08-.21-.2-.41-.36-.57-.15-.16-.33-.29-.54-.38-.26-.12-.55-.17-.83-.14-.28.02-.56.11-.79.27-.29.19-.51.46-.64.78-.13.32-.18.67-.13,1.01.02.17.06.33.13.49.07.16.16.3.27.44.1.13.23.25.37.35.13.1.28.17.45.22.31.1.64.11.96.02.32-.09.6-.27.81-.53.11-.13.21-.27.27-.43.14-.32.2-.67.16-1.01-.02-.17-.06-.34-.13-.5h0Z"/>
                <path class="cls-10" d="M178.92,50.14s.06.1.07.16c.01.06,0,.12-.03.17-.04.1-.14.17-.25.17-.07.01-.15-.02-.19-.08-.05-.06-.11-.12-.17-.16-.13-.1-.27-.19-.42-.25-.15-.06-.32-.11-.48-.13-.16-.02-.33-.01-.49.02-.16.03-.31.09-.45.17-.88.52-1.18,1.66-.65,2.55.02.03.04.06.06.09.18.27.43.48.72.61.13.06.28.11.43.13.15.02.3.02.45,0,.15-.02.3-.06.44-.12.14-.06.26-.13.38-.23.17-.13.32-.29.42-.48.1-.18.17-.38.21-.59,0-.02,0-.04-.04-.06h-1.67c-.13-.03-.23-.15-.23-.29,0-.05,0-.09.01-.13.04-.09.11-.15.2-.18h.11s1.98,0,1.98,0c.11,0,.21.09.24.19.01.06.02.12.01.18v.18c-.02.22-.07.44-.15.65-.17.42-.45.79-.81,1.07-.17.13-.37.23-.57.3-.21.08-.43.12-.65.13-.43.01-.86-.1-1.23-.33-.19-.12-.36-.27-.51-.43-.15-.17-.28-.36-.37-.57-.1-.21-.17-.44-.2-.67-.04-.23-.04-.47-.02-.7.02-.23.08-.46.18-.67.17-.41.46-.76.82-1.02.18-.12.37-.22.58-.29.21-.07.42-.1.64-.1.31,0,.61.07.89.18.28.12.54.31.75.54Z"/>
                <path class="cls-10" d="M181.33,49.61l.97,1.53s.03.03.04.05c0,.02.02.04.05.03h.02s.57-.92.57-.92l.51-.8c.03-.05.07-.09.13-.1.05-.01.11-.01.16,0,.05.02.1.05.13.09.04.04.06.1.07.16.01.05,0,.11-.01.16-.02.05-.05.09-.08.13l-1.19,1.9-.03.09v1.78c0,.08,0,.17,0,.26,0,.09-.06.17-.14.21-.04.03-.1.04-.15.04-.06,0-.11-.03-.16-.06-.06-.05-.1-.13-.11-.21v-2.01l-.03-.08-1.29-2.03c-.06-.11-.03-.25.06-.34.04-.04.08-.06.13-.08.05-.01.1-.01.15,0,.04.01.08.04.11.08.03.04.06.08.08.13Z"/>
              </g>
              <g class="cls-8">
                <path class="cls-1" d="M192.2,47.46c.06.01.13.03.18.06.06.03.1.07.14.13.03.05.05.11.06.17.01.06,0,.13-.02.19-.02.07-.07.13-.12.18-.05.05-.12.08-.19.1h-2.47c-.07-.02-.14-.02-.21,0-.07,0-.14,0-.21,0-.07,0-.13-.02-.19-.05-.06-.03-.11-.09-.14-.15-.03-.05-.05-.12-.05-.18,0-.06,0-.13.02-.19.03-.07.07-.13.13-.18.06-.05.12-.08.2-.08h2.18s.68,0,.68,0ZM192.23,50.43c.13,0,.24.08.3.19.04.05.06.11.06.18,0,.06,0,.13-.02.19-.02.06-.06.12-.1.16-.04.05-.1.08-.16.1h-.14s-2.86,0-2.86,0c-.08-.01-.14-.05-.2-.11-.06-.05-.1-.13-.11-.2-.02-.08-.02-.16,0-.23.02-.08.06-.14.12-.19.07-.05.14-.09.23-.1h2.87ZM192.52,53.54c.05.06.08.14.08.22,0,.08,0,.16-.04.23-.03.08-.09.14-.17.18-.07.04-.16.05-.24.05h-2.8c-.06-.02-.13-.05-.18-.09-.05-.04-.09-.09-.12-.15-.03-.07-.04-.16-.04-.24.02-.2.18-.35.38-.36h2.62c.09,0,.19,0,.28.01.09.01.17.06.22.14Z"/>
              </g>
              <g class="cls-8">
                <path class="cls-10" d="M195.08,49.4c.22,0,.43.05.63.13.21.08.4.19.58.33.18.14.34.3.48.49.14.18.24.39.32.6.08.22.13.44.14.67.02.23,0,.45-.04.67-.04.22-.12.44-.22.64-.1.2-.23.39-.38.55-.21.24-.47.42-.75.54-.28.12-.59.18-.9.19h-.72c-.1-.01-.18-.07-.23-.15-.02-.05-.03-.11-.03-.16v-4.18c-.02-.13.04-.25.16-.3.01-.01.03-.02.05-.02.02,0,.04,0,.06,0l.86-.04v.04ZM195.37,50.02c-.1-.03-.2-.04-.3-.06h-.53s-.03.03-.04.05v3.54s.02.07.04.08c.17,0,.34,0,.5,0,.16,0,.32-.03.47-.09.16-.05.32-.13.45-.24.14-.11.26-.24.37-.38.11-.14.19-.3.25-.47.06-.17.09-.34.1-.52.02-.37-.07-.74-.25-1.06-.18-.32-.45-.57-.77-.73-.09-.05-.19-.09-.29-.12Z"/>
                <path class="cls-10" d="M201.36,49.52l.02.1v1.19s.03,2.02.03,2.02c-.01.27-.1.53-.25.75-.14.22-.34.39-.58.51-.11.06-.23.1-.36.11-.13.02-.27.02-.4.01-.13-.01-.26-.05-.38-.1-.12-.05-.23-.12-.33-.2-.33-.26-.53-.64-.56-1.06v-.45s0-2.78,0-2.78c0-.06.03-.11.06-.15.03-.04.08-.08.13-.09.09-.03.2,0,.27.07.08.06.11.16.09.25v.87s.03,2.26.03,2.26c.01.17.08.33.19.47.1.14.24.24.4.3.16.05.34.05.5,0,.17-.05.32-.14.43-.28.13-.16.2-.35.2-.56v-3.16c0-.1.06-.18.15-.21.07-.03.14-.03.21,0,.07.02.13.08.16.14Z"/>
                <path class="cls-10" d="M206.58,50.09c.09.07.12.2.07.3-.02.08-.08.15-.15.18-.05.03-.11.03-.17.02-.06-.01-.11-.04-.16-.08-.22-.25-.51-.42-.83-.49-.32-.07-.65-.05-.96.06-.16.05-.3.13-.43.23-.14.1-.26.23-.36.36-.1.14-.19.29-.25.45-.06.16-.09.33-.1.5-.03.35.03.7.19,1.02.16.31.4.57.7.75.15.09.31.15.48.19.17.04.34.04.52.02.17-.02.34-.06.5-.13.16-.07.31-.16.43-.27.05-.06.1-.12.17-.16.07-.04.15-.05.22-.02.05.02.1.05.13.1.03.04.06.1.06.15.01.08-.01.17-.07.23-.06.06-.12.12-.19.17-.16.14-.33.26-.53.34-.58.26-1.26.26-1.84-.01-.21-.1-.4-.23-.57-.38-.17-.16-.32-.33-.43-.53-.12-.2-.21-.41-.27-.64-.06-.23-.09-.47-.09-.71,0-.23.04-.47.11-.69.07-.22.17-.43.3-.63.12-.19.27-.37.45-.52.17-.15.36-.27.57-.35.19-.08.4-.14.6-.16.21-.02.43-.02.64.02.21.03.41.1.6.19.19.09.37.21.52.36l.12.12Z"/>
                <path class="cls-10" d="M209.94,49.78l.86,2.42.33.94.23.65c.02.05.03.11.02.17,0,.06-.03.11-.07.15-.06.08-.17.12-.27.1-.05,0-.1-.03-.13-.07-.04-.03-.07-.08-.09-.13l-.25-.67-.1-.3s-.03-.04-.06-.03h-1.62s-.05,0-.06.03l-.29.82c-.02.06-.05.12-.06.17-.02.06-.07.11-.13.14-.09.04-.18.03-.27-.01-.05-.03-.09-.08-.11-.13-.03-.06-.03-.12-.02-.18l.06-.17,1.12-3.18.31-.94c.05-.08.14-.14.24-.15.06,0,.12.02.17.05.05.03.09.08.11.13l.07.2ZM209.61,50.69s-.03,0-.05.02l-.2.58-.29.83-.07.22v.05s.03.03.05.03h.41s.74,0,.74,0c.02,0,.04-.03.04-.06l-.27-.78-.31-.86s-.04-.04-.06-.04h0Z"/>
                <path class="cls-10" d="M215.2,49.42s.08.03.12.05c.04.02.07.06.08.1.02.04.03.08.03.13,0,.05,0,.09-.02.13-.02.05-.06.09-.11.13-.04.03-.1.05-.15.05h-.82s-.04,0-.05.03c0,0,0,0,0,.01v3.49s0,.42,0,.42c0,.09-.07.17-.15.21-.05.02-.1.04-.15.03-.06,0-.11-.02-.15-.06l-.05-.07s-.03-.05-.04-.08v-.08s-.03-3.88-.03-3.88c-.02-.03-.04-.05-.06-.05h-.87s-.09-.04-.12-.07c-.04-.02-.07-.06-.09-.1-.02-.05-.03-.09-.03-.14,0-.05,0-.11.04-.15.02-.04.06-.08.1-.1.04-.02.08-.04.12-.04l2.39.03Z"/>
                <path class="cls-10" d="M217.25,49.52s.04.08.03.12v4.32c0,.09-.06.17-.14.2-.07.04-.15.05-.23.02-.08-.03-.15-.11-.17-.19v-3.29s0-1.07,0-1.07c0-.05.02-.1.05-.15.03-.04.07-.08.11-.1.06-.03.13-.04.2-.02.07.03.12.08.16.15Z"/>
                <path class="cls-10" d="M223,50.89c.08.21.13.42.15.64.02.22.02.45-.01.67-.03.22-.09.44-.18.64-.08.2-.2.38-.34.55-.15.18-.33.34-.54.47-.19.12-.4.22-.63.27-.22.06-.45.08-.68.07-.23,0-.46-.06-.68-.14-.15-.06-.3-.13-.43-.23-.14-.1-.28-.22-.4-.35-.12-.13-.23-.27-.32-.42-.09-.14-.16-.29-.21-.45-.16-.44-.19-.91-.08-1.36.1-.45.32-.85.63-1.18.16-.17.34-.3.54-.41.2-.11.41-.18.64-.22.22-.04.44-.05.66-.02.22.02.44.09.64.18.28.12.54.29.74.52.21.22.37.48.48.77ZM222.47,51.1c-.08-.21-.2-.41-.36-.57-.15-.16-.33-.29-.54-.38-.26-.12-.54-.17-.83-.14-.28.02-.56.11-.79.27-.29.19-.51.46-.64.78-.13.32-.18.67-.13,1.01.02.17.06.33.13.49.07.16.16.3.27.44.11.13.23.25.37.35.13.1.28.17.44.22.31.1.64.11.96.02.32-.09.6-.27.81-.53.11-.13.21-.27.27-.43.07-.16.12-.32.15-.5.03-.17.03-.34.01-.51-.02-.17-.06-.34-.13-.5Z"/>
                <path class="cls-10" d="M225.06,49.53l.7,1.12,1.33,2.11s.04.02.06.02c.01-.01.02-.02.03-.04v-3.13c.01-.05.04-.1.08-.14.04-.04.09-.07.14-.09.12-.04.24.02.29.13.04.05.05.11.05.17v4.29s-.03.08-.05.12c-.02.04-.05.07-.09.09-.05.03-.1.04-.16.04-.05,0-.1-.02-.14-.06-.04-.03-.08-.07-.11-.12-.02-.05-.05-.09-.08-.13l-1.94-3.1s-.05-.02-.06-.01-.03.04-.03.09v3.04c0,.05-.02.1-.05.14-.03.04-.06.08-.11.1-.05.03-.1.04-.16.03-.05,0-.11-.02-.15-.06-.07-.06-.11-.15-.11-.24v-4.29s.03-.09.06-.13c.02-.04.06-.07.11-.09.08-.05.18-.04.26.01.06.03.11.08.14.14Z"/>
              </g>
              <g class="cls-8">
                <path class="cls-1" d="M238.44,48.86c-.04.11-.11.2-.21.26-.08.03-.16.04-.24.02-.08-.01-.15-.05-.21-.11-.16-.17-.34-.32-.54-.43-.2-.11-.41-.2-.63-.25-.22-.05-.45-.07-.67-.06-.23.02-.45.07-.66.15-.22.07-.43.18-.61.32-.19.14-.36.32-.5.51-.14.2-.26.41-.34.64-.09.23-.14.46-.15.7-.05.49.05.98.27,1.42.22.43.56.79.98,1.04.2.13.43.22.67.27.24.05.48.06.73.03.24-.03.48-.09.7-.18.22-.09.43-.22.6-.39.08-.08.16-.15.25-.22.09-.06.2-.07.3-.03.07.03.13.08.18.14.05.06.08.13.09.21.02.12-.02.24-.1.33-.08.09-.17.17-.26.24-.22.19-.47.35-.74.47-.27.12-.56.2-.85.24-.29.04-.59.04-.88,0-.29-.04-.58-.13-.84-.26-.29-.13-.56-.31-.8-.53-.24-.22-.44-.47-.6-.74-.17-.28-.3-.58-.38-.89-.09-.32-.13-.65-.12-.99,0-.33.05-.65.15-.96.1-.31.24-.61.41-.89.17-.27.39-.52.63-.73.24-.21.51-.37.8-.49.27-.12.56-.19.85-.22.29-.03.59-.02.88.03.29.05.58.14.84.27.27.13.51.3.72.5l.17.16c.12.1.16.26.11.41Z"/>
              </g>
              <g class="cls-8">
                <path class="cls-10" d="M244.08,50.89c.08.21.13.42.15.64.02.22.02.45-.01.67-.03.22-.09.44-.18.64-.08.2-.2.38-.33.54-.15.18-.33.34-.54.47-.19.13-.4.22-.63.29-.22.06-.45.08-.68.07-.23,0-.46-.06-.68-.14-.15-.06-.3-.13-.44-.23-.14-.1-.28-.22-.4-.35-.12-.13-.23-.27-.32-.42-.09-.14-.16-.29-.21-.45-.16-.44-.19-.91-.08-1.36.1-.45.31-.86.63-1.18.16-.17.34-.3.54-.41.2-.11.41-.18.64-.22.22-.04.44-.05.66-.02.22.02.44.09.64.18.28.12.54.29.74.52.21.22.37.48.48.76ZM243.55,51.1c-.08-.21-.2-.41-.36-.57-.15-.16-.33-.29-.54-.38-.26-.12-.54-.17-.83-.14-.28.02-.56.11-.79.27-.29.19-.51.46-.64.78-.13.32-.18.67-.13,1.01.02.17.06.33.13.49.07.16.16.3.27.44.11.13.23.25.37.35.13.1.28.17.44.22.31.1.64.11.96.02.32-.09.6-.27.81-.53.11-.13.21-.27.27-.43.15-.32.2-.67.17-1.01-.02-.17-.06-.34-.13-.5h0Z"/>
                <path class="cls-10" d="M246.13,49.53l.7,1.12,1.33,2.11s.04.02.06.02c.01-.01.02-.02.03-.04v-3.13c.01-.05.04-.1.08-.14.04-.04.08-.07.14-.09.12-.04.24.02.29.13.04.05.06.11.06.17v4.29s-.03.08-.06.12c-.02.04-.05.07-.09.09-.05.03-.1.04-.16.04-.05,0-.1-.02-.14-.06-.04-.03-.08-.07-.11-.12-.02-.05-.05-.09-.08-.13l-1.94-3.1s-.04-.02-.06-.01c-.02.01-.03.04-.03.09v3.04c0,.05-.02.1-.05.14-.03.04-.06.08-.11.1-.05.03-.1.04-.16.03-.05,0-.11-.02-.15-.06-.07-.06-.11-.15-.11-.24v-4.29s.03-.09.06-.13c.02-.04.06-.07.11-.09.08-.05.18-.04.26.01.06.03.11.08.14.14Z"/>
                <path class="cls-10" d="M252.67,50.37c.03.1.01.21-.06.28-.04.05-.09.08-.15.1-.06.01-.11.01-.17,0-.06-.02-.11-.06-.14-.12-.03-.06-.05-.12-.06-.18-.05-.13-.14-.24-.26-.32-.11-.08-.25-.13-.38-.14-.14,0-.27.04-.39.12-.12.07-.21.18-.28.3-.06.14-.08.29-.06.43.02.15.08.29.17.4.12.14.29.22.48.24.24,0,.49.05.7.18.21.13.38.31.5.54.06.11.11.23.13.35.03.13.04.26.03.39,0,.13-.03.26-.07.38-.04.12-.1.23-.17.33-.14.21-.34.38-.58.47-.23.09-.49.11-.73.07-.12-.02-.23-.06-.34-.13-.11-.06-.21-.14-.3-.23-.09-.09-.17-.19-.23-.3-.06-.11-.11-.23-.13-.35-.03-.11-.04-.22-.04-.34,0-.11.06-.21.16-.26.05-.03.11-.03.16-.02.06.01.11.04.16.07.07.06.11.15.1.24,0,.09,0,.18.05.27.04.14.13.25.25.33.11.08.24.12.38.13.13.01.27-.02.39-.08.12-.06.22-.17.27-.3.07-.12.1-.26.09-.4,0-.14-.05-.28-.12-.4-.13-.19-.33-.3-.56-.32-.51,0-.98-.29-1.19-.76-.11-.23-.16-.49-.13-.74.02-.26.11-.5.27-.7.15-.2.35-.36.59-.45.23-.09.49-.1.72-.03.18.04.35.12.48.24.15.12.27.27.37.44.04.1.08.19.11.29Z"/>
                <path class="cls-10" d="M256.86,49.52l.02.1v1.19s.03,2.02.03,2.02c-.03.54-.34,1.02-.82,1.25-.11.06-.24.1-.36.11-.13.02-.27.02-.4.01-.13-.01-.26-.05-.38-.1-.12-.05-.23-.12-.33-.2-.33-.26-.53-.64-.56-1.06v-.45s0-2.78,0-2.78c0-.06.03-.11.06-.15.03-.04.08-.08.13-.09.09-.03.19,0,.27.07.07.06.11.16.09.25v.87s.03,2.26.03,2.26c.04.34.26.63.59.75.16.05.34.05.5,0,.17-.05.32-.14.43-.28.13-.16.2-.35.2-.56v-3.14c0-.1.06-.18.15-.21.07-.03.14-.03.21,0,.07.02.13.08.16.14Z"/>
                <path class="cls-10" d="M258.84,49.52l.03.1v3.95s.03.04.05.03c.02-.01.05-.01.06,0h1.66c.08.02.15.07.2.14.06.1.06.23,0,.32-.03.08-.11.13-.2.13-.08,0-.17,0-.25,0h-1.83c-.06,0-.11-.03-.16-.07-.05-.04-.08-.09-.1-.15v-.08s0-3.46,0-3.46v-.77c-.01-.09.02-.17.07-.24.12-.11.3-.11.41,0,.02.02.04.05.06.08h0Z"/>
                <path class="cls-10" d="M264.68,49.42s.08.03.12.05c.04.02.07.06.08.1.02.04.03.08.03.13,0,.05,0,.09-.02.13-.02.05-.06.09-.1.13-.04.03-.1.05-.15.05h-.82s-.05,0-.05.04v3.49s-.01.42-.01.42c0,.09-.07.17-.15.21-.05.02-.1.04-.15.03-.06,0-.11-.02-.15-.06-.02-.03-.03-.05-.05-.07-.02-.02-.03-.05-.04-.08v-.08s-.02-3.88-.02-3.88c-.02-.03-.04-.05-.05-.05h-.87s-.09-.04-.12-.07c-.04-.02-.07-.06-.09-.1-.02-.05-.03-.09-.03-.14,0-.05,0-.11.04-.15.02-.04.06-.08.1-.1.04-.02.08-.04.12-.04l2.38.02Z"/>
                <path class="cls-10" d="M266.73,49.52s.04.08.03.12v4.32c-.03.16-.19.26-.35.23,0,0-.02,0-.02,0-.08-.04-.15-.11-.18-.19v-3.29s0-1.07,0-1.07c0-.05.02-.11.05-.15.03-.04.07-.08.11-.1.06-.03.13-.04.2-.02.07.03.13.08.16.15Z"/>
                <path class="cls-10" d="M268.81,49.53l.7,1.12,1.33,2.11s.04.02.06.02c.01-.01.02-.02.03-.04v-3.13c.01-.05.04-.1.08-.14.04-.04.08-.07.14-.09.12-.04.24.02.29.13.04.05.06.11.06.17v4.29s-.03.08-.06.12c-.02.04-.05.07-.09.09-.05.03-.1.04-.16.04-.05,0-.1-.02-.14-.06-.04-.03-.08-.07-.11-.12-.02-.05-.05-.09-.08-.13l-1.94-3.1s-.04-.02-.06-.01c-.02.01-.03.04-.03.09v3.04c0,.05-.02.1-.05.14-.03.04-.06.08-.11.1-.05.03-.1.04-.16.03-.05,0-.11-.02-.15-.06-.07-.06-.11-.15-.11-.24v-4.29s.03-.09.06-.13c.02-.04.06-.07.11-.09.08-.05.18-.04.26.01.06.03.11.08.14.14Z"/>
                <path class="cls-10" d="M276.72,50.14s.06.1.07.16c.01.06,0,.12-.03.17-.04.1-.14.17-.25.17-.07.01-.15-.02-.19-.08-.05-.06-.11-.12-.17-.16-.13-.1-.27-.19-.42-.25-.15-.06-.32-.11-.48-.13-.16-.02-.33-.01-.49.02-.16.03-.31.09-.45.17-.61.35-.97,1.02-.91,1.73.02.32.13.64.31.91.18.27.43.48.72.61.13.06.28.11.43.13.15.02.3.02.45,0,.15-.02.3-.06.44-.12.14-.06.26-.13.38-.23.17-.13.32-.29.42-.48.1-.18.17-.38.21-.59,0-.02,0-.04-.04-.06h-1.68c-.13-.03-.23-.15-.23-.29,0-.05,0-.09.01-.13.04-.09.11-.15.2-.18h.11s1.98,0,1.98,0c.11,0,.21.09.24.19.01.06.02.12.01.18v.18c-.02.22-.07.44-.15.65-.17.42-.45.79-.81,1.07-.17.13-.37.23-.57.3-.21.08-.43.12-.65.13-.67.02-1.31-.25-1.75-.75-.15-.17-.28-.36-.37-.57-.1-.21-.17-.44-.2-.67-.04-.23-.04-.47-.02-.7.02-.24.07-.47.17-.69.09-.21.2-.4.34-.57.14-.17.3-.33.48-.45.18-.12.37-.22.58-.29.21-.07.42-.1.64-.1.31,0,.61.07.89.18.29.12.55.31.76.55Z"/>
              </g>
            </g>
            <path class="cls-1" d="M189.91,53.79v-5.9c0-.58-.91-.58-.91,0v5.9c0,.58.91.58.91,0Z"/>
            <path class="cls-10" d="M141.94,53.89v-4.18c0-.44-.68-.44-.68,0v4.18c0,.44.68.44.68,0Z"/>
          </g>
        </g>
      </g>
    </g>
  </g>
</svg>