<?xml version="1.0" encoding="UTF-8"?>
<svg xmlns="http://www.w3.org/2000/svg" viewBox="0 0 2834.65 2834.65">
  <defs>
    <style>
      .cls-1 {
        fill: #fff;
      }

      .cls-2 {
        fill: #f04f3e;
      }

      .cls-3 {
        fill: #fec76f;
      }

      .cls-4 {
        fill: none;
      }

      .cls-5 {
        isolation: isolate;
      }

      .cls-6 {
        mix-blend-mode: multiply;
        opacity: .2;
      }
    </style>
  </defs>
  <g class="cls-5">
    <g id="Capa_1" data-name="Capa 1">
      <g>
        <ellipse class="cls-3" cx="1417.32" cy="1417.32" rx="1371.55" ry="1339.75"/>
        <circle class="cls-2" cx="1417.32" cy="1417.32" r="1224.11"/>
        <path class="cls-1" d="M1417.32,2044.67c-158.82,0-323.56-31.96-489.66-94.99-131.85-50.04-264.88-119.68-395.39-207-221.72-148.34-358.26-294.99-363.96-301.16l-31.71-34.31,31.71-34.31c5.7-6.17,142.24-152.82,363.96-301.16,130.51-87.32,263.54-156.96,395.39-207,166.1-63.03,330.84-94.99,489.66-94.99s323.56,31.96,489.66,94.99c131.85,50.04,264.88,119.68,395.39,207,221.72,148.34,358.26,294.99,363.96,301.16l31.71,34.31-31.71,34.31c-5.7,6.17-142.25,152.82-363.96,301.16-130.51,87.32-263.54,156.96-395.39,207-166.1,63.03-330.84,94.99-489.66,94.99ZM276.54,1407.22c52.69,51.27,163.83,152.62,314.04,252.86,193.8,129.34,494.55,283.52,826.74,283.52s632.94-154.18,826.74-283.52c150.2-100.24,261.34-201.58,314.04-252.86-52.7-51.28-163.84-152.62-314.04-252.86-193.8-129.34-494.55-283.52-826.74-283.52s-632.94,154.18-826.74,283.52c-150.19,100.24-261.34,201.58-314.04,252.86Z"/>
        <g>
          <path class="cls-4" d="M352.55,1532.66c0,548.65,476.72,993.43,1064.78,993.43s1064.78-444.77,1064.78-993.43"/>
          <path class="cls-1" d="M570.26,2140.28l129.41-126.3,57.05,58.46c14.44,14.79,24.46,30.49,30.06,47.07,5.6,16.59,6.59,32.77,2.98,48.55-3.62,15.78-11.83,29.92-24.65,42.43-12.82,12.51-27.16,20.38-43.02,23.61-15.86,3.23-32.02,1.84-48.46-4.16-16.45-6-31.89-16.4-46.33-31.2l-57.05-58.46ZM605.69,2144.4l36.55,37.45c11.22,11.49,22.95,19.45,35.21,23.87,12.25,4.42,24.3,5.36,36.15,2.83,11.84-2.53,22.58-8.49,32.19-17.88,9.73-9.5,15.98-20.11,18.74-31.83,2.76-11.72,2.08-23.76-2.04-36.12-4.12-12.36-11.79-24.28-23-35.78l-36.55-37.45-97.24,94.91Z"/>
          <path class="cls-1" d="M748.22,2305.59l81.07-110.33,21.42,15.74-81.07,110.33-21.42-15.74ZM855.61,2181.9c-4.17-3.06-6.71-6.85-7.62-11.37-.92-4.52-.05-8.58,2.6-12.19,2.75-3.75,6.42-5.86,11.01-6.33,4.59-.48,8.96.82,13.13,3.88,4.16,3.06,6.73,6.82,7.7,11.27.96,4.45.12,8.48-2.53,12.09-2.75,3.75-6.41,5.92-10.98,6.52-4.57.6-9-.69-13.32-3.85Z"/>
          <path class="cls-1" d="M855.87,2377.02l11.22-150.82,24.12,13.59-11.15,136.03-11.58-6.52,111.51-79.51,22.68,12.77-123.16,87.77-23.64-13.32Z"/>
          <path class="cls-1" d="M960.8,2487.66c-6.57-2.46-12.59-5.85-18.06-10.19-5.47-4.34-9.73-9.29-12.78-14.84l17.14-13.45c2.31,4.35,5.24,8.12,8.79,11.28,3.55,3.16,7.66,5.62,12.33,7.36,6.05,2.26,11.61,2.68,16.67,1.26,5.06-1.42,10.71-5.2,16.94-11.32l15.16-14.47,3.68-1.94,97.43-96.25,24.38,9.11-119.36,116.19c-7.35,7.55-14.46,12.98-21.31,16.31-6.86,3.32-13.63,4.97-20.32,4.96-6.69-.02-13.58-1.35-20.67-4ZM1010.02,2455.58l-13.33-155.82,25.94,9.69,10.77,134.18-23.38,11.95Z"/>
          <path class="cls-1" d="M1171.6,2501.19c-10.67-2.2-19.68-5.82-27.02-10.85-7.35-5.03-12.57-10.99-15.68-17.88-3.1-6.88-3.87-14.12-2.3-21.71,1.5-7.25,4.71-13.45,9.63-18.59,4.92-5.14,11.96-8.61,21.09-10.42,9.14-1.81,20.84-1.24,35.13,1.71l45.56,9.4-3.6,17.46-44.47-9.18c-13.02-2.69-22.2-2.47-27.56.64-5.36,3.12-8.62,7.54-9.81,13.27-1.36,6.58.35,12.43,5.14,17.55,4.78,5.12,12.15,8.71,22.09,10.76,9.76,2.02,18.72,1.75,26.88-.78,8.16-2.54,14.66-7.35,19.52-14.44l1.71,17.76c-5.07,7.22-12.42,12.25-22.06,15.1-9.64,2.85-21.05,2.91-34.25.18ZM1219.09,2509.41l5.85-28.34-.26-5.59,9.97-48.32c2.12-10.29.56-18.92-4.69-25.9-5.25-6.97-14.3-11.79-27.13-14.44-8.5-1.75-17.08-2.16-25.76-1.23-8.68.94-16.27,3.02-22.78,6.25l-7.09-20.46c8.56-4.04,18.34-6.46,29.35-7.26,11-.8,22.2-.03,33.59,2.32,19.7,4.07,33.96,11.67,42.79,22.81,8.82,11.14,11.33,25.91,7.54,44.29l-16.71,80.96-24.68-5.09Z"/>
          <path class="cls-1" d="M1400.52,2529.11l-10.67-180.52,81.54-4.82c20.64-1.22,39.06,1.49,55.26,8.12,16.2,6.64,29.08,16.49,38.64,29.55,9.55,13.07,14.86,28.54,15.92,46.42,1.06,17.88-2.39,33.87-10.34,47.97-7.95,14.1-19.58,25.4-34.89,33.89-15.31,8.5-33.28,13.35-53.92,14.57l-81.54,4.82ZM1426.84,2505.04l52.24-3.09c16.03-.95,29.73-4.6,41.1-10.97,11.36-6.36,19.97-14.85,25.82-25.46,5.84-10.61,8.37-22.62,7.58-36.03-.8-13.58-4.73-25.25-11.78-35.02-7.05-9.76-16.59-17.13-28.63-22.12-12.04-4.98-26.07-7-42.1-6.05l-52.24,3.09,8.02,135.65Z"/>
          <path class="cls-1" d="M1642.61,2504.26l-30.73-133.42,24.82-5.72,8.35,36.25-4.52-8.5c1.83-10.14,6.86-18.72,15.1-25.75,8.23-7.02,19.18-12.11,32.86-15.25l5.39,23.41c-1.12.08-2.17.24-3.16.46-.99.23-1.93.45-2.83.65-13.85,3.19-23.93,9.58-30.25,19.16-6.32,9.59-7.79,21.68-4.43,36.28l15.31,66.46-25.9,5.97Z"/>
          <path class="cls-1" d="M1721.94,2314.23c-4.91,1.62-9.47,1.5-13.68-.37-4.22-1.87-7.03-4.93-8.43-9.18-1.46-4.42-1.06-8.63,1.21-12.65,2.27-4.01,5.85-6.83,10.76-8.46,4.9-1.62,9.45-1.54,13.64.25,4.19,1.79,6.99,4.81,8.39,9.06,1.46,4.41,1.12,8.66-1.04,12.72-2.15,4.07-5.77,6.94-10.85,8.63ZM1760.62,2473.41l-43.02-129.98,25.23-8.35,43.02,129.98-25.23,8.35Z"/>
          <path class="cls-1" d="M1883.97,2427.56c-11.08,5.07-22.26,8.47-33.54,10.22-11.28,1.75-20.7,1.89-28.27.43l1.91-22.46c7.35,1,15.8.83,25.34-.51,9.54-1.33,18.67-3.99,27.4-7.98,11.25-5.14,18.67-10.33,22.26-15.57,3.59-5.24,4.17-10.52,1.74-15.85-1.79-3.91-4.7-6.28-8.72-7.09-4.02-.81-8.76-.63-14.22.53-5.45,1.17-11.4,2.7-17.84,4.6-6.44,1.9-12.98,3.57-19.63,5-6.65,1.43-13.05,2.09-19.2,1.96-6.15-.12-11.71-1.65-16.71-4.58-4.99-2.92-9.13-7.99-12.43-15.2-3.44-7.52-4.18-15.13-2.22-22.84s6.39-14.99,13.3-21.85c6.91-6.85,16.08-12.89,27.49-18.11,8.73-3.99,18.03-7.06,27.91-9.21,9.88-2.14,18.49-2.72,25.85-1.73l-2.16,22.58c-7.76-1-15.24-.7-22.43.88s-14.06,3.87-20.61,6.86c-10.58,4.83-17.73,10.05-21.47,15.64-3.74,5.59-4.46,10.89-2.17,15.9,1.93,4.23,4.97,6.77,9.12,7.62,4.14.85,8.98.77,14.5-.24,5.52-1.01,11.51-2.46,17.94-4.37,6.44-1.9,12.98-3.56,19.63-5,6.65-1.43,12.99-2.1,19.02-2.02,6.02.09,11.56,1.53,16.6,4.34,5.04,2.81,9.17,7.74,12.39,14.79,3.44,7.52,4.06,15.09,1.86,22.72-2.19,7.63-6.88,14.93-14.04,21.9-7.17,6.97-16.71,13.18-28.63,18.63Z"/>
          <path class="cls-1" d="M1986.98,2374.69l-107.84-158.47,21.98-14.95,51.59,75.82-9.87-5.16c-1.07-10.1,1.11-20.02,6.54-29.76,5.43-9.74,13.64-18.34,24.63-25.82,9.92-6.75,19.87-10.91,29.84-12.5,9.98-1.58,19.57-.19,28.79,4.16,9.21,4.36,17.6,12.08,25.16,23.19l44.33,65.14-21.98,14.95-42.73-62.79c-7.46-10.96-15.94-17.27-25.44-18.93-9.5-1.66-19.44,1.04-29.82,8.1-7.78,5.3-13.61,11.34-17.47,18.14-3.86,6.8-5.47,14.03-4.82,21.71.65,7.68,3.79,15.65,9.4,23.91l39.68,58.31-21.98,14.95Z"/>
          <path class="cls-1" d="M2190.43,2218.16c-10.72,10.16-21.57,15.34-32.56,15.55-10.99.21-21.22-4.68-30.7-14.68l-86.36-91.13,19.29-18.28,85.65,90.38c5.09,5.38,10.44,8.14,16.05,8.28,5.61.15,11.09-2.32,16.45-7.4,6.03-5.71,9.57-12.04,10.63-18.97l18.29,7.23c-.7,5.17-2.56,10.25-5.58,15.25-3.02,5-6.74,9.59-11.16,13.78ZM2057.38,2181.6l-14.04-14.81,67.93-64.37,14.04,14.81-67.93,64.37Z"/>
          <path class="cls-1" d="M2126.08,2045.57c-3.36,3.93-7.33,6.19-11.9,6.77-4.58.58-8.56-.58-11.97-3.49-3.54-3.02-5.37-6.83-5.51-11.45-.14-4.61,1.47-8.88,4.83-12.81,3.36-3.93,7.29-6.21,11.8-6.85,4.51-.64,8.47.5,11.87,3.41,3.54,3.02,5.44,6.83,5.7,11.43.27,4.6-1.34,8.93-4.82,13ZM2241.56,2161.75l-104.08-88.96,17.27-20.21,104.08,88.96-17.27,20.21Z"/>
        </g>
        <g>
          <g class="cls-6">
            <path class="cls-1" d="M1124.85,1366.06s-89.5,175.92,87.44,273.65c139.91,58.64,193.41-51.44,167.69-112.13-16.22-38.29-53.66-59.19-103.9-30.86l-30.86-83.33s138.39-16.71,124.48-98.76c-10.29-60.7-146.08-17.49-177.97,20.58l-52.47-81.27s126.54-93.62,224.27-45.27c97.73,48.35,86.41,168.72-16.46,224.27,0,0,78.15,23.42,111.11,108.02,38.06,97.73-6.17,241.76-177.97,224.27-171.8-17.49-265.42-231.47-155.34-399.15Z"/>
            <path class="cls-1" d="M1367.63,1454.53s86.41,31.89,129.62-30.86c43.21-62.75,46.29-110.08,148.14-110.08,119.06,0,188.5,173.11,92.59,296.28-97.73,125.51-271.59,69.95-219.12-77.16,0,0,29.83,97.73,131.68,47.32,101.85-50.41,56.58-189.29,9.26-202.66-47.32-13.37-80.24-18.52-131.68,73.04-51.44,91.56-121.39,29.83-121.39,29.83l-39.09-25.72Z"/>
            <path class="cls-1" d="M1402.61,1115.05s22.63,95.67,119.33,95.67,148.14-62.75,148.14-62.75l52.47,72.01s-60.7,68.93-167.69,64.81c-106.99-4.11-154.31-85.39-152.25-169.74Z"/>
            <polygon class="cls-1" points="1469.48 1126.36 1527.09 1181.92 1587.79 1124.31 1526.06 1065.67 1469.48 1126.36"/>
          </g>
          <g>
            <path class="cls-1" d="M1099.03,1348.15s-89.5,175.92,87.44,273.65c139.91,58.64,193.41-51.44,167.69-112.13-16.22-38.29-53.66-59.19-103.9-30.86l-30.86-83.33s138.39-16.71,124.48-98.76c-10.29-60.7-146.08-17.49-177.97,20.57l-52.47-81.27s126.54-93.62,224.27-45.27c97.73,48.35,86.41,168.71-16.46,224.27,0,0,78.15,23.42,111.1,108.02,38.06,97.73-6.17,241.76-177.97,224.27-171.8-17.49-265.42-231.47-155.34-399.16Z"/>
            <path class="cls-1" d="M1341.82,1436.63s86.41,31.89,129.62-30.86c43.21-62.75,46.29-110.08,148.14-110.08,119.06,0,188.5,173.11,92.59,296.28-97.73,125.51-271.59,69.95-219.12-77.16,0,0,29.83,97.73,131.68,47.32,101.85-50.41,56.58-189.29,9.26-202.66-47.32-13.37-80.24-18.52-131.68,73.04-51.44,91.56-121.39,29.83-121.39,29.83l-39.09-25.72Z"/>
            <path class="cls-1" d="M1376.79,1097.14s22.63,95.67,119.34,95.67,148.14-62.75,148.14-62.75l52.47,72.01s-60.7,68.93-167.69,64.81c-106.99-4.11-154.31-85.39-152.25-169.74Z"/>
            <polygon class="cls-1" points="1443.66 1108.46 1501.27 1164.01 1561.97 1106.4 1500.24 1047.76 1443.66 1108.46"/>
          </g>
        </g>
        <path class="cls-1" d="M1417.32,2044.67c-86.03,0-169.52-16.86-248.14-50.12-75.91-32.11-144.08-78.06-202.61-136.59-58.53-58.53-104.48-126.69-136.59-202.61-33.25-78.62-50.12-162.11-50.12-248.14s16.86-169.52,50.12-248.14c32.11-75.91,78.07-144.08,136.59-202.61,58.53-58.53,126.69-104.48,202.61-136.59,78.62-33.25,162.11-50.12,248.14-50.12s169.52,16.86,248.14,50.12c75.91,32.11,144.08,78.07,202.61,136.59,58.53,58.53,104.48,126.69,136.59,202.61,33.25,78.62,50.12,162.11,50.12,248.14s-16.86,169.52-50.12,248.14c-32.11,75.91-78.07,144.08-136.59,202.61-58.53,58.53-126.69,104.48-202.61,136.59-78.62,33.25-162.11,50.12-248.14,50.12ZM1417.32,870.83c-295.76,0-536.38,240.62-536.38,536.39s240.62,536.38,536.38,536.38,536.38-240.62,536.38-536.38-240.62-536.39-536.38-536.39Z"/>
        <g>
          <path class="cls-1" d="M1006.63,494.54h-29.47v159.82h-35.29v-159.82h-29.88v-28.38h30.42c-5.05-10.43-7.57-20.1-7.57-29.01,0-6.73,1.31-13.08,3.92-19.05,2.61-5.97,6.65-11.18,12.1-15.64,5.45-4.46,12.44-7.97,20.96-10.53,8.52-2.56,18.68-3.85,30.49-3.85,14.15,0,27.51,1.89,40.09,5.68,12.57,3.78,24.49,9.15,35.76,16.08,11.27,6.94,21.99,15.31,32.18,25.1,10.18,9.8,19.96,20.67,29.34,32.61h-32.45c-3.16-2.94-6.83-6.26-11.02-9.96-4.19-3.7-8.86-7.44-13.99-11.23-5.14-3.78-10.66-7.46-16.56-11.04-5.9-3.57-12.1-6.77-18.59-9.59-6.49-2.82-13.25-5.07-20.28-6.75-7.03-1.68-14.2-2.52-21.5-2.52-6.4,0-11.94.67-16.63,2.02-4.69,1.35-8.56,3.24-11.63,5.68-3.06,2.44-5.32,5.32-6.76,8.64-1.44,3.32-2.16,7-2.16,11.04,0,3.53.56,7.13,1.69,10.78,1.13,3.66,2.86,7.51,5.21,11.54h31.64v28.38Z"/>
          <path class="cls-1" d="M1182.11,494.54h-41.24v58.53h-49.62c-11.72,0-20.78,2.54-27.17,7.63-6.4,5.09-9.6,12.72-9.6,22.89,0,5.63.99,10.95,2.97,15.96,1.98,5,4.78,9.4,8.38,13.18,3.6,3.78,7.91,6.77,12.91,8.96,5,2.19,10.52,3.28,16.56,3.28,2.61,0,4.98-.15,7.1-.44,2.12-.29,3.99-.86,5.61-1.7-.81-3.53-1.22-7.15-1.22-10.85,0-4.79.68-9.42,2.03-13.88,1.35-4.46,3.33-8.41,5.95-11.86,2.61-3.45,5.88-6.2,9.8-8.26,3.92-2.06,8.4-3.09,13.45-3.09,3.51,0,6.8.59,9.87,1.77,3.06,1.18,5.75,2.9,8.04,5.17,2.3,2.27,4.12,5.11,5.48,8.51,1.35,3.41,2.03,7.3,2.03,11.67,0,3.95-.56,7.72-1.69,11.29-1.13,3.58-2.59,6.96-4.39,10.15-1.8,3.2-3.92,6.2-6.35,9.02-2.43,2.82-4.91,5.45-7.44,7.88,6.04,9.17,13.7,17.32,22.98,24.47l-23.12,21.95c-6.49-5.38-12.06-11.02-16.7-16.9-4.64-5.89-8.5-12.03-11.56-18.42-3.61,1.09-7.17,1.85-10.68,2.27-3.52.42-7.08.63-10.68.63-6.58,0-13.03-.86-19.33-2.59-6.31-1.72-12.24-4.12-17.78-7.19-5.54-3.07-10.66-6.79-15.34-11.16-4.69-4.37-8.7-9.21-12.03-14.51-3.34-5.3-5.95-10.99-7.84-17.09-1.89-6.1-2.84-12.42-2.84-18.98,0-9.5,1.6-17.87,4.8-25.1,3.2-7.23,7.66-13.29,13.38-18.16,5.72-4.88,12.59-8.56,20.62-11.04,8.02-2.48,16.9-3.72,26.63-3.72h21.5v-30.27h-108.43v-28.38h184.95v28.38Z"/>
          <path class="cls-1" d="M1307.85,494.54h-135.2v-28.38h135.2v28.38ZM1193.74,565.93c0-7.82,1.58-15.09,4.73-21.82,3.15-6.73,7.57-12.59,13.25-17.6,5.68-5,12.48-8.91,20.42-11.73,7.93-2.82,16.72-4.23,26.36-4.23s18.72,1.43,26.7,4.29c7.98,2.86,14.94,6.52,20.89,10.97,5.95,4.46,10.79,9.44,14.53,14.95,3.74,5.51,6.38,10.91,7.91,16.21-.18,11.1-1.78,20.96-4.8,29.58-3.02,8.62-7.28,15.92-12.78,21.89-5.5,5.97-12.21,10.51-20.14,13.62-7.93,3.11-16.9,4.67-26.9,4.67-10.91,0-20.68-1.7-29.34-5.11-8.65-3.41-16-7.95-22.04-13.62-6.04-5.68-10.68-12.15-13.93-19.43-3.24-7.27-4.87-14.82-4.87-22.64ZM1295.95,557.1c-4.78-6.05-9.85-10.7-15.21-13.94-5.36-3.24-11.47-4.86-18.32-4.86-5.41,0-10.14.93-14.2,2.77-4.06,1.85-7.44,4.23-10.14,7.13-2.7,2.9-4.76,6.08-6.15,9.52-1.4,3.45-2.1,6.81-2.1,10.09,0,3.45.74,6.92,2.23,10.41,1.49,3.49,3.63,6.62,6.42,9.4,2.79,2.77,6.17,5.05,10.14,6.81,3.96,1.77,8.38,2.65,13.25,2.65,4.06,0,8.04-.71,11.96-2.14,3.92-1.43,7.46-3.72,10.61-6.87,3.15-3.15,5.77-7.27,7.84-12.36,2.07-5.09,3.29-11.29,3.65-18.6ZM1275.13,494.54v-28.38h194.14v28.38h-29.47v159.69h-35.29v-46.8l-.41-.13c-2.07,1.43-4.35,2.84-6.83,4.23-2.48,1.39-5.21,2.63-8.18,3.72-2.97,1.09-6.27,1.98-9.87,2.65-3.61.67-7.62,1.01-12.03,1.01-11.54,0-21.61-2.12-30.22-6.37-8.61-4.25-15.89-9.84-21.83-16.78-5.95-6.94-10.68-14.78-14.2-23.52-3.51-8.74-5.95-17.66-7.3-26.74,5.77-.67,10.61-1.85,14.53-3.53,3.92-1.68,7.08-3.72,9.46-6.12,2.39-2.4,4.1-5.05,5.14-7.95,1.04-2.9,1.55-5.91,1.55-9.02,0-3.78-.72-7.65-2.16-11.6-1.44-3.95-3.74-8.2-6.9-12.74h-40.15ZM1360.17,524.05c0,8.16-2.25,15.33-6.76,21.51-4.51,6.18-11.18,11.08-20.01,14.7,1.26,4.96,3.04,9.21,5.34,12.74,2.3,3.53,4.93,6.41,7.91,8.64,2.97,2.23,6.22,3.87,9.73,4.92,3.51,1.05,7.17,1.58,10.95,1.58,8.47,0,15.77-1.96,21.9-5.87,6.13-3.91,11.22-9.35,15.28-16.33v-71.39h-54.21c3.42,5.13,5.93,10.2,7.5,15.2,1.58,5,2.37,9.78,2.37,14.32Z"/>
          <path class="cls-1" d="M1616.23,651.2c-4.24,2.61-8.63,4.77-13.18,6.5-4.55,1.72-9.04,3.11-13.45,4.16-4.42,1.05-8.68,1.79-12.78,2.21-4.1.42-7.82.63-11.15.63-9.19,0-17.62-1.35-25.28-4.04-7.66-2.69-14.24-6.37-19.74-11.04-5.5-4.67-9.76-10.13-12.78-16.4-3.02-6.26-4.53-13.01-4.53-20.25,0-3.95.49-7.97,1.49-12.05.99-4.08,2.52-8.14,4.6-12.17-6.04-2.52-10.95-5.51-14.74-8.96-3.79-3.45-6.76-7.04-8.92-10.78-2.16-3.74-3.65-7.44-4.46-11.1-.81-3.66-1.22-7-1.22-10.03,0-5.38,1.08-10.32,3.25-14.82,2.16-4.5,5.27-8.34,9.33-11.54,4.06-3.19,9.01-5.68,14.87-7.44,5.86-1.77,12.53-2.65,20.01-2.65h43.13v-16.9h-110.86v-28.38h172.92v28.38h-28.93v43.77h-66.92c-2.89,0-5.68.17-8.38.5-2.7.34-5.09.97-7.17,1.89-2.07.93-3.72,2.27-4.93,4.04s-1.83,4.08-1.83,6.94c0,3.53.92,6.41,2.77,8.64,1.85,2.23,4.33,3.95,7.44,5.17,3.11,1.22,6.69,2.06,10.75,2.52,4.06.46,8.25.69,12.57.69,3.42,0,7.03-.1,10.82-.32,3.79-.21,7.57-.48,11.36-.82,3.79-.33,7.46-.73,11.02-1.2,3.56-.46,6.78-.95,9.67-1.45v27.88c-5.68,1.01-11.88,1.81-18.59,2.4-6.72.59-13.32.88-19.81.88-2.07,0-4.01-.02-5.81-.06-1.8-.04-3.25-.1-4.33-.19-.9,2.19-1.67,4.63-2.3,7.32-.63,2.69-.95,5.63-.95,8.83,0,4.04.61,7.49,1.83,10.34,1.22,2.86,2.97,5.19,5.27,7,2.3,1.81,5.07,3.11,8.31,3.91,3.24.8,6.85,1.2,10.82,1.2,4.78,0,9.55-.5,14.33-1.51,4.78-1.01,9.35-2.38,13.72-4.1,4.37-1.72,8.49-3.72,12.37-5.99,3.88-2.27,7.35-4.62,10.41-7.06v35.44Z"/>
          <path class="cls-1" d="M1717.9,494.54h-29.47v159.82h-35.29v-159.82h-29.88v-28.38h30.42c-5.05-10.43-7.57-20.1-7.57-29.01,0-6.73,1.31-13.08,3.92-19.05,2.61-5.97,6.65-11.18,12.1-15.64,5.45-4.46,12.44-7.97,20.96-10.53,8.52-2.56,18.68-3.85,30.49-3.85,14.15,0,27.51,1.89,40.09,5.68,12.57,3.78,24.49,9.15,35.76,16.08,11.27,6.94,21.99,15.31,32.18,25.1,10.18,9.8,19.96,20.67,29.34,32.61h-32.45c-3.16-2.94-6.83-6.26-11.02-9.96-4.19-3.7-8.86-7.44-13.99-11.23-5.14-3.78-10.66-7.46-16.56-11.04-5.9-3.57-12.1-6.77-18.59-9.59-6.49-2.82-13.25-5.07-20.28-6.75-7.03-1.68-14.2-2.52-21.5-2.52-6.4,0-11.94.67-16.63,2.02-4.69,1.35-8.56,3.24-11.63,5.68-3.06,2.44-5.32,5.32-6.76,8.64-1.44,3.32-2.16,7-2.16,11.04,0,3.53.56,7.13,1.69,10.78,1.13,3.66,2.86,7.51,5.21,11.54h31.64v28.38Z"/>
          <path class="cls-1" d="M1761.44,588.13c-3.16-1.01-6.11-2.63-8.86-4.86-2.75-2.23-5.16-5.11-7.23-8.64-2.07-3.53-3.72-7.8-4.93-12.8-1.22-5-1.83-10.83-1.83-17.47v-49.82h-30.15v-28.38h184.68v28.38h-29.47v44.02c0,7.4-.79,13.9-2.37,19.49-1.58,5.59-3.7,10.45-6.35,14.57-2.66,4.12-5.81,7.65-9.46,10.6-3.65,2.94-7.53,5.51-11.63,7.69-4.1,2.19-8.36,4.08-12.78,5.68-4.42,1.6-8.79,3.15-13.11,4.67-4.6,1.6-8.95,3.2-13.05,4.79-4.1,1.6-7.71,3.47-10.82,5.61s-5.59,4.71-7.44,7.69c-1.85,2.99-2.77,6.67-2.77,11.04s.99,8.58,2.97,12.11c1.98,3.53,4.67,6.5,8.04,8.89,3.38,2.4,7.34,4.2,11.9,5.42,4.55,1.22,9.44,1.83,14.67,1.83,4.42,0,8.88-.44,13.38-1.32,4.51-.88,8.97-2.1,13.38-3.66,4.42-1.56,8.76-3.38,13.05-5.49,4.28-2.1,8.49-4.37,12.64-6.81v33.43c-7.75,4.29-15.57,7.46-23.46,9.52-7.89,2.06-16.56,3.09-26.03,3.09-11.54,0-21.99-1.41-31.37-4.23-9.38-2.82-17.4-6.79-24.07-11.92-6.67-5.13-11.83-11.27-15.48-18.42s-5.48-15.05-5.48-23.71c0-4.88.59-9.42,1.76-13.62,1.17-4.2,2.82-7.99,4.93-11.35,2.12-3.36,4.6-6.31,7.44-8.83,2.84-2.52,5.92-4.62,9.26-6.31v-.88ZM1816.46,565.18l-42.72-56.89-.54.13v33.8c0,6.39.65,11.65,1.96,15.77,1.31,4.12,3.06,7.38,5.27,9.78,2.21,2.4,4.75,4.08,7.64,5.05,2.88.97,5.9,1.45,9.06,1.45,3.79-1.34,7.28-2.69,10.48-4.04,3.2-1.34,6.11-2.86,8.72-4.54l.13-.5ZM1786.72,494.92l41.1,57.01.54.13c.27-1.09.45-2.21.54-3.34.09-1.14.13-2.38.13-3.72v-50.46h-42.32v.38Z"/>
        </g>
      </g>
    </g>
  </g>
</svg>