<?xml version="1.0" encoding="UTF-8"?>
<svg xmlns="http://www.w3.org/2000/svg" xmlns:xlink="http://www.w3.org/1999/xlink" viewBox="0 0 285.18 69.01">
  <defs>
    <style>
      .cls-1 {
        fill: url(#linear-gradient-2);
      }

      .cls-2, .cls-3 {
        fill: #fff;
      }

      .cls-4 {
        fill: #f04f3e;
      }

      .cls-5 {
        fill: #fec76f;
      }

      .cls-6 {
        fill: none;
      }

      .cls-7 {
        fill: url(#linear-gradient-4);
      }

      .cls-8 {
        fill: url(#linear-gradient-3);
      }

      .cls-9 {
        fill: url(#linear-gradient-5);
      }

      .cls-10 {
        isolation: isolate;
      }

      .cls-11 {
        fill: url(#linear-gradient-8);
      }

      .cls-12 {
        mix-blend-mode: multiply;
        opacity: .2;
      }

      .cls-13 {
        fill: url(#linear-gradient-7);
      }

      .cls-14 {
        fill: url(#linear-gradient-9);
      }

      .cls-15 {
        fill: #747574;
      }

      .cls-16 {
        fill: url(#linear-gradient-6);
      }

      .cls-17 {
        fill: url(#linear-gradient);
      }

      .cls-3 {
        stroke: #f04f3e;
        stroke-miterlimit: 10;
      }
    </style>
    <linearGradient id="linear-gradient" x1="236.56" y1="-8661.88" x2="249.66" y2="-8661.88" gradientTransform="translate(0 -8623.9) scale(1 -1)" gradientUnits="userSpaceOnUse">
      <stop offset="0" stop-color="#59c099"/>
      <stop offset="1" stop-color="#50b7ab"/>
    </linearGradient>
    <linearGradient id="linear-gradient-2" x1="265.56" y1="-8663.58" x2="265.71" y2="-8663.58" gradientTransform="translate(0 -8623.9) scale(1 -1)" gradientUnits="userSpaceOnUse">
      <stop offset=".99" stop-color="#42b2be"/>
      <stop offset="1" stop-color="#42b2bf"/>
    </linearGradient>
    <linearGradient id="linear-gradient-3" x1="263.54" y1="-8663.45" x2="270.08" y2="-8663.45" gradientTransform="translate(0 -8623.9) scale(1 -1)" gradientUnits="userSpaceOnUse">
      <stop offset="0" stop-color="#3eb0c2"/>
      <stop offset="1" stop-color="#34adcd"/>
    </linearGradient>
    <linearGradient id="linear-gradient-4" x1="271.27" y1="-8662.25" x2="278.26" y2="-8662.25" gradientTransform="translate(0 -8623.9) scale(1 -1)" gradientUnits="userSpaceOnUse">
      <stop offset="0" stop-color="#30accf"/>
      <stop offset="1" stop-color="#27a9d8"/>
    </linearGradient>
    <linearGradient id="linear-gradient-5" x1="152.27" y1="-8636.36" x2="152.27" y2="-8670.46" gradientTransform="translate(0 -8623.9) scale(1 -1)" gradientUnits="userSpaceOnUse">
      <stop offset="0" stop-color="#59c097"/>
      <stop offset="1" stop-color="#26a9d7"/>
    </linearGradient>
    <linearGradient id="linear-gradient-6" x1="157.11" y1="-8671.54" x2="157.11" y2="-8677.81" xlink:href="#linear-gradient-5"/>
    <linearGradient id="linear-gradient-7" x1="148.69" y1="-8671.59" x2="148.69" y2="-8677.81" gradientTransform="translate(0 -8623.9) scale(1 -1)" gradientUnits="userSpaceOnUse">
      <stop offset="0" stop-color="#59c098"/>
      <stop offset="1" stop-color="#29aad5"/>
    </linearGradient>
    <linearGradient id="linear-gradient-8" x1="148.9" y1="-8650.24" x2="148.9" y2="-8652.77" gradientTransform="translate(0 -8623.9) scale(1 -1)" gradientUnits="userSpaceOnUse">
      <stop offset="0" stop-color="#58be9a"/>
      <stop offset="1" stop-color="#30acd0"/>
    </linearGradient>
    <linearGradient id="linear-gradient-9" x1="156.8" y1="-8650.24" x2="156.8" y2="-8652.77" gradientTransform="translate(0 -8623.9) scale(1 -1)" gradientUnits="userSpaceOnUse">
      <stop offset="0" stop-color="#59c097"/>
      <stop offset="1" stop-color="#30acd0"/>
    </linearGradient>
  </defs>
  <g class="cls-10">
    <g id="Capa_1" data-name="Capa 1">
      <g>
        <rect class="cls-4" x="67.41" y="28.04" width="58.92" height="12.4"/>
        <g>
          <ellipse class="cls-5" cx="35.32" cy="34.5" rx="35.32" ry="34.5"/>
          <circle class="cls-4" cx="35.32" cy="34.5" r="31.53"/>
          <path class="cls-2" d="M35.32,50.66c-4.09,0-8.33-.82-12.61-2.45-3.4-1.29-6.82-3.08-10.18-5.33-5.71-3.82-9.23-7.6-9.37-7.76l-.82-.88.82-.88c.15-.16,3.66-3.94,9.37-7.76,3.36-2.25,6.79-4.04,10.18-5.33,4.28-1.62,8.52-2.45,12.61-2.45s8.33.82,12.61,2.45c3.4,1.29,6.82,3.08,10.18,5.33,5.71,3.82,9.23,7.6,9.37,7.76l.82.88-.82.88c-.15.16-3.66,3.94-9.37,7.76-3.36,2.25-6.79,4.04-10.18,5.33-4.28,1.62-8.52,2.45-12.61,2.45ZM5.94,34.24c1.36,1.32,4.22,3.93,8.09,6.51,4.99,3.33,12.74,7.3,21.29,7.3s16.3-3.97,21.29-7.3c3.87-2.58,6.73-5.19,8.09-6.51-1.36-1.32-4.22-3.93-8.09-6.51-4.99-3.33-12.74-7.3-21.29-7.3s-16.3,3.97-21.29,7.3c-3.87,2.58-6.73,5.19-8.09,6.51Z"/>
          <g>
            <path class="cls-6" d="M7.9,37.47c0,14.13,12.28,25.58,27.42,25.58s27.42-11.45,27.42-25.58"/>
            <path class="cls-2" d="M13.54,53.16l3.33-3.26,1.47,1.5c.37.38.63.79.78,1.21.14.43.17.84.08,1.25-.09.41-.3.77-.63,1.09-.33.32-.7.53-1.11.61s-.82.05-1.25-.11c-.42-.15-.82-.42-1.2-.8l-1.47-1.5ZM14.46,53.27l.94.96c.29.29.59.5.91.61.32.11.63.14.93.07.3-.06.58-.22.83-.46.25-.25.41-.52.48-.82.07-.3.05-.61-.05-.93s-.3-.62-.59-.92l-.94-.96-2.5,2.45Z"/>
            <path class="cls-2" d="M18.18,57.45l2.08-2.85.55.4-2.08,2.85-.55-.4ZM20.93,54.25c-.11-.08-.17-.18-.2-.29-.02-.12,0-.22.07-.31.07-.1.17-.15.28-.16.12-.01.23.02.34.1s.17.18.2.29c.03.12,0,.22-.06.31-.07.1-.16.15-.28.17-.12.02-.23-.02-.34-.1Z"/>
            <path class="cls-2" d="M20.97,59.28l.27-3.88.62.35-.27,3.51-.3-.17,2.86-2.06.59.33-3.16,2.28-.61-.34Z"/>
            <path class="cls-2" d="M23.7,62.12c-.17-.06-.33-.15-.47-.26-.14-.11-.25-.24-.33-.38l.44-.35c.06.11.14.21.23.29.09.08.2.14.32.19.16.06.3.07.43.03.13-.04.27-.13.43-.29l.39-.38.09-.05,2.5-2.49.63.23-3.06,3.01c-.19.2-.37.34-.55.42-.18.09-.35.13-.52.13s-.35-.03-.53-.1ZM24.96,61.29l-.36-4.01.67.25.29,3.46-.6.31Z"/>
            <path class="cls-2" d="M29.17,62.45c-.27-.05-.51-.15-.7-.27-.19-.13-.33-.28-.41-.46-.08-.18-.1-.36-.06-.56.04-.19.12-.35.25-.48.12-.13.31-.22.54-.27.24-.05.54-.04.91.04l1.17.23-.09.45-1.15-.23c-.34-.07-.57-.06-.71.02-.14.08-.22.2-.25.34-.03.17.01.32.13.45s.31.22.57.27c.25.05.48.04.69-.03.21-.07.38-.19.5-.38l.05.46c-.13.19-.32.32-.57.39-.25.08-.54.08-.88,0ZM30.39,62.66l.15-.73v-.14s.24-1.25.24-1.25c.05-.27.01-.49-.12-.67-.14-.18-.37-.3-.7-.37-.22-.04-.44-.05-.66-.03-.22.03-.42.08-.58.16l-.19-.53c.22-.11.47-.17.75-.19.28-.02.57,0,.87.05.51.1.88.29,1.11.58.23.29.3.67.2,1.14l-.42,2.09-.64-.13Z"/>
            <path class="cls-2" d="M35.11,63.14l-.31-4.65,2.1-.14c.53-.04,1.01.03,1.42.2.42.17.75.42,1,.75.25.34.39.73.42,1.19.03.46-.05.87-.26,1.24s-.5.66-.89.88c-.39.22-.85.35-1.39.39l-2.1.14ZM35.78,62.51l1.34-.09c.41-.03.76-.12,1.06-.29.29-.17.51-.39.66-.66.15-.28.21-.58.19-.93-.02-.35-.13-.65-.31-.9s-.43-.44-.74-.56c-.31-.12-.67-.17-1.09-.15l-1.34.09.23,3.49Z"/>
            <path class="cls-2" d="M41.38,62.44l-.82-3.43.64-.15.22.93-.12-.22c.04-.26.17-.48.38-.67.21-.18.49-.32.84-.4l.14.6s-.06,0-.08.01-.05.01-.07.02c-.36.09-.61.25-.77.5-.16.25-.2.56-.11.93l.41,1.71-.67.16Z"/>
            <path class="cls-2" d="M43.39,57.53c-.13.04-.24.04-.35,0-.11-.05-.18-.12-.22-.23-.04-.11-.03-.22.03-.33.06-.1.15-.18.27-.22s.24-.04.35,0,.18.12.22.23c.04.11.03.22-.02.33-.05.11-.15.18-.28.22ZM44.42,61.62l-1.14-3.34.65-.22,1.14,3.34-.65.22Z"/>
            <path class="cls-2" d="M47.63,60.39c-.28.13-.57.22-.86.27-.29.05-.53.05-.73.02l.04-.58c.19.02.41.02.65-.02s.48-.11.7-.21c.29-.13.48-.27.57-.41.09-.14.1-.27.04-.41-.05-.1-.12-.16-.23-.18s-.23-.01-.37.02c-.14.03-.29.07-.46.12s-.33.1-.5.13c-.17.04-.34.06-.49.06s-.3-.04-.43-.11c-.13-.07-.24-.2-.32-.39-.09-.19-.11-.39-.06-.59.05-.2.16-.39.34-.57.18-.18.41-.34.7-.47.22-.11.46-.19.72-.24.25-.06.48-.08.67-.05l-.05.58c-.2-.02-.39-.01-.58.03-.19.04-.36.1-.53.18-.27.13-.45.26-.55.41-.09.14-.11.28-.05.41.05.11.13.17.24.19.11.02.23.02.37-.01.14-.03.3-.07.46-.12s.33-.1.5-.13c.17-.04.33-.06.49-.06s.3.04.43.11.24.2.32.38c.09.19.11.39.05.58-.05.2-.17.39-.36.57s-.43.34-.73.49Z"/>
            <path class="cls-2" d="M50.27,58.99l-2.82-4.05.56-.39,1.35,1.94-.26-.13c-.03-.26.02-.52.16-.77s.35-.48.63-.67c.25-.18.51-.29.76-.33.26-.04.5-.01.74.1.24.11.46.31.65.59l1.16,1.66-.56.39-1.12-1.6c-.2-.28-.42-.44-.66-.48-.25-.04-.5.03-.77.22-.2.14-.35.29-.44.47-.1.18-.14.36-.12.56.02.2.1.4.25.61l1.04,1.49-.56.39Z"/>
            <path class="cls-2" d="M55.49,54.87c-.27.27-.55.4-.83.41-.28,0-.55-.11-.79-.37l-2.26-2.31.49-.48,2.24,2.3c.13.14.27.21.42.21s.28-.06.42-.2c.15-.15.24-.31.27-.49l.47.18c-.02.13-.06.26-.14.39-.08.13-.17.25-.28.36ZM52.05,53.97l-.37-.38,1.73-1.68.37.38-1.73,1.68Z"/>
            <path class="cls-2" d="M53.78,50.44c-.08.1-.19.16-.3.18-.12.02-.22-.01-.31-.09-.09-.08-.14-.17-.15-.29,0-.12.04-.23.12-.33.08-.1.18-.16.3-.18s.22,0,.31.08c.09.08.14.17.15.29,0,.12-.03.23-.12.34ZM56.8,53.38l-2.71-2.25.44-.53,2.71,2.25-.44.53Z"/>
          </g>
          <g>
            <g class="cls-12">
              <path class="cls-2" d="M27.79,33.18s-2.31,4.53,2.25,7.05c3.6,1.51,4.98-1.32,4.32-2.89-.42-.99-1.38-1.52-2.68-.79l-.79-2.15s3.56-.43,3.21-2.54c-.26-1.56-3.76-.45-4.58.53l-1.35-2.09s3.26-2.41,5.78-1.17c2.52,1.25,2.23,4.35-.42,5.78,0,0,2.01.6,2.86,2.78.98,2.52-.16,6.23-4.58,5.78-4.42-.45-6.84-5.96-4-10.28Z"/>
              <path class="cls-2" d="M34.04,35.46s2.23.82,3.34-.79c1.11-1.62,1.19-2.83,3.82-2.83,3.07,0,4.85,4.46,2.38,7.63-2.52,3.23-6.99,1.8-5.64-1.99,0,0,.77,2.52,3.39,1.22,2.62-1.3,1.46-4.87.24-5.22-1.22-.34-2.07-.48-3.39,1.88-1.32,2.36-3.13.77-3.13.77l-1.01-.66Z"/>
              <path class="cls-2" d="M34.94,26.72s.58,2.46,3.07,2.46,3.82-1.62,3.82-1.62l1.35,1.85s-1.56,1.78-4.32,1.67c-2.76-.11-3.97-2.2-3.92-4.37Z"/>
              <polygon class="cls-2" points="36.67 27.01 38.15 28.44 39.71 26.96 38.12 25.45 36.67 27.01"/>
            </g>
            <g>
              <path class="cls-2" d="M27.13,32.72s-2.31,4.53,2.25,7.05c3.6,1.51,4.98-1.32,4.32-2.89-.42-.99-1.38-1.52-2.68-.79l-.79-2.15s3.56-.43,3.21-2.54c-.26-1.56-3.76-.45-4.58.53l-1.35-2.09s3.26-2.41,5.78-1.17c2.52,1.25,2.23,4.35-.42,5.78,0,0,2.01.6,2.86,2.78.98,2.52-.16,6.23-4.58,5.78-4.42-.45-6.84-5.96-4-10.28Z"/>
              <path class="cls-2" d="M33.38,35s2.23.82,3.34-.79c1.11-1.62,1.19-2.83,3.82-2.83,3.07,0,4.85,4.46,2.38,7.63-2.52,3.23-6.99,1.8-5.64-1.99,0,0,.77,2.52,3.39,1.22,2.62-1.3,1.46-4.87.24-5.22-1.22-.34-2.07-.48-3.39,1.88-1.32,2.36-3.13.77-3.13.77l-1.01-.66Z"/>
              <path class="cls-2" d="M34.28,26.26s.58,2.46,3.07,2.46,3.82-1.62,3.82-1.62l1.35,1.85s-1.56,1.78-4.32,1.67c-2.76-.11-3.97-2.2-3.92-4.37Z"/>
              <polygon class="cls-2" points="36 26.55 37.48 27.98 39.05 26.5 37.46 24.99 36 26.55"/>
            </g>
          </g>
          <path class="cls-2" d="M35.32,50.66c-2.22,0-4.37-.43-6.39-1.29-1.96-.83-3.71-2.01-5.22-3.52s-2.69-3.26-3.52-5.22c-.86-2.02-1.29-4.17-1.29-6.39s.43-4.37,1.29-6.39c.83-1.96,2.01-3.71,3.52-5.22,1.51-1.51,3.26-2.69,5.22-3.52,2.02-.86,4.17-1.29,6.39-1.29s4.37.43,6.39,1.29c1.96.83,3.71,2.01,5.22,3.52,1.51,1.51,2.69,3.26,3.52,5.22.86,2.02,1.29,4.17,1.29,6.39s-.43,4.37-1.29,6.39c-.83,1.96-2.01,3.71-3.52,5.22-1.51,1.51-3.26,2.69-5.22,3.52-2.02.86-4.17,1.29-6.39,1.29ZM35.32,20.43c-7.62,0-13.81,6.2-13.81,13.81s6.2,13.81,13.81,13.81,13.81-6.2,13.81-13.81-6.2-13.81-13.81-13.81Z"/>
          <g>
            <path class="cls-2" d="M24.75,10.74h-.76v4.12h-.91v-4.12h-.77v-.73h.78c-.13-.27-.19-.52-.19-.75,0-.17.03-.34.1-.49.07-.15.17-.29.31-.4.14-.11.32-.21.54-.27.22-.07.48-.1.79-.1.36,0,.71.05,1.03.15s.63.24.92.41.57.39.83.65c.26.25.51.53.75.84h-.83c-.08-.08-.18-.16-.28-.26-.11-.1-.23-.19-.36-.29-.13-.1-.27-.19-.43-.28-.15-.09-.31-.17-.48-.25s-.34-.13-.52-.17c-.18-.04-.37-.06-.55-.06-.16,0-.31.02-.43.05-.12.03-.22.08-.3.15-.08.06-.14.14-.17.22-.04.09-.06.18-.06.28,0,.09.01.18.04.28.03.09.07.19.13.3h.81v.73Z"/>
            <path class="cls-2" d="M29.27,10.74h-1.06v1.51h-1.28c-.3,0-.54.07-.7.2-.17.13-.25.33-.25.59,0,.15.03.28.08.41.05.13.12.24.22.34.09.1.2.17.33.23.13.06.27.08.43.08.07,0,.13,0,.18-.01.05,0,.1-.02.14-.04-.02-.09-.03-.18-.03-.28,0-.12.02-.24.05-.36.04-.12.09-.22.15-.31s.15-.16.25-.21c.1-.05.22-.08.35-.08.09,0,.18.01.25.04.08.03.15.08.21.13.06.06.11.13.14.22.04.09.05.19.05.3,0,.1-.01.2-.04.29-.03.09-.07.18-.11.26-.05.08-.1.16-.16.23-.06.07-.13.14-.19.2.16.24.35.45.59.63l-.6.57c-.17-.14-.31-.28-.43-.44-.12-.15-.22-.31-.3-.47-.09.03-.18.05-.28.06s-.18.02-.28.02c-.17,0-.33-.02-.5-.07-.16-.04-.32-.11-.46-.18s-.27-.18-.4-.29-.22-.24-.31-.37c-.09-.14-.15-.28-.2-.44s-.07-.32-.07-.49c0-.24.04-.46.12-.65.08-.19.2-.34.34-.47.15-.12.32-.22.53-.28.21-.06.44-.1.69-.1h.55v-.78h-2.79v-.73h4.76v.73Z"/>
            <path class="cls-2" d="M32.5,10.74h-3.48v-.73h3.48v.73ZM29.56,12.58c0-.2.04-.39.12-.56s.2-.32.34-.45c.15-.13.32-.23.53-.3.2-.07.43-.11.68-.11s.48.04.69.11c.21.07.38.17.54.28.15.11.28.24.38.38.1.14.16.28.2.42,0,.29-.05.54-.12.76-.08.22-.19.41-.33.56-.14.15-.31.27-.52.35-.2.08-.43.12-.69.12-.28,0-.53-.04-.76-.13s-.41-.2-.57-.35-.28-.31-.36-.5c-.08-.19-.13-.38-.13-.58ZM32.2,12.35c-.12-.16-.25-.28-.39-.36-.14-.08-.3-.12-.47-.12-.14,0-.26.02-.37.07s-.19.11-.26.18c-.07.08-.12.16-.16.25-.04.09-.05.18-.05.26,0,.09.02.18.06.27s.09.17.17.24.16.13.26.17c.1.05.22.07.34.07.1,0,.21-.02.31-.05.1-.04.19-.1.27-.18s.15-.19.2-.32c.05-.13.08-.29.09-.48ZM31.66,10.74v-.73h5v.73h-.76v4.11h-.91v-1.21h-.01c-.05.03-.11.07-.18.11-.06.04-.13.07-.21.1-.08.03-.16.05-.25.07s-.2.03-.31.03c-.3,0-.56-.05-.78-.16s-.41-.25-.56-.43-.27-.38-.37-.61c-.09-.23-.15-.46-.19-.69.15-.02.27-.05.38-.09.1-.04.18-.1.24-.16s.11-.13.13-.21c.03-.07.04-.15.04-.23,0-.1-.02-.2-.06-.3-.04-.1-.1-.21-.18-.33h-1.03ZM33.85,11.5c0,.21-.06.39-.17.55s-.29.29-.51.38c.03.13.08.24.14.33.06.09.13.17.2.22.08.06.16.1.25.13.09.03.18.04.28.04.22,0,.41-.05.56-.15s.29-.24.39-.42v-1.84h-1.4c.09.13.15.26.19.39.04.13.06.25.06.37Z"/>
            <path class="cls-2" d="M40.44,14.77c-.11.07-.22.12-.34.17-.12.04-.23.08-.35.11s-.22.05-.33.06c-.11.01-.2.02-.29.02-.24,0-.45-.03-.65-.1s-.37-.16-.51-.28-.25-.26-.33-.42c-.08-.16-.12-.33-.12-.52,0-.1.01-.21.04-.31.03-.11.07-.21.12-.31-.16-.07-.28-.14-.38-.23s-.17-.18-.23-.28-.09-.19-.12-.29c-.02-.09-.03-.18-.03-.26,0-.14.03-.27.08-.38s.14-.21.24-.3c.1-.08.23-.15.38-.19.15-.04.32-.07.51-.07h1.11v-.43h-2.86v-.73h4.45v.73h-.75v1.13h-1.72c-.08,0-.15,0-.22.01-.07,0-.13.03-.18.05-.05.02-.1.06-.13.1-.03.04-.05.1-.05.18,0,.09.02.17.07.22.05.06.11.1.19.13s.17.05.28.06c.1.01.21.02.32.02.09,0,.18,0,.28,0,.1,0,.19-.01.29-.02s.19-.02.28-.03.17-.02.25-.04v.72c-.15.03-.31.05-.48.06-.17.02-.34.02-.51.02-.05,0-.1,0-.15,0-.05,0-.08,0-.11,0-.02.06-.04.12-.06.19s-.02.14-.02.23c0,.1.02.19.05.27.03.07.08.13.14.18.06.05.13.08.21.1.08.02.18.03.28.03.12,0,.25-.01.37-.04.12-.03.24-.06.35-.11.11-.04.22-.1.32-.15s.19-.12.27-.18v.91Z"/>
            <path class="cls-2" d="M43.06,10.74h-.76v4.12h-.91v-4.12h-.77v-.73h.78c-.13-.27-.19-.52-.19-.75,0-.17.03-.34.1-.49.07-.15.17-.29.31-.4.14-.11.32-.21.54-.27.22-.07.48-.1.79-.1.36,0,.71.05,1.03.15s.63.24.92.41.57.39.83.65c.26.25.51.53.75.84h-.83c-.08-.08-.18-.16-.28-.26-.11-.1-.23-.19-.36-.29-.13-.1-.27-.19-.43-.28-.15-.09-.31-.17-.48-.25s-.34-.13-.52-.17c-.18-.04-.37-.06-.55-.06-.16,0-.31.02-.43.05-.12.03-.22.08-.3.15-.08.06-.14.14-.17.22-.04.09-.06.18-.06.28,0,.09.01.18.04.28.03.09.07.19.13.3h.81v.73Z"/>
            <path class="cls-2" d="M44.19,13.15c-.08-.03-.16-.07-.23-.12-.07-.06-.13-.13-.19-.22-.05-.09-.1-.2-.13-.33-.03-.13-.05-.28-.05-.45v-1.28h-.78v-.73h4.76v.73h-.76v1.13c0,.19-.02.36-.06.5-.04.14-.1.27-.16.38-.07.11-.15.2-.24.27-.09.08-.19.14-.3.2s-.21.11-.33.15c-.11.04-.23.08-.34.12-.12.04-.23.08-.34.12s-.2.09-.28.14c-.08.06-.14.12-.19.2-.05.08-.07.17-.07.28s.03.22.08.31c.05.09.12.17.21.23.09.06.19.11.31.14s.24.05.38.05c.11,0,.23-.01.34-.03.12-.02.23-.05.34-.09s.23-.09.34-.14c.11-.05.22-.11.33-.17v.86c-.2.11-.4.19-.6.25-.2.05-.43.08-.67.08-.3,0-.57-.04-.81-.11-.24-.07-.45-.17-.62-.31s-.3-.29-.4-.47c-.09-.18-.14-.39-.14-.61,0-.13.01-.24.04-.35s.07-.21.13-.29c.05-.09.12-.16.19-.23.07-.07.15-.12.24-.16v-.02ZM45.6,12.56l-1.1-1.46h-.01v.87c0,.17.02.3.05.41.03.11.08.19.14.25.06.06.12.1.2.13.07.02.15.04.23.04.1-.03.19-.07.27-.1.08-.04.16-.07.22-.12h0ZM44.84,10.75l1.06,1.47h.01s.01-.05.01-.08,0-.06,0-.1v-1.3h-1.09Z"/>
          </g>
        </g>
        <g>
          <path class="cls-2" d="M73.5,36.61v-5.6h2.3c.5,0,.92.08,1.28.24s.63.39.82.68c.19.3.29.66.29,1.07s-.1.76-.29,1.06c-.19.3-.47.53-.82.69-.35.16-.78.24-1.28.24h-1.72l.46-.48v2.1h-1.04ZM74.54,34.62l-.46-.51h1.67c.46,0,.8-.1,1.04-.29.23-.19.35-.47.35-.82s-.12-.62-.35-.82c-.23-.2-.58-.29-1.04-.29h-1.67l.46-.51v3.25Z"/>
          <path class="cls-2" d="M81.04,36.66c-.43,0-.82-.09-1.16-.28-.34-.19-.62-.45-.81-.78-.2-.33-.3-.71-.3-1.13s.1-.81.3-1.14c.2-.33.47-.58.81-.77.34-.19.73-.28,1.17-.28s.84.09,1.18.28.61.45.81.77c.19.33.29.7.29,1.14s-.1.8-.29,1.13c-.2.33-.47.59-.81.78-.35.19-.74.28-1.18.28ZM81.04,35.81c.25,0,.46-.05.66-.16.19-.11.34-.27.45-.47s.16-.44.16-.71-.05-.51-.16-.71-.26-.35-.45-.46c-.19-.11-.41-.16-.65-.16s-.46.05-.65.16c-.19.11-.34.26-.46.46-.11.2-.17.44-.17.71s.06.5.17.71c.11.21.26.36.46.47.19.11.41.16.64.16Z"/>
          <path class="cls-2" d="M85.1,36.61l-1.57-4.27h.94l1.35,3.77h-.46l1.41-3.77h.84l1.38,3.77h-.45l1.38-3.77h.89l-1.58,4.27h-.96l-1.24-3.34h.29l-1.27,3.34h-.96Z"/>
          <path class="cls-2" d="M93.4,36.66c-.47,0-.89-.09-1.24-.28-.35-.19-.63-.45-.82-.78-.19-.33-.29-.71-.29-1.13s.09-.8.28-1.13c.19-.33.45-.59.78-.78s.71-.28,1.14-.28.79.09,1.11.28c.33.18.58.44.77.77.19.33.28.72.28,1.18,0,.04,0,.08,0,.14s0,.11-.01.15h-3.56v-.66h3.03l-.4.21c0-.24-.04-.45-.15-.64-.1-.19-.25-.34-.43-.44-.18-.1-.4-.16-.64-.16s-.45.05-.64.16c-.19.1-.33.25-.44.44-.1.19-.15.41-.15.66v.16c0,.26.06.48.17.68.11.2.28.35.49.46.21.11.46.16.74.16.24,0,.46-.04.65-.12s.36-.2.51-.35l.54.62c-.2.22-.44.39-.73.51-.29.12-.62.18-1,.18Z"/>
          <path class="cls-2" d="M96.37,36.61v-4.27h.95v1.18l-.11-.34c.12-.29.32-.51.6-.66.28-.15.62-.23,1.02-.23v.95s-.08,0-.11-.01-.07,0-.1,0c-.38,0-.69.11-.91.33-.22.22-.34.55-.34,1v2.06h-.99Z"/>
          <path class="cls-2" d="M101.65,36.66c-.47,0-.89-.09-1.24-.28-.35-.19-.63-.45-.82-.78-.19-.33-.29-.71-.29-1.13s.09-.8.28-1.13c.19-.33.45-.59.78-.78s.71-.28,1.14-.28.79.09,1.11.28c.33.18.58.44.77.77.19.33.28.72.28,1.18,0,.04,0,.08,0,.14s0,.11-.01.15h-3.56v-.66h3.03l-.4.21c0-.24-.04-.45-.15-.64-.1-.19-.25-.34-.43-.44-.18-.1-.4-.16-.64-.16s-.45.05-.64.16c-.19.1-.33.25-.44.44-.1.19-.15.41-.15.66v.16c0,.26.06.48.17.68.11.2.28.35.49.46.21.11.46.16.74.16.24,0,.46-.04.65-.12s.36-.2.51-.35l.54.62c-.2.22-.44.39-.73.51-.29.12-.62.18-1,.18Z"/>
          <path class="cls-2" d="M106.43,36.66c-.41,0-.78-.09-1.11-.27-.33-.18-.59-.44-.77-.76-.19-.33-.28-.71-.28-1.16s.09-.82.28-1.15c.19-.33.44-.59.77-.77.33-.18.7-.27,1.11-.27.36,0,.68.08.96.24.28.16.51.4.67.72.17.32.25.73.25,1.24s-.08.91-.24,1.23c-.16.33-.38.57-.66.72-.28.16-.61.24-.98.24ZM106.55,35.81c.24,0,.46-.05.64-.16.19-.11.34-.27.46-.47.12-.21.17-.44.17-.71s-.06-.51-.17-.71c-.11-.2-.27-.35-.46-.46-.19-.11-.4-.16-.64-.16s-.46.05-.64.16c-.19.11-.34.26-.46.46-.12.2-.17.44-.17.71s.06.5.17.71c.11.21.27.36.46.47.19.11.4.16.64.16ZM107.85,36.61v-1.01l.02-1.14-.08-1.14v-2.66h1.01v5.94h-.95Z"/>
          <path class="cls-2" d="M112.33,36.61v-5.94h.99v2.66l-.08,1.14.04,1.14v1.01h-.95ZM114.69,36.66c-.36,0-.68-.08-.97-.24s-.51-.4-.67-.72-.24-.74-.24-1.23.08-.91.25-1.24c.17-.32.39-.56.67-.72.28-.16.6-.24.95-.24.42,0,.79.09,1.11.27.33.18.58.44.77.77.19.33.28.71.28,1.15s-.09.83-.28,1.16c-.19.33-.45.58-.77.76s-.7.27-1.11.27ZM114.57,35.81c.25,0,.46-.05.65-.16s.34-.27.45-.47c.11-.21.17-.44.17-.71s-.06-.51-.17-.71c-.11-.2-.26-.35-.45-.46s-.41-.16-.65-.16-.45.05-.64.16c-.19.11-.34.26-.46.46-.11.2-.17.44-.17.71s.06.5.17.71c.11.21.26.36.46.47.19.11.41.16.64.16Z"/>
          <path class="cls-2" d="M118.05,38.21c-.21,0-.42-.04-.63-.1s-.38-.17-.51-.29l.39-.73c.1.08.21.15.34.21.13.05.26.08.4.08.18,0,.33-.05.44-.14.11-.09.22-.25.31-.46l.24-.54.1-.13,1.61-3.78h.96l-2,4.62c-.13.32-.28.56-.44.75-.16.18-.34.32-.54.39s-.42.12-.65.12ZM118.93,36.76l-1.93-4.42h1.03l1.58,3.69-.68.74Z"/>
        </g>
        <path class="cls-3" d="M135.52,6.93h149.16v54.63h-149.16c-5.09,0-9.23-4.14-9.23-9.23V16.16c0-5.09,4.14-9.23,9.23-9.23Z"/>
        <g>
          <g id="Layer_1" data-name="Layer 1">
            <path class="cls-15" d="M192.82,45.24h-3.87l-2.93-4.69h-2.78l.13,4.69h-3.15v-14.38h6.52c4.04,0,5.53,1.7,5.53,4.8,0,2.18-1.05,3.75-2.96,4.39l3.52,5.19ZM183.37,33.57v4.18h3.6c1.45,0,2.17-.84,2.17-2.22,0-1.3-.74-1.96-2.21-1.96h-3.55Z"/>
            <path class="cls-15" d="M195.83,43.77c-1.12-1.06-1.73-2.55-1.7-4.09-.03-1.55.59-3.04,1.7-4.11,1.06-1.02,2.57-1.63,4.44-1.63,1.6-.03,3.13.6,4.25,1.74,1.11,1.04,1.72,2.49,1.68,4.01,0,1.71-.53,3.07-1.59,4.09-1.19,1.14-2.79,1.75-4.43,1.71-1.62.04-3.2-.57-4.36-1.71ZM200.24,42.71c.78-.01,1.52-.33,2.06-.89.44-.51.7-1.13.7-2.15,0-2.04-1.29-3.03-2.79-3.03s-2.87,1-2.87,3.03c-.02.82.27,1.62.81,2.24.44.51,1.35.8,2.08.8Z"/>
            <path class="cls-15" d="M218.62,35.67c.85,1.06,1.27,2.58,1.27,4.23s-.42,2.99-1.27,4.05c-.85,1.08-2.08,1.61-3.64,1.61-1.38.03-2.69-.58-3.55-1.65l-.18,1.32-2.77.03v-15.15l3.12-.02v5.42c.84-.85,2.12-1.63,3.34-1.63,1.44,0,2.8.65,3.69,1.77ZM216.94,39.83c0-1.93-1.19-3.16-2.69-3.16s-2.66,1.1-2.66,3.03.99,3.13,2.49,3.13,2.86-1.05,2.86-3.01Z"/>
            <path class="cls-15" d="M223.64,43.8c-1.06-1.02-1.9-2.38-1.9-4.09s.84-3.07,1.9-4.11c1.06-1.02,2.21-1.53,4.08-1.53s3.65.51,4.71,1.53c1.06,1.04,1.59,2.4,1.59,4.11s-.53,3.07-1.59,4.09c-1.06,1.04-2.51,1.55-4.38,1.55s-3.35-.51-4.41-1.55ZM228.05,42.74c.67.02,1.32-.26,1.75-.77.59-.61.94-1.41.97-2.26,0-2.04-1.25-3.03-2.74-3.03s-2.89,1-2.89,3.03c0,1.02.57,1.79,1.01,2.3.5.5,1.2.77,1.91.73Z"/>
            <path class="cls-17" d="M243.69,36.85l5.94,8.37h-3.77l-4.52-6.1-1.58,1.72v4.38l-3.2-.04.11-14.4,2.88-.03-.04,6.23,5.82-6.21h4.32l-5.97,6.08ZM236.56,45.18l.11-14.4,2.88-.03"/>
            <path class="cls-1" d="M260.64,38.28v7.03h-3.02v-1.33c-1.01,1.02-2.18,1.31-3.62,1.31-1.97,0-3.42-1.15-3.42-3.18s1.61-3.68,3.94-3.68l3.1.48v-.33c0-1.24-.81-1.87-2.13-1.87-1.06.02-2.2-.04-3.23.63l-.79-2.44c1.54-.98,3.12-.84,4.78-.86,2.6,0,4.4,1.45,4.4,4.23ZM257.62,40.66l-2.13-.34c-1.24,0-1.93.39-1.93,1.46s.7,1.45,1.7,1.45c.91,0,1.73-.58,2.36-1.08v-1.5Z"/>
            <path class="cls-8" d="M270.08,37.19c-1.89,0-2.4.46-2.87,1.25-.2.33-.35.62-.64,1.17v5.55h-3.02v-10.88h3.02v2.02c1.08-1.41,1.12-2.28,3.51-2.36v3.25Z"/>
            <path class="cls-7" d="M275.75,34.19l2.41-.04v2.73l-2.45-.02v4.29c0,1.11.2,1.52,1.15,1.52.48.02.96-.11,1.37-.36l.03,2.44c-.68.45-1.5.68-2.32.63-.99.02-1.82-.17-2.49-.82-.67-.67-.9-1.61-.9-2.83v-4.85l-1.29-.03v-2.73l1.29.03v-2.84s3.18.04,3.18.04v2.84Z"/>
            <path class="cls-15" d="M181.04,53.78c-.27-.09-.51-.24-.7-.44l.18-.38c.18.18.4.32.64.41.26.1.54.16.82.16.31.02.63-.06.89-.23.19-.14.3-.36.3-.6,0-.17-.05-.33-.16-.45-.11-.11-.25-.2-.39-.26-.21-.08-.43-.14-.65-.2-.27-.07-.54-.16-.8-.26-.2-.08-.37-.21-.51-.38-.15-.2-.23-.44-.21-.69-.01-.48.28-.93.72-1.11.29-.12.6-.18.91-.17.25,0,.5.04.74.11.23.07.44.17.63.31l-.16.4c-.18-.13-.38-.23-.59-.29-.2-.06-.41-.1-.62-.1-.31-.02-.62.06-.88.24-.19.15-.3.37-.29.61,0,.17.05.33.16.45.11.12.25.21.4.26.16.06.38.13.65.2.27.07.53.15.79.25.2.08.37.21.51.38.15.2.22.44.21.68,0,.23-.06.45-.18.65-.13.21-.33.37-.55.46-.29.12-.6.18-.92.17-.32,0-.64-.06-.95-.17Z"/>
            <path class="cls-15" d="M189.59,50.73c.27.31.4.72.37,1.12v1.91h-.55s0-1.85,0-1.85c0-.37.01-.66-.16-.85-.19-.2-.46-.31-.74-.29-.32-.02-.63.11-.85.34-.21.23-.16.55-.16.95v1.72h-.53s.03-4.61.03-4.61h.37l-.03,1.83c.12-.2.3-.37.51-.48.23-.12.48-.17.74-.17.37-.02.73.12,1,.39Z"/>
            <path class="cls-15" d="M195.67,50.69c.25.28.38.65.35,1.02v2.19h-.43v-.55c-.1.18-.26.33-.45.43-.22.11-.46.16-.7.15-.32.02-.63-.08-.89-.28-.41-.38-.44-1.01-.06-1.43.01-.02.03-.03.04-.04.28-.21.63-.31.98-.27h1.06v-.22c.02-.25-.07-.51-.24-.69-.19-.17-.45-.26-.7-.24-.21,0-.41.04-.61.11-.18.07-.35.17-.5.31l-.2-.36c.18-.16.38-.28.61-.35.24-.08.49-.13.75-.12.37-.02.73.1,1,.34ZM195.17,53.38c.19-.13.33-.32.4-.53v-.58h-1.04c-.57,0-.85.21-.85.63,0,.19.07.37.22.49.18.13.4.19.62.18.23,0,.46-.06.65-.18h0Z"/>
            <path class="cls-15" d="M200.48,50.53c.24-.13.5-.19.77-.18v.46h-.11c-.31-.02-.61.1-.82.34-.21.27-.32.61-.3.96v1.8h-.45v-3.53h.43v.69c.09-.23.26-.41.47-.54Z"/>
            <path class="cls-15" d="M207.27,52.29h-2.78c.01.34.15.66.4.89.25.23.57.35.91.34.2,0,.39-.04.57-.12.17-.08.33-.2.45-.35l.25.31c-.15.19-.34.33-.55.43-.23.1-.48.15-.73.15-.32,0-.63-.07-.91-.23-.26-.15-.47-.37-.62-.64-.15-.29-.23-.6-.22-.93,0-.32.07-.64.21-.93.13-.26.33-.48.58-.64.25-.15.54-.23.83-.23.29,0,.58.08.83.23.25.15.45.37.58.63.14.29.21.61.21.93v.15ZM204.86,51.08c-.22.23-.35.53-.37.85h2.36c-.02-.32-.15-.62-.37-.85-.45-.43-1.17-.43-1.62,0h0Z"/>
            <path class="cls-15" d="M219.7,50.5l-1.17,3.25h-.42l-.9-2.55-.85,2.55h-.42l-1.22-3.25h.42l1.02,2.88.85-2.88h.38l.86,2.88,1.03-2.88h.4Z"/>
            <path class="cls-15" d="M225.55,50.73c.26.31.39.72.36,1.12v2.05h-.44v-2c.02-.3-.07-.6-.25-.84-.19-.2-.45-.31-.73-.29-.31-.02-.62.11-.83.34-.22.26-.33.6-.31.94v1.85h-.44v-4.98h.44v2.07c.12-.2.29-.37.5-.48.22-.11.47-.17.72-.17.37-.02.72.12.97.39Z"/>
            <path class="cls-15" d="M231.64,50.7c.23.24.35.57.31.9l-.02,2.15h-.36s.02-.52.02-.52c-.12.19-.3.34-.5.44-.21.11-.45.16-.68.15-.31.02-.62-.08-.87-.28-.41-.39-.43-1.04-.04-1.45,0,0,.01-.02.02-.02.27-.21.62-.3.96-.27h1.04v-.21c.03-.21-.04-.42-.2-.57-.19-.17-.44-.26-.69-.24-.2,0-.41.04-.6.11-.19.07-.32.12-.47.18l-.1-.39c.19-.07.24-.11.47-.19.24-.08.48-.13.73-.12.36-.02.71.1.98.34ZM231.1,53.26c.18-.13.32-.32.4-.53v-.58h-1.02c-.56,0-.84.21-.84.63,0,.19.07.37.22.49.18.13.39.19.61.18.23,0,.45-.06.64-.18h0Z"/>
            <path class="cls-15" d="M237.37,53.69c-.09.08-.19.15-.31.18-.12.04-.25.06-.38.06-.26.02-.52-.08-.71-.27-.18-.21-.27-.48-.25-.76v-2.14h-.58v-.4h.58v-.77h.44v.77h.99v.4h-.99v2.11c-.01.17.04.34.15.48.11.11.26.17.42.16.09,0,.18-.02.26-.05.08-.03.16-.08.22-.13l.16.34Z"/>
            <path class="cls-15" d="M248.05,50.32l-1.69,3.65c-.1.27-.26.51-.47.7-.19.14-.41.21-.65.21-.16,0-.31-.03-.45-.08-.14-.05-.26-.13-.37-.24l.21-.36c.16.17.38.27.62.27.14,0,.28-.04.39-.13.14-.13.24-.28.31-.46l.15-.34-1.51-3.22h.47l1.27,2.7,1.27-2.7h.45Z"/>
            <path class="cls-15" d="M251.47,53.65c-.26-.15-.47-.38-.62-.64-.3-.58-.3-1.27,0-1.85.14-.27.36-.49.62-.64.55-.3,1.21-.3,1.76,0,.26.15.47.37.61.64.3.58.3,1.27,0,1.85-.14.27-.35.49-.61.64-.54.31-1.21.31-1.76,0ZM252.99,53.29c.19-.12.35-.29.45-.49.21-.46.21-.98,0-1.44-.1-.2-.25-.37-.45-.49-.4-.23-.89-.23-1.29,0-.19.12-.35.29-.45.49-.22.45-.22.98,0,1.44.1.2.26.37.45.49.4.23.89.23,1.29,0Z"/>
            <path class="cls-15" d="M260.39,50.32v3.53h-.44v-.64c-.11.21-.29.38-.49.5-.22.12-.47.18-.72.18-.39.02-.76-.12-1.04-.39-.27-.31-.41-.72-.38-1.13v-2.05h.45v2c-.02.31.07.61.26.85.2.2.47.31.75.29.32.02.62-.11.84-.34.22-.26.33-.6.31-.94v-1.85h.46Z"/>
            <path class="cls-15" d="M271.43,49.17v4.68h-.44v-.7c-.13.23-.31.42-.54.54-.23.13-.49.19-.76.19-.3,0-.6-.08-.86-.23-.26-.15-.47-.37-.6-.64-.29-.59-.29-1.28,0-1.87.14-.26.35-.48.6-.63.26-.15.56-.23.86-.22.26,0,.51.06.74.18.22.12.41.3.54.52v-1.82s.46,0,.46,0ZM270.36,53.29c.19-.12.35-.29.45-.49.22-.45.22-.98,0-1.44-.1-.2-.26-.37-.45-.49-.4-.23-.89-.23-1.28,0-.19.12-.35.29-.45.49-.22.45-.22.98,0,1.44.1.2.26.37.45.49.4.23.89.23,1.28,0Z"/>
            <path class="cls-15" d="M275.54,53.65c-.26-.15-.47-.38-.62-.64-.3-.58-.3-1.27,0-1.85.14-.27.36-.49.62-.64.55-.3,1.21-.3,1.76,0,.26.15.47.37.61.64.29.58.29,1.27,0,1.85-.14.27-.35.49-.61.64-.54.31-1.21.31-1.76,0ZM277.06,53.29c.19-.12.35-.29.45-.49.21-.45.21-.98,0-1.44-.1-.2-.25-.37-.45-.49-.4-.23-.89-.23-1.29,0-.19.12-.35.29-.45.49-.22.45-.22.98,0,1.44.1.2.26.37.45.49.4.23.89.23,1.29,0Z"/>
          </g>
          <g id="Layer_4" data-name="Layer 4">
            <path class="cls-9" d="M153.89,12.1c.43.17.84.4,1.2.69,1.25,1.06,1.41,2.93.35,4.18-.15.18-.33.34-.52.48l-.41.3v2.7c.34.01.66.02.99.04.35,0,.7.03,1.05.09.73.15,1.23.81,1.2,1.55,0,.16,0,.33,0,.52,1.62.84,3,2.08,3.99,3.61,1.01,1.54,1.47,3.24,1.69,5.09.35.01.67.02,1,.03.64.03,1.29.06,1.93.1.68.04,1.15.92.91,1.5-.23.56-.46,1.11-.71,1.66-.36.8-.74,1.59-1.13,2.44.93.59,1.71,1.38,2.29,2.32.52.95.85,2,.97,3.07.2.11.38.21.55.32,1.63,1.02,2.13,3.17,1.11,4.8-.08.13-.17.26-.27.38-.15.19-.33.34-.59.24-.22-.08-.36-.31-.34-.54.02-.14.01-.29-.02-.43-.06-.24-.18-.45-.35-.63-.36-.25-.74-.47-1.13-.66-.25-.12-.55-.1-.78.06-.27.15-.54.32-.81.47-.35.17-.56.52-.55.91,0,.29.05.59-.22.81-.3.12-.49,0-.69-.24-1.22-1.49-1.01-3.69.48-4.92.11-.09.23-.17.35-.25.14-.09.28-.17.46-.28-.08-1.15-.67-2.21-1.61-2.89-.3.63-.58,1.22-.86,1.82-.58,1.27-1.14,2.54-1.74,3.81-.49,1.15-1.63,1.89-2.88,1.85-3.88.03-7.77.03-11.65,0-1.23.04-2.36-.68-2.84-1.82-.77-1.64-1.5-3.29-2.25-4.94-.14-.3-.29-.6-.43-.89-1.05.25-1.83,1.52-2.03,3.02.43.27.84.59,1.2.95,1.08,1.1,1.1,3.13.15,4.38-.06.08-.14.15-.21.23-.15.17-.35.3-.55.17-.14-.11-.23-.28-.23-.45.05-.76-.35-1.18-.98-1.5-.96-.48-.96-.49-1.88.07-.12.08-.25.15-.37.24-.26.17-.39.47-.33.78.03.17.02.35,0,.53-.13.47-.62.54-.96.18-.51-.54-.81-1.23-.85-1.97-.13-1.37.55-2.68,1.75-3.36.07-.04.15-.08.22-.12s.14-.09.24-.15c.25-2.45,1.42-4.33,3.65-5.56-.19-.43-.34-.84-.53-1.23-.31-.66-.64-1.31-.97-1.96-.65-1.27-1.72-1.87-3.12-1.95-.37,0-.75-.04-1.12-.1-.72-.15-1.06-.69-1-1.49.07-.62.58-1.11,1.21-1.14,2-.09,3.79.42,5.28,1.82.16.17.31.35.45.53h1.92c.37-3.88,2.23-6.78,5.65-8.7,0-.16.02-.32.02-.49-.03-.89.66-1.63,1.55-1.67.04,0,.07,0,.11,0,.58-.02,1.17,0,1.73,0,.16-.45.2-1.77.1-2.69-.35-.31-.69-.64-1-.99-1.21-1.6-.62-3.7.9-4.4.23-.12.47-.22.71-.29.51-.15,1.06-.15,1.57,0ZM152.95,24.84h-4.07c-1.53.02-2.76,1.29-2.73,2.82,0,.26.04.51.12.75.43,1.51,2,2.38,3.5,1.95.38-.11.74-.3,1.04-.55.25-.19.48-.4.73-.59.83-.7,2.05-.7,2.88,0,.23.17.45.37.68.54.71.6,1.68.82,2.58.58,1.5-.39,2.41-1.92,2.02-3.43-.32-1.22-1.41-2.09-2.68-2.11-1.36.04-2.71.01-4.07.01ZM142.58,34.13s-.17,0-.38,0c.12.29.07.19.17.41.2.46.31.67.53,1.17h20.15c.23-.51.42-1.02.65-1.6M144.17,38.5l.7,1.58h16.17c.22-.54.43-1.04.66-1.6M146.85,44.3h11.41c.46,0,.59,0,.84-.01.21-.47.45-.88.68-1.39h-13.51M153.14,16.11c.55.09,1.1-.65,1.08-1.07-.05-.58-.51-1.03-1.09-1.06-.59-.01-1.08.45-1.09,1.04-.01.59.45,1.08,1.04,1.09.02,0,.04,0,.06,0Z"/>
            <path class="cls-16" d="M160.23,50.79c.09,1.52-1.24,3.13-3.13,3.13-1.73,0-3.13-1.41-3.13-3.14,0-1.73,1.41-3.13,3.14-3.13,1.69-.02,3.21,1.45,3.12,3.14ZM158.35,50.76c-.06-.67-.61-1.19-1.28-1.21-.64.09-1.14.62-1.18,1.27.04.65.56,1.17,1.22,1.2.67-.04,1.21-.58,1.24-1.26h0Z"/>
            <path class="cls-13" d="M151.78,50.85c.09,1.75-1.58,3.1-3.07,3.07-1.72.01-3.12-1.37-3.13-3.09-.01-1.72,1.37-3.12,3.09-3.13,1.85-.03,3.23,1.57,3.11,3.15ZM147.54,50.8c-.04.63.44,1.18,1.07,1.22.02,0,.04,0,.06,0,.68,0,1.23-.53,1.25-1.21-.03-.67-.57-1.2-1.23-1.24-.65.02-1.16.57-1.14,1.22h0Z"/>
            <path class="cls-11" d="M148.9,28.88c-.67.03-1.24-.49-1.27-1.16,0-.02,0-.04,0-.06-.04-.68.47-1.26,1.15-1.31.01,0,.03,0,.04,0,.71,0,1.3.56,1.34,1.27-.02.69-.58,1.24-1.27,1.26Z"/>
            <path class="cls-14" d="M156.8,28.88c-.67.03-1.24-.49-1.27-1.16,0-.02,0-.04,0-.06-.04-.68.47-1.26,1.15-1.31.01,0,.03,0,.04,0,.71,0,1.3.56,1.34,1.27-.02.69-.58,1.24-1.27,1.26Z"/>
          </g>
        </g>
      </g>
    </g>
  </g>
</svg>