<svg xmlns="http://www.w3.org/2000/svg" viewBox="0 0 428.34 382.65"><g id="OBJECTS"><path d="M36.29,287.26c-4.64-17.32,27.05-37.79,54.46-51.91,37.74-19.44,89.7-38.5,146.3-53.67S348.19,157,390.59,155c30.8-1.48,68.48.4,73.12,17.73L458.88,174c-2.86-10.69-28.3-15.93-68.05-14-42.06,2-96.21,11.43-152.48,26.51S130.47,220.51,93,239.8C57.66,258,38.25,275.28,41.12,286Z" transform="translate(-35.83 -32.94)" style="fill:#f7d546"/><path d="M434.66,140.11a6.17,6.17,0,0,0,0-12.34,6.3,6.3,0,0,0-2.09.38,6.91,6.91,0,0,0-9.23-.46,8.58,8.58,0,0,0-12.5-3.32,12.49,12.49,0,0,0-21-5.49,16.59,16.59,0,0,0-32.22,1.44,11.71,11.71,0,0,0-20.2,8.07c0,.11,0,.22,0,.33h0a5.7,5.7,0,1,0,0,11.4Z" transform="translate(-35.83 -32.94)" style="fill:#01a7e3;opacity:0.25"/><path d="M306.64,99.62a3.1,3.1,0,1,0,0-6.19,3,3,0,0,0-1,.19,3.52,3.52,0,0,0-2.46-1,3.47,3.47,0,0,0-2.18.78A4.29,4.29,0,0,0,297.11,91a4.35,4.35,0,0,0-2.42.74A6.26,6.26,0,0,0,284.15,89a8.33,8.33,0,0,0-16.17.72,5.87,5.87,0,0,0-10.13,4,.86.86,0,0,0,0,.16h0a2.86,2.86,0,0,0,0,5.72Z" transform="translate(-35.83 -32.94)" style="fill:#01a7e3;opacity:0.25"/><path d="M135.75,265.65a3.1,3.1,0,0,0,0-6.2,3,3,0,0,0-1,.2,3.52,3.52,0,0,0-2.46-1,3.47,3.47,0,0,0-2.18.78,4.3,4.3,0,0,0-6.27-1.67A6.26,6.26,0,0,0,113.26,255a8.33,8.33,0,0,0-16.17.72,5.87,5.87,0,0,0-10.13,4,.92.92,0,0,0,0,.16h0a2.86,2.86,0,0,0,0,5.72Z" transform="translate(-35.83 -32.94)" style="fill:#01a7e3;opacity:0.25"/><path d="M165.61,185.69a4.77,4.77,0,1,0,0-9.53,4.52,4.52,0,0,0-1.61.3,5.39,5.39,0,0,0-3.78-1.56,5.31,5.31,0,0,0-3.35,1.2,6.62,6.62,0,0,0-9.66-2.57A9.65,9.65,0,0,0,131,169.29a12.82,12.82,0,0,0-24.89,1.11,9,9,0,0,0-15.61,6.24,2.29,2.29,0,0,0,0,.25h0a4.4,4.4,0,0,0,0,8.8Z" transform="translate(-35.83 -32.94)" style="fill:#01a7e3;opacity:0.25"/><circle cx="83.45" cy="58.35" r="58.35" style="fill:#f7d546;opacity:0.1"/><circle cx="83.45" cy="58.35" r="46.12" style="fill:#f7d546;opacity:0.2"/><circle cx="119.28" cy="91.29" r="35.18" transform="translate(-53.38 -3.62) rotate(-13.06)" style="fill:#f7d546"/><path d="M238.45,217.42l-1.36,4.09v81.32a.68.68,0,0,1-.7.7h-8.33l-.07,0H197.18l-.07,0h-70a.69.69,0,0,1-.7-.7V221.57l-1.3-2.56c-4.4-4.57-2.07-12.67,1.48-16.29,3.23-3.27,7.26-7.27,8.21-8.21V191.3h-.7a.7.7,0,0,1,0-1.4h.7v-.7a.7.7,0,0,1,1.4,0v.7h.7a.7.7,0,1,1,0,1.4h-.7v3.21c.84.82,4.07,4,7,7v-.95L142,198c-4.43-4.64-.67-14.05,2.9-17.68,3.27-3.33,8.53-8.54,9.61-9.61v-3.21h-.7a.7.7,0,0,1,0-1.4h.7v-.7a.7.7,0,1,1,1.4,0v.7h.7a.7.7,0,1,1,0,1.4h-.7v3.21c1.07,1.07,6.33,6.28,9.6,9.61a14.53,14.53,0,0,1,1.6,2v-4l-2.59-2.59a.7.7,0,0,1,.49-1.2h3.91l-1.6-1.61a.67.67,0,0,1-.15-.76.69.69,0,0,1,.64-.43h3.69l6.82-23.21V145.4a6.28,6.28,0,0,1,2.8-11.47v-9.17a.7.7,0,1,1,1.4,0v9.17a6.28,6.28,0,0,1,2.8,11.47v3.08l5.46,23.2h5a.7.7,0,0,1,.65.43.67.67,0,0,1-.15.76l-1.6,1.61h3.91a.7.7,0,0,1,.49,1.2l-2.59,2.59v19c.65-.66,1.16-1.15,1.42-1.41V192.7h-.7a.7.7,0,0,1,0-1.4h.7v-.7a.7.7,0,1,1,1.4,0v.7H200a.7.7,0,0,1,0,1.4h-.71v3.21c1,.94,5,4.94,8.21,8.21,2.73,2.78,3.9,8,2.43,12.38h4.74V203.36l-1.24-2.58c-4.4-4.52-3.57-12.58.08-16.29,3.21-3.26,7.26-7.27,8.21-8.2v-3.21H221a.7.7,0,0,1,0-1.4h.7V171a.7.7,0,0,1,1.4,0v.7h.7a.7.7,0,1,1,0,1.4h-.7v3.21c1,.93,5,4.94,8.19,8.2a12.15,12.15,0,0,1,3.09,8.38,11.21,11.21,0,0,1-3.09,8l-1.23,2.47V216.5h7.7a.73.73,0,0,1,.58.29A.67.67,0,0,1,238.45,217.42Z" transform="translate(-35.83 -32.94)" style="fill:#007a9b"/><polygon points="245 234.82 245 163.65 238.95 163.65 238.95 150.03 235.92 150.03 235.92 137.92 229.87 137.92 229.87 91 229.87 65.27 223.81 91 214.73 107.65 214.73 137.92 205.65 137.92 205.65 172.74 199.6 172.74 199.6 271.14 216.25 271.14 223.81 271.14 223.81 234.82 231.38 234.82 231.38 234.82 223.81 234.82 223.81 271.14 245 271.14 245 234.82 245 234.82" style="fill:#f9713d"/><polygon points="125.37 259.33 200.03 150.72 274.7 259.33 125.37 259.33" style="fill:#007a9b"/><polygon points="332.6 207.99 324.92 114.18 324.91 114.18 312.61 94.95 300.31 114.18 292.62 207.99 288 217.22 288 223.37 337.22 223.37 337.22 217.22 332.6 207.99" style="fill:#007a9b"/><rect x="158.09" y="79.24" width="12.49" height="23.6" style="fill:#d6d6d6"/><rect x="165.03" y="57.03" width="24.99" height="5.55" style="fill:#d6d6d6"/><rect x="167.8" y="51.47" width="19.44" height="5.56" style="fill:#e8e8e8"/><polygon points="183.08 51.47 171.97 51.47 177.52 4.27 183.08 51.47" style="fill:#d6d6d6"/><rect x="184.46" y="79.24" width="12.5" height="23.6" style="fill:#d6d6d6"/><polygon points="192.79 62.58 192.79 79.24 184.46 79.24 184.46 102.84 170.58 102.84 170.58 79.24 162.25 79.24 162.25 62.58 192.79 62.58" style="fill:#e8e8e8"/><rect x="171.97" y="102.84" width="11.11" height="170.48" style="fill:#d6d6d6"/><rect x="155.31" y="102.84" width="16.66" height="170.48" style="fill:#e8e8e8"/><rect x="183.08" y="102.84" width="16.66" height="170.48" style="fill:#e8e8e8"/><rect x="158.82" y="105.62" width="1.3" height="167.7" style="fill:#aaa"/><rect x="162.99" y="105.62" width="1.3" height="167.7" style="fill:#aaa"/><rect x="167.15" y="105.62" width="1.3" height="167.7" style="fill:#aaa"/><rect x="161.6" y="83.41" width="1.3" height="19.44" style="fill:#aaa"/><rect x="165.76" y="83.41" width="1.3" height="19.44" style="fill:#aaa"/><rect x="176.87" y="66.74" width="1.31" height="206.57" style="fill:#aaa"/><rect x="167.15" y="66.74" width="1.3" height="12.5" style="fill:#aaa"/><rect x="194.92" y="105.62" width="1.3" height="167.7" style="fill:#aaa"/><rect x="190.75" y="105.62" width="1.3" height="167.7" style="fill:#aaa"/><rect x="186.58" y="105.62" width="1.3" height="167.7" style="fill:#aaa"/><rect x="192.14" y="83.41" width="1.3" height="19.44" style="fill:#aaa"/><rect x="187.97" y="83.41" width="1.3" height="19.44" style="fill:#aaa"/><rect x="186.58" y="66.74" width="1.3" height="12.5" style="fill:#aaa"/><line x1="214.25" y1="76.62" x2="214.25" y2="87.35" style="fill:none;stroke:#aaa;stroke-linecap:round;stroke-linejoin:round;stroke-width:2px"/><path d="M250.08,124.88" transform="translate(-35.83 -32.94)" style="fill:#aaa"/><path d="M250.08,124.88" transform="translate(-35.83 -32.94)" style="fill:#aaa"/><path d="M250.08,124.88" transform="translate(-35.83 -32.94)" style="fill:#aaa"/><path d="M250.08,124.88" transform="translate(-35.83 -32.94)" style="fill:#aaa"/><path d="M239.35,205.11c.79-5.09,1.65-11.79,2.51-19.15,0-.11,0-.24,0-.37v0c.61-5.09,1.19-10.48,1.74-15.89.11-.75.17-1.52.26-2.28.49-4.8,1-9.57,1.44-14.06.13-1.37.26-2.7.39-4,.45-4.6.83-8.81,1.18-12.37.19-2.15.36-4.06.51-5.67.32-3.54.52-5.62.52-5.62h2.14" transform="translate(-35.83 -32.94)" style="fill:none;stroke:#aaa;stroke-linecap:round;stroke-linejoin:round;stroke-width:1.5px"/><path d="M260.82,205.11c-1.07-6.94-2.28-16.81-3.44-27.27,0-.45-.08-.9-.15-1.35v0c-.53-5-1.07-10-1.56-14.95-.11-1.07-.22-2.12-.35-3.18-.45-4.66-.88-9.12-1.28-13.18-.16-1.7-.31-3.33-.48-4.87-.45-4.94-.81-9-1.05-11.53-.17-2-.28-3.09-.28-3.09h-2.15" transform="translate(-35.83 -32.94)" style="fill:none;stroke:#aaa;stroke-linecap:round;stroke-linejoin:round;stroke-width:1.5px"/><polyline points="206.03 153.02 223.51 161.52 203.7 170.95" style="fill:none;stroke:#aaa;stroke-linecap:round;stroke-linejoin:round;stroke-width:1.5px"/><polyline points="221.55 144.9 206.07 152.63 206.07 152.65" style="fill:none;stroke:#aaa;stroke-linecap:round;stroke-linejoin:round;stroke-width:1.5px"/><polyline points="221.4 143.55 221.4 143.53 207.81 136.74" style="fill:none;stroke:#aaa;stroke-linecap:round;stroke-linejoin:round;stroke-width:1.5px"/><line x1="219.83" y1="128.58" x2="208.07" y2="134.47" style="fill:none;stroke:#aaa;stroke-linecap:round;stroke-linejoin:round;stroke-width:1.5px"/><line x1="219.49" y1="125.41" x2="209.51" y2="120.4" style="fill:none;stroke:#aaa;stroke-linecap:round;stroke-linejoin:round;stroke-width:1.5px"/><line x1="217.73" y1="107.35" x2="211.26" y2="102.04" style="fill:none;stroke:#aaa;stroke-linecap:round;stroke-linejoin:round;stroke-width:1.5px"/><line x1="218.02" y1="110.23" x2="209.89" y2="116.39" style="fill:none;stroke:#aaa;stroke-linecap:round;stroke-linejoin:round;stroke-width:1.5px"/><line x1="216.68" y1="95.82" x2="211.59" y2="98.35" style="fill:none;stroke:#aaa;stroke-linecap:round;stroke-linejoin:round;stroke-width:1.5px"/><polyline points="222.47 153.02 204.99 161.52 224.8 170.95" style="fill:none;stroke:#aaa;stroke-linecap:round;stroke-linejoin:round;stroke-width:1.5px"/><polyline points="206.95 144.9 222.43 152.63 222.43 152.65" style="fill:none;stroke:#aaa;stroke-linecap:round;stroke-linejoin:round;stroke-width:1.5px"/><polyline points="207.1 143.55 207.1 143.53 220.69 136.74" style="fill:none;stroke:#aaa;stroke-linecap:round;stroke-linejoin:round;stroke-width:1.5px"/><line x1="208.67" y1="128.58" x2="220.43" y2="134.47" style="fill:none;stroke:#aaa;stroke-linecap:round;stroke-linejoin:round;stroke-width:1.5px"/><line x1="209.01" y1="125.41" x2="219" y2="120.4" style="fill:none;stroke:#aaa;stroke-linecap:round;stroke-linejoin:round;stroke-width:1.5px"/><line x1="210.77" y1="107.35" x2="217.25" y2="102.04" style="fill:none;stroke:#aaa;stroke-linecap:round;stroke-linejoin:round;stroke-width:1.5px"/><line x1="210.48" y1="110.23" x2="218.61" y2="116.39" style="fill:none;stroke:#aaa;stroke-linecap:round;stroke-linejoin:round;stroke-width:1.5px"/><line x1="211.82" y1="95.82" x2="216.91" y2="98.35" style="fill:none;stroke:#aaa;stroke-linecap:round;stroke-linejoin:round;stroke-width:1.5px"/><path d="M218.2,291a39.29,39.29,0,0,0-.32,4.3H205s-1-.19,0-4.3Z" transform="translate(-35.83 -32.94)" style="fill:#aaa"/><line x1="182.57" y1="258.05" x2="182.36" y2="258.05" style="fill:none"/><path d="M280.14,239.46c0,4.3-6.44,6.44-6.44,6.44H226.47s-6.44-2.14-6.44-6.44Z" transform="translate(-35.83 -32.94)" style="fill:#d6d6d6"/><path d="M267.25,205.11c0,4.29-4.29,6.44-4.29,6.44H237.2s-4.3-2.15-4.3-6.44Z" transform="translate(-35.83 -32.94)" style="fill:#d6d6d6"/><path d="M250.25,277.35" transform="translate(-35.83 -32.94)" style="fill:#aaa"/><path d="M249.92,239.46" transform="translate(-35.83 -32.94)" style="fill:#aaa"/><path d="M249.92,245.9" transform="translate(-35.83 -32.94)" style="fill:#aaa"/><path d="M295.17,295.29H282.29A39.29,39.29,0,0,0,282,291h13.21C296.14,295.1,295.17,295.29,295.17,295.29Z" transform="translate(-35.83 -32.94)" style="fill:#aaa"/><line x1="246.14" y1="258.05" x2="245.94" y2="258.05" style="fill:none"/><path d="M249.92,277.35" transform="translate(-35.83 -32.94)" style="fill:#aaa"/><path d="M248.12,239.46" transform="translate(-35.83 -32.94)" style="fill:#aaa"/><path d="M250.25,245.9" transform="translate(-35.83 -32.94)" style="fill:#aaa"/><polygon points="209.96 178.61 209.26 183.12 205.66 206.52 193.13 206.52 200.03 183.12 201.37 178.61 209.96 178.61" style="fill:#aaa"/><polygon points="235.37 206.52 222.84 206.52 219.24 183.12 218.55 178.61 227.13 178.61 228.46 183.12 235.37 206.52" style="fill:#aaa"/><polygon points="222.84 206.52 205.66 206.52 209.96 178.61 218.55 178.61 222.84 206.52" style="fill:#d6d6d6"/><path d="M239.35,245.9l-1.85,4.21-.65,1.46-1.29,2.92L231,264.86c-9.33,7.38-12,19.66-12.79,26.13H205c1-4.35,4.22-13.13,13.06-30.81.58-1.18,2-3.35,3.44-5.69.92-1.46,1.89-3,2.73-4.38a35.52,35.52,0,0,0,2.26-4.21Z" transform="translate(-35.83 -32.94)" style="fill:#d6d6d6"/><path d="M295.18,291H282c-.76-6.47-3.46-18.75-12.79-26.13l-4.57-10.37-1.29-2.92-.65-1.46-1.85-4.21H273.7a32.76,32.76,0,0,0,2.26,4.21c.84,1.39,1.81,2.92,2.73,4.38,1.47,2.34,2.85,4.51,3.43,5.69C291,277.85,294.16,286.63,295.18,291Z" transform="translate(-35.83 -32.94)" style="fill:#d6d6d6"/><path d="M269.18,264.86c-4.58-3.64-10.76-6.08-19.09-6.08s-14.52,2.44-19.1,6.08l4.57-10.37,1.29-2.92,2.5-5.67h21.47l2.5,5.67,1.29,2.92Z" transform="translate(-35.83 -32.94)" style="fill:#aaa"/><path d="M249,120.29h4.27a2.11,2.11,0,0,1,2.15,2.15c0,2.14-2.15,4.29-2.15,4.29h-6.42s-2.15-2.15-2.15-4.29a2.11,2.11,0,0,1,2.15-2.15Z" transform="translate(-35.83 -32.94)" style="fill:#d6d6d6"/><path d="M276,250.11H224.21a35.52,35.52,0,0,0,2.26-4.21H273.7A32.76,32.76,0,0,0,276,250.11Z" transform="translate(-35.83 -32.94)" style="opacity:0.2"/><polygon points="228.46 183.12 200.03 183.12 201.37 178.61 227.13 178.61 228.46 183.12" style="opacity:0.2"/><path d="M193,214.15H117.9s18.24-6.67,32.85-18.77h9.39C174.75,207.48,193,214.15,193,214.15Z" transform="translate(-35.83 -32.94)" style="fill:#f9713d"/><path d="M206.13,246.08H104.76s14.08-2.84,24.39-14.08h52.58C192.05,243.24,206.13,246.08,206.13,246.08Z" transform="translate(-35.83 -32.94)" style="fill:#f9713d"/><path d="M160.14,195.38a4.47,4.47,0,0,0-.94-5.64L157,187.59h-3.19l-2.16,2.15a4.45,4.45,0,0,0-.94,5.64Z" transform="translate(-35.83 -32.94)" style="fill:#e8e8e8"/><circle cx="119.61" cy="150.24" r="4.69" style="fill:#f9713d"/><rect x="93.33" y="181.21" width="52.56" height="17.83" style="fill:#e8e8e8"/><rect x="93.33" y="181.21" width="52.56" height="3.76" style="fill:#d6d6d6"/><path d="M220.21,278H90.67s14.08-2.84,24.4-14.08h80.75C206.13,275.17,220.21,278,220.21,278Z" transform="translate(-35.83 -32.94)" style="fill:#f9713d"/><rect x="79.25" y="213.14" width="80.73" height="17.83" style="fill:#e8e8e8"/><rect x="65.08" y="245.07" width="105.21" height="25.34" style="fill:#e8e8e8"/><rect x="65.08" y="245.07" width="105.21" height="4.66" style="fill:#d6d6d6"/><path d="M161.07,227.29a5.63,5.63,0,0,0-11.26,0V232h11.26Z" transform="translate(-35.83 -32.94)" style="fill:#aaa"/><rect x="116.79" y="216.87" width="5.63" height="14.08" style="fill:#d6d6d6"/><rect x="144.01" y="216.87" width="5.63" height="14.08" style="fill:#d6d6d6"/><rect x="89.58" y="216.87" width="5.63" height="14.08" style="fill:#d6d6d6"/><rect x="100.84" y="184.96" width="5.63" height="14.08" style="fill:#d6d6d6"/><rect x="132.75" y="184.96" width="5.63" height="14.08" style="fill:#d6d6d6"/><rect x="116.79" y="249.72" width="5.63" height="20.65" style="fill:#d6d6d6"/><rect x="98.02" y="249.72" width="5.63" height="20.65" style="fill:#d6d6d6"/><rect x="77.37" y="249.72" width="5.63" height="20.65" style="fill:#d6d6d6"/><rect x="135.57" y="249.72" width="5.63" height="20.65" style="fill:#d6d6d6"/><rect x="156.21" y="249.72" width="5.63" height="20.65" style="fill:#d6d6d6"/><rect x="79.25" y="213.14" width="80.73" height="3.73" style="fill:#d6d6d6"/><polygon points="354.79 45.42 363.98 52.3 352.58 53.66 354.79 45.42" style="fill:#f9713d"/><path d="M388.42,86.6" transform="translate(-35.83 -32.94)" style="fill:none;stroke:#000;stroke-miterlimit:10"/><line x1="350.38" y1="61.9" x2="354.79" y2="45.43" style="fill:none;stroke:#aaa;stroke-linecap:round;stroke-linejoin:round"/><polygon points="349.17 246.96 291.95 246.96 295.79 232.65 349.17 246.96" style="fill:#e8e8e8"/><polygon points="350.43 242.88 349.34 246.96 349.17 246.96 295.79 232.65 296.89 228.53 301.01 229.63 301.01 229.64 309.25 231.84 313.36 232.94 313.36 232.95 321.6 235.15 325.72 236.26 333.95 238.46 338.07 239.57 346.31 241.77 350.43 242.88" style="fill:#d6d6d6"/><path d="M392.34,253.17l-6.07,22.65-4.12-1.11L386,260.3s1.11-4.12-3-5.22-5.22,3-5.22,3l-3.87,14.42-4.12-1.11L373.66,257s1.1-4.12-3-5.22-5.22,3-5.22,3l-3.86,14.42-4.12-1.11,3.86-14.41s1.11-4.12-3-5.22-5.22,3-5.22,3l-3.87,14.41-4.11-1.1L349,250.37s1.1-4.12-3-5.22-5.22,3-5.22,3l-3.86,14.41-4.12-1.1,6.07-22.65Z" transform="translate(-35.83 -32.94)" style="fill:#e8e8e8"/><polygon points="357.6 216.11 356.5 220.23 302.96 205.88 304.06 201.76 308.18 202.86 308.18 202.87 316.42 205.08 316.42 205.07 320.54 206.18 328.77 208.39 328.77 208.38 332.89 209.49 341.13 211.7 345.25 212.8 353.48 215.01 357.6 216.11" style="fill:#d6d6d6"/><path d="M399.51,226.4l-6.07,22.65-4.12-1.1,3.86-14.42s1.11-4.12-3-5.22-5.22,3-5.22,3l-3.86,14.41-4.12-1.1,3.86-14.42s1.1-4.12-3-5.22-5.23,3-5.23,3l-3.86,14.42-4.12-1.11,3.87-14.41s1.1-4.12-3-5.22-5.22,3-5.22,3l-3.86,14.42L352.26,238l3.86-14.41s1.11-4.12-3-5.22-5.22,3-5.22,3L344,235.8l-4.12-1.1L346,212.05Z" transform="translate(-35.83 -32.94)" style="fill:#e8e8e8"/><polygon points="364.77 189.34 363.67 193.46 310.13 179.11 311.24 175 315.36 176.1 323.59 178.31 327.71 179.41 335.95 181.62 340.06 182.72 348.3 184.93 352.42 186.03 360.65 188.24 364.77 189.34" style="fill:#d6d6d6"/><path d="M407.79,195.52l-7.18,26.76-4.12-1.1,3.87-14.42s1.1-4.11-3-5.22-5.22,3-5.22,3L388.26,219l-4.12-1.1L388,203.45s1.11-4.11-3-5.22-5.22,3-5.22,3l-3.87,14.41-4.11-1.1,3.86-14.42s1.1-4.11-3-5.22-5.22,3-5.22,3l-3.86,14.41-4.12-1.1,3.86-14.42s1.11-4.11-3-5.22-5.22,3-5.22,3L351.2,209l-4.12-1.1,6.07-22.65,1.1-4.12,4.12,1.1,8.24,2.21,4.11,1.1,8.24,2.21,4.12,1.1,8.23,2.21,4.12,1.1,8.24,2.21Z" transform="translate(-35.83 -32.94)" style="fill:#e8e8e8"/><path d="M413.86,172.87l-6.07,22.65-4.12-1.11L407.53,180s1.1-4.12-3-5.22-5.23,3-5.23,3l-3.86,14.41-4.12-1.1,3.87-14.41s1.1-4.12-3-5.22-5.22,3-5.22,3l-3.86,14.41-4.12-1.1,3.86-14.41s1.11-4.12-3-5.23-5.22,3-5.22,3l-3.87,14.41-4.11-1.1,3.86-14.41s1.1-4.12-3-5.23-5.22,3-5.22,3l-3.86,14.41-4.12-1.1,6.07-22.65Z" transform="translate(-35.83 -32.94)" style="fill:#e8e8e8"/><polygon points="379.12 135.81 378.02 139.93 324.48 125.58 325.58 121.46 325.59 121.46 329.7 122.56 329.7 122.57 337.94 124.77 342.06 125.88 350.29 128.08 354.41 129.19 362.65 131.39 366.76 132.5 375 134.7 379.12 135.81" style="fill:#d6d6d6"/><path d="M422.7,139.93l-1.13,4.22L415,168.75l-4.12-1.11,3.86-14.41s1.11-4.12-3-5.22-5.22,3-5.22,3l-3.87,14.42-4.11-1.11,3.86-14.41s1.1-4.12-3-5.22-5.22,3-5.22,3l-3.86,14.42L386.13,161,390,146.61s1.1-4.12-3-5.22-5.22,3-5.22,3l-3.86,14.42-4.12-1.11,3.86-14.41s1.1-4.12-3-5.22-5.23,3-5.23,3l-3.86,14.41-4.11-1.1L368,129.8l0-.11,1.1-4.11,4.12,1.1,45.29,12.14Z" transform="translate(-35.83 -32.94)" style="fill:#e8e8e8"/><polygon points="386.86 106.99 385.73 111.21 332.18 96.86 332.21 96.75 333.31 92.64 337.43 93.74 382.72 105.88 386.86 106.99" style="fill:#d6d6d6"/><path d="M414.7,153.23l-3.86,14.41-8.24-2.2L406.47,151s1.1-4.12,5.22-3S414.7,153.23,414.7,153.23Z" transform="translate(-35.83 -32.94)" style="fill:#e8e8e8"/><path d="M377.64,143.3l-3.86,14.41-8.24-2.2h0l3.86-14.41s1.11-4.12,5.23-3S377.64,143.3,377.64,143.3Z" transform="translate(-35.83 -32.94)" style="fill:#aaa"/><path d="M390,146.61,386.13,161l-8.23-2.2,3.86-14.42s1.1-4.12,5.22-3S390,146.61,390,146.61Z" transform="translate(-35.83 -32.94)" style="fill:#aaa"/><path d="M402.35,149.92l-3.86,14.41-8.24-2.2,3.86-14.42s1.11-4.12,5.22-3S402.35,149.92,402.35,149.92Z" transform="translate(-35.83 -32.94)" style="fill:#aaa"/><path d="M414.7,153.23l-3.86,14.41-8.24-2.2L406.47,151s1.1-4.12,5.22-3S414.7,153.23,414.7,153.23Z" transform="translate(-35.83 -32.94)" style="fill:#aaa"/><rect x="378.33" y="162.69" width="4.26" height="55.43" transform="translate(62.24 475.68) rotate(-75)" style="fill:#d6d6d6"/><path d="M370.47,170.07l-3.86,14.41-8.24-2.21,3.86-14.41s1.11-4.12,5.22-3S370.47,170.07,370.47,170.07Z" transform="translate(-35.83 -32.94)" style="fill:#aaa"/><path d="M382.82,173.38,379,187.79l-8.24-2.21,3.87-14.41s1.1-4.12,5.22-3S382.82,173.38,382.82,173.38Z" transform="translate(-35.83 -32.94)" style="fill:#aaa"/><path d="M395.18,176.69l-3.87,14.41-8.23-2.21,3.86-14.41s1.1-4.12,5.22-3S395.18,176.69,395.18,176.69Z" transform="translate(-35.83 -32.94)" style="fill:#aaa"/><path d="M407.53,180l-3.86,14.41-8.24-2.21,3.86-14.41s1.11-4.12,5.23-3S407.53,180,407.53,180Z" transform="translate(-35.83 -32.94)" style="fill:#aaa"/><path d="M363.29,196.83l-3.86,14.42L351.2,209l3.86-14.41s1.1-4.12,5.22-3S363.29,196.83,363.29,196.83Z" transform="translate(-35.83 -32.94)" style="fill:#aaa"/><path d="M375.65,200.14l-3.86,14.42-8.24-2.21,3.86-14.41s1.11-4.12,5.22-3S375.65,200.14,375.65,200.14Z" transform="translate(-35.83 -32.94)" style="fill:#aaa"/><path d="M388,203.45l-3.86,14.42-8.24-2.21,3.87-14.41s1.1-4.12,5.22-3S388,203.45,388,203.45Z" transform="translate(-35.83 -32.94)" style="fill:#aaa"/><path d="M400.36,206.76l-3.87,14.42L388.26,219l3.86-14.41s1.1-4.12,5.22-3S400.36,206.76,400.36,206.76Z" transform="translate(-35.83 -32.94)" style="fill:#aaa"/><path d="M380.83,230.22,377,244.64l-8.24-2.21L372.59,228s1.11-4.11,5.23-3S380.83,230.22,380.83,230.22Z" transform="translate(-35.83 -32.94)" style="fill:#aaa"/><path d="M393.18,233.53,389.32,248l-8.23-2.21L385,231.33s1.1-4.12,5.22-3S393.18,233.53,393.18,233.53Z" transform="translate(-35.83 -32.94)" style="fill:#aaa"/><line x1="349.32" y1="247" x2="349.17" y2="246.96" style="fill:#e8e8e8"/><path d="M349,250.37l-3.86,14.41-8.24-2.2h0l3.86-14.41s1.11-4.12,5.22-3S349,250.37,349,250.37Z" transform="translate(-35.83 -32.94)" style="fill:#aaa"/><path d="M361.3,253.68l-3.86,14.41-8.24-2.2h0l3.87-14.41s1.1-4.12,5.22-3S361.3,253.68,361.3,253.68Z" transform="translate(-35.83 -32.94)" style="fill:#aaa"/><path d="M373.66,257l-3.87,14.41-8.23-2.2,3.86-14.42s1.1-4.12,5.22-3S373.66,257,373.66,257Z" transform="translate(-35.83 -32.94)" style="fill:#aaa"/><path d="M386,260.3l-3.86,14.41-8.24-2.2,3.87-14.42s1.1-4.12,5.22-3S386,260.3,386,260.3Z" transform="translate(-35.83 -32.94)" style="fill:#aaa"/><path d="M416.25,122.73l-3.86,14.41-8.24-2.2L408,120.52s1.1-4.12,5.22-3S416.25,122.73,416.25,122.73Z" transform="translate(-35.83 -32.94)" style="fill:#aaa"/><path d="M379.34,104l-6.07,22.65,45.29,12.14,6.07-22.65Zm12.2,12.08-3.86,14.41-8.24-2.2,3.87-14.42s1.1-4.12,5.22-3S391.54,116.11,391.54,116.11Zm12.36,3.31L400,133.83l-8.24-2.2,3.86-14.42s1.11-4.12,5.22-3S403.9,119.42,403.9,119.42Zm12.35,3.31-3.86,14.41-8.24-2.2L408,120.52s1.1-4.12,5.22-3S416.25,122.73,416.25,122.73Z" transform="translate(-35.83 -32.94)" style="fill:#e8e8e8"/><path d="M391.54,116.11l-3.86,14.41-8.24-2.2,3.87-14.42s1.1-4.12,5.22-3S391.54,116.11,391.54,116.11Z" transform="translate(-35.83 -32.94)" style="fill:#aaa"/><path d="M403.9,119.42,400,133.83l-8.24-2.2,3.86-14.42s1.11-4.12,5.22-3S403.9,119.42,403.9,119.42Z" transform="translate(-35.83 -32.94)" style="fill:#aaa"/><polygon points="392.51 77.6 388.8 83.23 388.79 83.23 343.5 71.09 343.09 64.36 345.15 64.91 390.45 77.05 392.51 77.6" style="fill:#d6d6d6"/><polygon points="391.55 72.93 390.45 77.05 345.15 64.91 346.25 60.8 350.37 61.9 391.55 72.93" style="fill:#aaa"/><path d="M356.12,223.6,352.26,238,344,235.81h0l3.87-14.41s1.1-4.11,5.22-3S356.12,223.6,356.12,223.6Z" transform="translate(-35.83 -32.94)" style="fill:#aaa"/><path d="M368.48,226.91l-3.87,14.42-8.23-2.21,3.86-14.42s1.1-4.11,5.22-3S368.48,226.91,368.48,226.91Z" transform="translate(-35.83 -32.94)" style="fill:#aaa"/><path d="M308.34,55.37a2.79,2.79,0,0,0-1.78-2.6V48.23a1,1,0,0,0-2,0v4.54a2.78,2.78,0,0,0,0,5.19V62.5a1,1,0,0,0,2,0V58A2.79,2.79,0,0,0,308.34,55.37Z" transform="translate(-35.83 -32.94)" style="fill:#aaa"/><path d="M335.9,139v50a1.79,1.79,0,0,0-1.79-1.78H277a1.79,1.79,0,0,0-1.79,1.78V139a1.79,1.79,0,0,0,1.79,1.78h5.36v46.4h46.4v-46.4h5.35A1.79,1.79,0,0,0,335.9,139Z" transform="translate(-35.83 -32.94)" style="fill:#e8e8e8"/><line x1="300.07" y1="106.08" x2="300.07" y2="104.31" style="fill:none"/><rect x="285.81" y="157.87" width="12.5" height="7.14" style="fill:#aaa"/><line x1="298.31" y1="157.87" x2="298.31" y2="157.84" style="fill:none"/><path d="M335.9,189a1.79,1.79,0,0,1-1.76,1.79H277a1.79,1.79,0,1,1,0-3.57h57.11A1.79,1.79,0,0,1,335.9,189Z" transform="translate(-35.83 -32.94)" style="fill:#aaa"/><path d="M335.9,199.74a1.79,1.79,0,0,1-1.76,1.78H277a1.79,1.79,0,1,1,0-3.57h57.14A1.79,1.79,0,0,1,335.9,199.74Z" transform="translate(-35.83 -32.94)" style="fill:#aaa"/><path d="M325.18,94.38a1.78,1.78,0,0,1-1.75,1.79H287.71a1.79,1.79,0,0,1,0-3.57h0v0l35.69,0A1.78,1.78,0,0,1,325.18,94.38Z" transform="translate(-35.83 -32.94)" style="fill:#d6d6d6"/><polygon points="287.57 59.66 251.88 59.68 251.89 59.66 287.57 59.66" style="fill:#d6d6d6"/><path d="M293.06,130.1v7.14h-7.14V130.1s0-3.57,3.57-3.57S293.06,130.1,293.06,130.1Z" transform="translate(-35.83 -32.94)" style="fill:#aaa"/><path d="M303.78,130.1v7.14h-7.14V130.1s0-3.57,3.57-3.57S303.78,130.1,303.78,130.1Z" transform="translate(-35.83 -32.94)" style="fill:#aaa"/><path d="M314.49,130.1v7.14h-7.14V130.1s0-3.57,3.57-3.57S314.49,130.1,314.49,130.1Z" transform="translate(-35.83 -32.94)" style="fill:#aaa"/><path d="M325.21,130.1v7.14h-7.14V130.1s0-3.57,3.57-3.57S325.21,130.1,325.21,130.1Z" transform="translate(-35.83 -32.94)" style="fill:#aaa"/><path d="M328.76,123v14.28h-3.55V130.1s0-3.57-3.57-3.57-3.57,3.57-3.57,3.57v7.14h-3.58V130.1s0-3.57-3.57-3.57-3.57,3.57-3.57,3.57v7.14h-3.57V130.1s0-3.57-3.57-3.57-3.57,3.57-3.57,3.57v7.14h-3.58V130.1s0-3.57-3.57-3.57-3.57,3.57-3.57,3.57v7.14h-3.56V123Z" transform="translate(-35.83 -32.94)" style="fill:#d6d6d6"/><path d="M289.49,146.16a1.79,1.79,0,1,1-1.78-1.78A1.79,1.79,0,0,1,289.49,146.16Z" transform="translate(-35.83 -32.94)" style="fill:#d6d6d6"/><path d="M325.21,146.16a1.79,1.79,0,1,1-1.79-1.78A1.79,1.79,0,0,1,325.21,146.16Z" transform="translate(-35.83 -32.94)" style="fill:#d6d6d6"/><path d="M335.9,139a1.79,1.79,0,0,1-1.79,1.79H277a1.79,1.79,0,0,1-1.79-1.78h0a.28.28,0,0,1,0-.09,1.77,1.77,0,0,1,1.78-1.69h57.11a1.77,1.77,0,0,1,1.78,1.69A.28.28,0,0,1,335.9,139Z" transform="translate(-35.83 -32.94)" style="fill:#aaa"/><path d="M280.57,137.24H277a1.77,1.77,0,0,0-1.78,1.69V130.1Z" transform="translate(-35.83 -32.94)" style="fill:#d6d6d6"/><path d="M335.89,130.1v8.83a1.77,1.77,0,0,0-1.78-1.69h-3.57Z" transform="translate(-35.83 -32.94)" style="fill:#d6d6d6"/><polygon points="292.92 90.02 246.53 90.02 251.88 77.53 287.57 77.53 292.92 90.02" style="fill:#aaa"/><polygon points="287.57 59.66 251.89 59.66 269.73 27.56 287.57 59.66" style="fill:#aaa"/><polygon points="287.57 59.66 251.88 59.68 251.89 59.66 287.57 59.66" style="fill:#d6d6d6"/><path d="M282.36,140.82v46.39h46.4V140.82Zm5.35,42.84a1.79,1.79,0,1,1,1.78-1.78A1.79,1.79,0,0,1,287.71,183.66Zm0-35.71a1.79,1.79,0,1,1,1.78-1.79A1.79,1.79,0,0,1,287.71,148Zm35.71,35.71a1.79,1.79,0,1,1,1.79-1.78A1.78,1.78,0,0,1,323.42,183.66Zm0-35.71a1.79,1.79,0,1,1,1.79-1.79A1.79,1.79,0,0,1,323.42,148Z" transform="translate(-35.83 -32.94)" style="fill:#d6d6d6"/><path d="M289.49,181.88a1.79,1.79,0,1,1-1.78-1.79A1.78,1.78,0,0,1,289.49,181.88Z" transform="translate(-35.83 -32.94)" style="fill:#d6d6d6"/><path d="M289.49,146.16a1.79,1.79,0,1,1-1.78-1.78A1.79,1.79,0,0,1,289.49,146.16Z" transform="translate(-35.83 -32.94)" style="fill:#d6d6d6"/><path d="M325.21,181.88a1.79,1.79,0,1,1-1.79-1.79A1.79,1.79,0,0,1,325.21,181.88Z" transform="translate(-35.83 -32.94)" style="fill:#d6d6d6"/><path d="M325.21,146.16a1.79,1.79,0,1,1-1.79-1.78A1.79,1.79,0,0,1,325.21,146.16Z" transform="translate(-35.83 -32.94)" style="fill:#d6d6d6"/><rect x="246.53" y="107.87" width="46.4" height="0.01" style="fill:#d6d6d6"/><polygon points="255.46 157.87 255.45 165.01 241.17 165.01 241.17 157.87 255.46 157.87" style="fill:#d6d6d6"/><line x1="241.17" y1="157.87" x2="241.17" y2="157.84" style="fill:none"/><line x1="298.31" y1="168.58" x2="298.31" y2="168.55" style="fill:none"/><line x1="241.17" y1="168.58" x2="241.17" y2="168.55" style="fill:none"/><line x1="290.75" y1="168.58" x2="290.75" y2="168.55" style="fill:none"/><line x1="248.73" y1="168.58" x2="248.73" y2="168.55" style="fill:none"/><line x1="285.19" y1="168.58" x2="285.19" y2="168.55" style="fill:none"/><line x1="254.29" y1="168.58" x2="254.29" y2="168.55" style="fill:none"/><rect x="241.17" y="168.58" width="57.14" height="107.49" style="fill:#d6d6d6"/><line x1="278.18" y1="168.58" x2="278.18" y2="168.55" style="fill:none"/><line x1="261.31" y1="168.58" x2="261.31" y2="168.55" style="fill:none"/><polygon points="269.74 157.87 269.74 165.01 255.45 165.01 255.46 157.87 269.74 157.87" style="fill:#aaa"/><line x1="269.74" y1="157.87" x2="269.74" y2="157.84" style="fill:none"/><line x1="255.46" y1="157.87" x2="255.46" y2="157.84" style="fill:none"/><rect x="269.74" y="157.87" width="16.07" height="7.14" style="fill:#d6d6d6"/><line x1="285.81" y1="157.87" x2="285.81" y2="157.84" style="fill:none"/><path d="M289.49,146.16a1.79,1.79,0,1,1-1.78-1.78A1.79,1.79,0,0,1,289.49,146.16Z" transform="translate(-35.83 -32.94)" style="fill:#aaa"/><path d="M325.21,146.16a1.79,1.79,0,1,1-1.79-1.78A1.79,1.79,0,0,1,325.21,146.16Z" transform="translate(-35.83 -32.94)" style="fill:#aaa"/><path d="M289.49,181.88a1.79,1.79,0,1,1-1.78-1.79A1.78,1.78,0,0,1,289.49,181.88Z" transform="translate(-35.83 -32.94)" style="fill:#aaa"/><path d="M325.21,181.88a1.79,1.79,0,1,1-1.79-1.79A1.79,1.79,0,0,1,325.21,181.88Z" transform="translate(-35.83 -32.94)" style="fill:#aaa"/><rect x="251.88" y="63.01" width="35.69" height="14.52" style="fill:#e8e8e8"/><path d="M291.29,110.46v-7.14s0-3.57,3.56-3.57,3.57,3.57,3.57,3.57v7.14Z" transform="translate(-35.83 -32.94)" style="fill:#aaa"/><path d="M302,110.46v-7.14s0-3.57,3.57-3.57,3.57,3.57,3.57,3.57v7.14Z" transform="translate(-35.83 -32.94)" style="fill:#aaa"/><path d="M312.71,110.46v-7.14s0-3.57,3.57-3.57,3.57,3.57,3.57,3.57v7.14Z" transform="translate(-35.83 -32.94)" style="fill:#aaa"/><circle cx="305.56" cy="164.01" r="16.06" transform="translate(-62.31 231.16) rotate(-45)" style="fill:#fff"/><circle cx="269.73" cy="131.07" r="12.85" style="fill:none;stroke:#000;stroke-linecap:round;stroke-linejoin:round;opacity:0.4"/><circle cx="269.73" cy="131.07" r="7.14" style="fill:none;stroke:#aaa;stroke-miterlimit:10"/><circle cx="269.73" cy="131.07" r="1.78" style="fill:none;stroke:#aaa;stroke-miterlimit:10"/><line x1="259.02" y1="120.37" x2="269.73" y2="131.07" style="fill:none;stroke:#aaa;stroke-linecap:round;stroke-linejoin:round"/><line x1="280.43" y1="131.07" x2="269.73" y2="131.07" style="fill:none;stroke:#aaa;stroke-linecap:round;stroke-linejoin:round"/><rect x="241.17" y="168.58" width="5.19" height="107.49" style="fill:#d6d6d6"/><rect x="251.56" y="168.58" width="5.19" height="107.49" style="fill:#aaa;opacity:0.4"/><rect x="261.95" y="168.58" width="5.19" height="107.49" style="fill:#aaa;opacity:0.4"/><rect x="272.34" y="168.58" width="5.19" height="107.49" style="fill:#aaa;opacity:0.4"/><rect x="282.73" y="168.58" width="5.19" height="107.49" style="fill:#aaa;opacity:0.4"/><rect x="293.12" y="168.58" width="5.19" height="107.49" style="fill:#d6d6d6"/><path d="M405.82,259.84c0,1.15,0,2.3,0,3.45a155.78,155.78,0,0,1-305.45,39.52q8.82-.19,18.63-.9l.32,0c12.75-.92,26.65-2.47,41.46-4.65,13.54-2,27.84-4.47,42.71-7.48l.09,0c18.82-3.8,38.54-8.42,58.76-13.84q16.09-4.31,31.43-9l.87-.26c18.41-5.6,35.88-11.51,52.09-17.57,11.83-4.43,23-8.93,33.38-13.45q2.63-1.14,5.18-2.29,8.81-3.93,16.77-7.87A156.14,156.14,0,0,1,405.82,259.84Z" transform="translate(-35.83 -32.94)" style="fill:#01a7e3"/><g style="opacity:0.4"><path d="M278,407.63a5,5,0,0,1-2.49-.29c-5.9-1.74-12.29-3.83-15.63-9-2.46-3.8-2.78-8.57-4.43-12.79A21.82,21.82,0,0,0,235,372.05c-2.52.07-5.18.56-7.46-.52-3.54-1.7-4.45-6.31-7.12-9.19-3-3.31-8.54-4.58-9.79-8.91-.62-2.16.09-4.47-.09-6.71-.53-6.39-7.84-10-14.24-10.39s-13.05,1-19.12-1.07c-4.55-1.54-8.23-4.9-12.48-7.16A28.67,28.67,0,0,0,146,325.27c-5,1-9.63,3.22-14.59,4.2-2,.4-12.49,1-20.13,1.1a154.31,154.31,0,0,1-11-27.76q8.82-.19,18.63-.9c24.48-1.75,53.24-5.82,84.49-12.15,0,.27,0,.42,0,.44-1.46,4.9-9.28,7.66-7.58,12.48.51,1.46,1.87,2.52,2.3,4,.67,2.41-1.4,4.76-3.63,5.91s-4.82,1.74-6.65,3.44-2.32,5.25-.11,6.42c.77-2.12,4.07-.44,5,1.64s2,4.94,4.2,4.56a22.17,22.17,0,0,0,2.4-1.06c2.62-.79,4.72,2.49,7.42,2.88,2.41.35,4.54-1.74,5.52-4s1.3-4.72,2.48-6.85a9.7,9.7,0,0,1,8.76-4.89c3.71.19,7.15,2.54,10.86,2.24,2.46-.21,4.8-1.6,7.26-1.4,3.82.33,6.38,4.25,10,5.37,5.25,1.61,11.2-2.92,16.19-.63,3,1.37,4.52,4.82,4.92,8.1s0,6.62.34,9.9c.42,3.66,1.88,7.16,2.33,10.83,1,8.1-2.9,15.94-4.05,24a36.22,36.22,0,0,0,6.23,25.67,12.7,12.7,0,0,1,2.49,4.55C280.45,405.14,279.64,407.24,278,407.63Z" transform="translate(-35.83 -32.94)" style="fill:#fff"/><path d="M365.71,277.31c-.41,2.81,2.2,5.24,4.91,6.09s5.63.68,8.37,1.38,5.56,2.73,5.63,5.56a7.67,7.67,0,0,1-1.69,4.37c-3.86,5.69-9.71,11.32-8.55,18.1.58,3.46,3,6.56,2.82,10.07-.32,5.73-7,8.52-10.8,12.79-4.54,5-5.2,12.36-8.31,18.37a7.82,7.82,0,0,1-3.35,3.73c-2.7,1.28-6-.4-7.76-2.84s-2.35-5.47-3.27-8.32a37.51,37.51,0,0,0-6-11.37c-1.76-2.29-3.84-4.45-4.88-7.16-.73-1.91-.88-4-1.52-5.95-1.67-5.09-6.29-8.56-10.63-11.69a30.89,30.89,0,0,0-8.18-4.69c-3.17-1-6.6-1-9.87-1.75a22,22,0,0,1-16.34-15.43,20.37,20.37,0,0,1,7.2-21.09,3.12,3.12,0,0,0,.25-.55l.87-.26c18.41-5.6,35.88-11.51,52.09-17.57,11.83-4.43,23-8.93,33.38-13.45q2.63-1.14,5.18-2.29,8.81-3.93,16.77-7.87a156.14,156.14,0,0,1,3.8,34.35c0,1.15,0,2.3,0,3.45-5.36,5.24-14.21,12.18-23.11,11.38-3.19-.29-6.24-1.36-9.44-1.67S366.16,274.14,365.71,277.31Z" transform="translate(-35.83 -32.94)" style="fill:#fff"/></g><path d="M387.48,258.18a137.67,137.67,0,0,1-268.2,43.71c12.75-.92,26.65-2.47,41.46-4.65,13.54-2,27.84-4.47,42.71-7.48l.09,0c18.82-3.8,38.54-8.42,58.76-13.84,11-2.95,21.82-6,32.3-9.23,18.41-5.6,35.88-11.51,52.09-17.57,11.83-4.43,23-8.93,33.38-13.45q2.63-1.14,5.18-2.29A139,139,0,0,1,387.48,258.18Z" transform="translate(-35.83 -32.94)" style="fill:#fff;opacity:0.1"/><path d="M347.11,258.18a97.28,97.28,0,0,1-186.37,39.06c13.54-2,27.84-4.47,42.71-7.48l.09,0c18.82-3.8,38.54-8.42,58.76-13.84,11-2.95,21.82-6,32.3-9.23,18.41-5.6,35.88-11.51,52.09-17.57Q347.11,253.59,347.11,258.18Z" transform="translate(-35.83 -32.94)" style="fill:#fff;opacity:0.1"/><path d="M256.52,366.89s1.06-.08,3-.37" transform="translate(-35.83 -32.94)" style="fill:none;stroke:#fff;stroke-linecap:round;stroke-linejoin:round;stroke-width:2px"/><path d="M265.17,365.49C283.1,361.68,325,348,353.32,300.82" transform="translate(-35.83 -32.94)" style="fill:none;stroke:#fff;stroke-linecap:round;stroke-linejoin:round;stroke-width:2px;stroke-dasharray:5.765999794006348,5.765999794006348"/><path d="M354.78,298.33q.75-1.29,1.47-2.61" transform="translate(-35.83 -32.94)" style="fill:none;stroke:#fff;stroke-linecap:round;stroke-linejoin:round;stroke-width:2px"/><path d="M269.18,395.82s-99.64-7.67-126.87-78.7" transform="translate(-35.83 -32.94)" style="fill:none;stroke:#fff;stroke-linecap:round;stroke-linejoin:round;stroke-width:2px;stroke-dasharray:6"/><path d="M250,331.3s38.86-47,130.46-69.81" transform="translate(-35.83 -32.94)" style="fill:none;stroke:#fff;stroke-linecap:round;stroke-linejoin:round;stroke-width:2px;stroke-dasharray:6"/><path d="M93.43,305.39c-26.59,0-53.28-3.72-57.14-18.13L41.12,286c5.63,21,95.59,21,220.53-12.48S464.51,195,458.88,174l4.83-1.29c4.64,17.32-27,37.79-54.46,51.91-37.74,19.44-89.7,38.5-146.3,53.67S151.81,303,109.41,305C104.21,305.24,98.82,305.39,93.43,305.39Z" transform="translate(-35.83 -32.94)" style="fill:#f7d546"/><path d="M306,268.74c-7.14,2.29-21,3.75-21,3.75l-2.46,7.59-5.42,1.73-.64-9.83-5.18-8.36,5.41-1.74,6.41,4.74s12.14-6.87,19.28-9.16l.43-.14-17.63-20.73,4.55-1.45A8.48,8.48,0,0,1,298,237.5c2.73,2.79,12.62,11.3,17.76,15.67l10.33-3.31s10.2-2.42,11.76,2.45-8.15,8.83-8.15,8.83l-10.32,3.31c-1.64,6.54-4.75,19.23-5.35,23.08a8.47,8.47,0,0,1-5.36,6.73l-4.55,1.46,2.29-27.12Z" transform="translate(-35.83 -32.94)" style="fill:#f9713d"/></g></svg>